<?xml version="1.0" standalone="no"?>
<!DOCTYPE svg PUBLIC "-//W3C//DTD SVG 1.1//EN" "http://www.w3.org/Graphics/SVG/1.1/DTD/svg11.dtd" >
<svg>
<metadata>
Created by FontForge 20090914 at Thu Dec 27 23:01:16 2012
 By www-data
Copyright (C) 1992
</metadata>
<defs>
<font id="BetinaScript" horiz-adv-x="598" >
  <font-face 
    font-family="BetinaScript"
    font-weight="400"
    font-stretch="normal"
    units-per-em="1000"
    panose-1="0 0 0 0 0 0 0 0 0 0"
    ascent="800"
    descent="-200"
    x-height="364"
    cap-height="631"
    bbox="-194.998 -532.999 1194 947"
    underline-thickness="56"
    underline-position="-505"
    unicode-range="U+0020-U+2122"
  />
<missing-glyph horiz-adv-x="947" 
d="M59 0v947h829v-947h-829zM829 59v829h-711v-829h711z" />
    <glyph glyph-name=".notdef" horiz-adv-x="947" 
d="M59 0v947h829v-947h-829zM829 59v829h-711v-829h711z" />
    <glyph glyph-name="space" unicode=" " horiz-adv-x="351" 
 />
    <glyph glyph-name="exclam" unicode="!" horiz-adv-x="209" 
d="M153 793l13.001 -0.99707l8 -3l-4 -14l-13 -39c-11.333 -32.667 -17 -57.334 -17 -74.001l-1 -18c0 -6.66699 -3.33301 -21 -10 -43l-17 -63c-2 -9.33301 -3 -21.333 -3 -36v-48c0 -17.333 -1.66699 -29.833 -5 -37.5s-5 -22.834 -5 -45.501c0 -18 3.66699 -34 11 -48
c4 -8 6 -22 6 -42c0 -7.33301 -4.33301 -14.333 -13 -21s-17.667 -11 -27 -13l-7 12c-1.33301 10 -3 16 -5 18l-16 21l6 7l4 4l2 4l-2 130l3 17l3 15l1 17v27l1 20l5 20l11 39l3 25c0 15.333 0.666992 24.666 2 27.999c6 57.333 14.167 95.333 24.5 114s24.166 28 41.499 28
zM86.001 21.0029c8 0 15.5 -8.00098 22.5 -24.001s10.5 -30 10.5 -42c0 -8 -5.33301 -14 -16 -18l-16 -5h-18c-4 2 -8 9 -12 21l-3 30c0 11.333 3 20.333 9 27s13.667 10.334 23 11.001z" />
    <glyph glyph-name="quotedbl" unicode="&#x22;" horiz-adv-x="422" 
d="M130 888c6 0 11.667 -2.66797 17 -8.00098c2.66699 -3.33301 5 -9.33301 7 -18c0 -31.333 -2 -53.666 -6 -66.999c-9.33301 -26.667 -14 -63.667 -14 -111v-36l1 -102l4 -43v-22c-4 -10 -9.66699 -15 -17 -15s-15 7 -23 21c-6 14 -9 33.667 -9 59l1 59v41l3 106l-2 18
l-2 15c0 39.333 1.33301 64 4 74c5.33301 19.333 17.333 29 36 29zM309 898.999c4 0 9 -3.00098 15 -9.00098c3.33301 -3.33301 6 -9 8 -17l-2 -12l-3 -15l-4 -31l-2 -27l-5 -41l-1 -13c0 -23.333 -5 -69 -15 -137l-6 -44l-2 -34l1 -23c0 -10.667 -6 -16 -18 -16
c-6 0 -12.167 3.83301 -18.5 11.5s-9.5 15.834 -9.5 24.501l2 46v27l1 35c0 13.333 1.33301 25.333 4 36l12 63l5 33l3 38l-3 62c0 17.333 4.33301 30 13 38c4.66699 3.33301 13 5 25 5z" />
    <glyph glyph-name="numbersign" unicode="#" horiz-adv-x="546" 
d="M284 707c3.33301 0 7.66602 -2.99805 12.999 -8.99805l5 -18c0 -6 -1.66699 -11.667 -5 -17c-6 -9.33301 -10 -19 -12 -29l-5 -24l-10 -29l126 -7l9 52l8 35c8 30 23.333 45 46 45c4 0 8 -2.83301 12 -8.5s6 -11.834 6 -18.501c0 -4 -1.33301 -8.66699 -4 -14l-17 -40
l-8 -31l-6 -19l66 -1l23 2c4.66699 0 8.83398 -1.33301 12.501 -4s6.5 -6.66699 8.5 -12c0 -12.667 -10.333 -22.334 -31 -29.001c-15.333 -3.33301 -36.333 -5 -63 -5h-31l-16 -51l-19 -50h16l18 1l20 -2l30 -5l26 -2l23 2c6 -2 10.333 -4 13 -6s5 -5.33301 7 -10
c0 -4.66699 -2.5 -10.167 -7.5 -16.5s-12.5 -10.5 -22.5 -12.5l-26 2l-23 2l-27 -2l-23 -1l-40 3l-19 -93c-9.33301 -31.333 -20.666 -47 -33.999 -47c-3.33301 0 -8 4 -14 12c-4 8 -6 16.333 -6 25l1 16c0 4.66699 2.33301 13.667 7 27l16 62c-44 -4 -84.667 -6 -122 -6
l-12 -93c-6 -34.667 -16.667 -52 -32 -52c-3.33301 0 -8 4 -14 12c-4 8 -6 16.333 -6 25l3 35l18 76l-23 2h-17l-21 -1h-14c-14.667 0 -26.334 2 -35.001 6s-13 12.333 -13 25c0 3.33301 2 8.33301 6 15s9 10 15 10l25 -2l31 -2h22l25 1h9l27 108l-44 -6l-38 -3
c-18 0 -31.333 2.5 -40 7.5s-13 13.167 -13 24.5c0 3.33301 2 8.33301 6 15s9 10 15 10l25 -3l33 -2h32h39l25 85c10 26.667 25 40 45 40zM214 426.002l46 -5l80 -1l29 69l13 37l-80 9l-52 4l-19 -46z" />
    <glyph glyph-name="dollar" unicode="$" horiz-adv-x="782" 
d="M426 786c9.33301 0 17.665 -2.66797 24.998 -8.00098c8 -4 12 -9.66699 12 -17c0 -20 -6 -38.667 -18 -56c-12 -14 -18 -41.667 -18 -83l41 11l12 49c4 11.333 13.667 17 29 17c8.66699 0 16.334 -5.5 23.001 -16.5s10 -23.5 10 -37.5l72 9l60 7
c18.667 0 36.834 -4 54.501 -12s26.834 -16.333 27.501 -25c0 -8 -4.33301 -16.333 -13 -25c-8.66699 -7.33301 -20.334 -11 -35.001 -11c-4 0 -10.667 2.33301 -20 7l-17 8l-44 -1l-45 -1c-28.667 0 -48.667 -2.33301 -60 -7c-14 -20.667 -24.667 -46.667 -32 -78l-13 -85
c28.667 -8 53 -20.667 73 -38l41 -34c34.667 -25.333 53.667 -40.666 57 -45.999c20 -24 30 -59 30 -105c0 -50 -20 -100 -60 -150c-47.333 -58 -116.333 -95.667 -207 -113c0 -16.667 0.666992 -27.667 2 -33l2 -29c0 -19.333 -3.16699 -36.166 -9.5 -50.499
s-14.833 -21.5 -25.5 -21.5c-7.33301 0 -14 1.16699 -20 3.5s-9 6.16602 -9 11.499c0 10 4 25 12 45l8 28c2 8.66699 3.33301 15.667 4 21s1 14.666 1 27.999l-40 12l-44 8c-10 -17.333 -15 -28.666 -15 -33.999l7 -5l14 -8c14 -6 21 -12.667 21 -20
c0 -22 -3.33301 -40.667 -10 -56c-10 -22.667 -27 -34 -51 -34c-11.333 0 -20 4 -26 12c-4.66699 8 -7 17.333 -7 28c0 10 0.666992 17 2 21l4 20l10 48l3 37c-40.667 8 -94.667 31.333 -162 70c-74 42 -111 75 -111 99c0 14.667 4.66699 28.167 14 40.5s18 18.5 26 18.5
c4 0 10 -3.83301 18 -11.5s13 -15.167 15 -22.5l-2 -11c0 -17.333 21.333 -39.333 64 -66c36 -22.667 83.333 -46 142 -70c4 30 11 59 21 87l14 46c4 13.333 7 29.333 9 48l7 49l4 27c0 4.66699 3.33301 17 10 37l13 51l11 46l-42 7c-12 3.33301 -25 8.66602 -39 15.999
c-32.667 15.333 -49 32 -49 50c0 20 19 42.667 57 68c32.667 20 69.334 35 110.001 45c0 48.667 4 81.334 12 98.001s12 34 12 52v26c3.33301 6 12.666 9 27.999 9zM370.999 551.999l-13.002 -11c-56 -21.333 -84 -35.666 -84 -42.999
c0.666992 -1.33301 1.33398 -2.33301 2.00098 -3c4 -4.66699 10.333 -10.334 19 -17.001c10.667 -6 28.334 -12.667 53.001 -20l4 18l7 27l9 33zM295.997 7.99902l34 -2.00195l44 -1c0 83.333 3.33301 148.333 10 195l30 187l-16 6l-13 4
c-18 -53.333 -37.333 -121.666 -58 -204.999l-23 -111c-2.66699 -16.667 -4.66699 -30.167 -6 -40.5s-2 -21.166 -2 -32.499zM402.997 495.997l-3 -49l21 -11l5 3l-2 2c8 41.333 16.333 72.333 25 93l10 46l-49 -24c-4.66699 -8 -7 -28 -7 -60zM423.997 9.99707
c44.667 4 84.833 22.5 120.5 55.5s58.5 74.167 68.5 123.5l3 29l-3 22c-6 24.667 -23.5 50 -52.5 76s-61.167 44 -96.5 54l-9 -42l-16 -70c-3.33301 -13.333 -6 -27.833 -8 -43.5s-3 -31.5 -3 -47.5l1 -47l1 -38l-1 -33c0 -5.33301 -0.333008 -11.5 -1 -18.5
s-2 -13.833 -4 -20.5z" />
    <glyph glyph-name="percent" unicode="%" horiz-adv-x="764" 
d="M166 645l13.999 7.99902l16 6h24c22.667 0 42.167 -1.83301 58.5 -5.5s29.833 -8.16699 40.5 -13.5c28.667 -12 46.334 -35.333 53.001 -70v-33c0 -56.667 -20 -99 -60 -127c-26.667 -17.333 -58.667 -26 -96 -26c-8 0 -20.667 6.66699 -38 20l-40 39
c-10 12 -17.333 25.667 -22 41l-5 28l-2 37c0 20 4.5 37.833 13.5 53.5s23.5 29.834 43.5 42.501zM187.999 601.999c-6 -4 -10.667 -8.66602 -14 -13.999s-6.33301 -12 -9 -20l3 -48c2 -14 7.5 -28.333 16.5 -43s20.5 -25.667 34.5 -33
c6 -2.66699 14.333 -5.33398 25 -8.00098c11.333 0 25.333 8 42 24s27 31 31 45v21l2 32c0 12.667 -8.66699 24.667 -26 36s-36.333 17 -57 17h-24c-8 0 -16 -3 -24 -9zM369.999 343l51.001 44c16 14 36.667 34.667 62 62c30 35.333 48.667 55.333 56 60l108 89
c14.667 12.667 28.667 19 42 19c12 0 18 -6 18 -18l-6 -22c-12 -26 -29.333 -48.333 -52 -67l-98 -76l-37 -40l-39 -44l-48 -43l-52 -43c-26.667 -24 -67.334 -65 -122.001 -123l-95 -103c-28 -28 -50.667 -42 -68 -42c-6 0 -11.5 2.33301 -16.5 7s-7.5 12.667 -7.5 24
c0 16 16 39.667 48 71l108 95l91 95zM465 216c11.333 22.667 31.999 40.832 61.999 54.499s58 20.5 84 20.5c20.667 0 37 -3.66699 49 -11c10.667 -4.66699 23.334 -20 38.001 -46c14.667 -29.333 23 -49.666 25 -60.999c0 -37.333 -5.66699 -67.333 -17 -90
c-19.333 -42 -53 -63 -101 -63c-40 0 -68.667 7.33301 -86 22l-30 40c-16 17.333 -26 30.333 -30 39c-6 13.333 -9 29.666 -9 48.999c0 6 1.33301 12.667 4 20c2 8.66699 5.66699 17.334 11 26.001zM506.999 190.998l-2 -12l-1 -10c0 -8.66699 2 -17.667 6 -27
c2 -4.66699 5.5 -10 10.5 -16s12.167 -13.667 21.5 -23l15 -12l12 -8c6 -3.33301 16.333 -6 31 -8c30 0 50.667 8 62 24c4.66699 10.667 7 28 7 52c0 58 -30 87 -90 87c-10 0 -23 -5 -39 -15s-27 -20.667 -33 -32z" />
    <glyph glyph-name="ampersand" unicode="&#x26;" horiz-adv-x="588" 
d="M251 361c10.667 -21.333 22.998 -43 36.998 -65c10.667 -17.333 17.334 -28 20.001 -32c5.33301 -8.66699 13.333 -20 24 -34l63 -91c29.333 13.333 52.333 33.5 69 60.5s25 54.833 25 83.5l-19 -1c-12.667 0 -21.334 -0.666992 -26.001 -2l-45 -7
c-10.667 0 -19.5 2.16699 -26.5 6.5s-10.5 12.5 -10.5 24.5c0 10 2 16.667 6 20l15 6l22 -3l19 -1h14l14 1h25h11l14 2l44 10h23c24 0 46.667 7 68 21c18 14 31.667 21 41 21c6.66699 0 10 -7.66699 10 -23c0 -8.66699 -5.66699 -17.667 -17 -27
c-9.33301 -9.33301 -20.666 -17 -33.999 -23l-60 -18l-32 -4c0 -44 -9.33301 -80.667 -28 -110c-14 -24 -44 -53 -90 -87l16 -18l12 -6c6.66699 -2 10 -9.33301 10 -22v-20c0 -6 -2.66699 -10.667 -8 -14l-18 -4c-14.667 0 -23.834 1.5 -27.501 4.5s-14.5 18.833 -32.5 47.5
c-22.667 -12 -44 -21 -64 -27c-11.333 -2.66699 -21.166 -4.66699 -29.499 -6s-17.166 -2 -26.499 -2l-40 4l-30 4c-42 6 -68.333 14.333 -79 25l-9 22l-11 21l-30 47c-9.33301 16.667 -14 37.334 -14 62.001c0 30 8.33301 60.333 25 91c24 42 59.667 72.333 107 91l-16 42
c-4 14 -6 28.667 -6 44c0 29.333 9 55.666 27 78.999s40.333 35 67 35c24.667 0 45.667 -9.66699 63 -29c18.667 -18.667 28 -43 28 -73c0 -26 -8 -50 -24 -72s-38 -40 -66 -54zM197.998 339c-30 -10 -53.334 -27.5 -70.001 -52.5s-25 -51.167 -25 -78.5
c0 -42 13.333 -74 40 -96c12 -9.33301 33.667 -19 65 -29l23 -6l21 -1l19 1c5.33301 0 13.666 2.66699 24.999 8c10.667 3.33301 26.334 12.333 47.001 27c-26.667 48 -52.667 86.333 -78 115c-17.333 20.667 -39.666 58 -66.999 112zM228.997 408
c16 6 29.334 16.333 40.001 31c14 16 21 35.333 21 58c0 13.333 -3.83301 24.333 -11.5 33s-15.834 13 -24.501 13c-10.667 0 -21 -8 -31 -24c-5.33301 -11.333 -8.83301 -21.5 -10.5 -30.5s-2.5 -17.833 -2.5 -26.5l3 -14z" />
    <glyph glyph-name="quotesingle" unicode="'" horiz-adv-x="169" 
d="M-7 888c4.66699 0 10 -3 16 -9c3.33301 -3.33301 6 -9 8 -17l-5 -16l-4 -13l-1 -18l-1 -28l-3 -23l-3 -24l1 -54l-1 -38l3 -94l-1 -20l-1 -17l1 -13v-23c-4 -10 -9.66699 -15 -17 -15s-14.666 7 -21.999 21c-6.66699 15.333 -10 35 -10 59l1 59v41v72v46l4 31v24l-1 23
c0 16 2.16699 27.667 6.5 35s14.166 11 29.499 11z" />
    <glyph glyph-name="parenleft" unicode="(" horiz-adv-x="280" 
d="M248 698c6 0 12.333 -1.99902 19 -5.99902s10 -10.333 10 -19c0 -10 -9.33301 -28.333 -28 -55l-37 -60l-29 -64l-28 -83c-8.66699 -28.667 -16 -59.334 -22 -92.001c-2.66699 -16 -4.66699 -30.333 -6 -43s-2 -26.667 -2 -42c0 -26 4 -60.667 12 -104
c6 -30 14 -61 24 -93c7.33301 -24 17.666 -46 30.999 -66c24 -38 36 -60.667 36 -68c0 -16.667 -3.16699 -30.667 -9.5 -42s-15.166 -17 -26.499 -17c-22.667 0 -48 39 -76 117c-30 89.333 -45 194.333 -45 315c0 76 21 165.333 63 268s80 154 114 154z" />
    <glyph glyph-name="parenright" unicode=")" horiz-adv-x="320" 
d="M52 -155c-6.66699 0 -11.333 0.666992 -14 2c-10 4 -15 11.667 -15 23c0 10 10.333 28.667 31 56l45 62c40 58.667 68 120.334 84 185.001c10 41.333 15 88 15 140c0 62 -1.83301 108.667 -5.5 140s-11.5 61 -23.5 89c-3.33301 8.66699 -5.5 14.5 -6.5 17.5
s-3.5 7.5 -7.5 13.5c-4 10 -11 22 -21 36c-12 18 -18 34.333 -18 49l3 28c2 8 7 12 15 12c14.667 0 28 -7 40 -21s25.167 -37.333 39.5 -70s24.833 -72.334 31.5 -119.001c3.33301 -22 6 -48.333 8 -79s3 -65 3 -103c0 -50.667 -6 -101.667 -18 -153
c-6.66699 -28 -14.167 -53.5 -22.5 -76.5s-19.5 -48.5 -33.5 -76.5c-48 -103.333 -91.333 -155 -130 -155z" />
    <glyph glyph-name="asterisk" unicode="*" horiz-adv-x="371" 
d="M228 577l0.99707 -47.002c20 10 35.5 17.5 46.5 22.5s19.5 8.16699 25.5 9.5c14.667 0 24.834 -1.16699 30.501 -3.5s9.5 -5.5 11.5 -9.5c0 -12 -7 -23 -21 -33l-78 -32l54 -42c24 -21.333 36 -36 36 -44c0 -5.33301 -2.66699 -10.166 -8 -14.499
s-10.666 -7.16602 -15.999 -8.49902c-7.33301 0 -17.666 5.66699 -30.999 17c-20 18 -39.667 33.667 -59 47v-28l-1 -37c0 -10.667 -1.33301 -19.667 -4 -27c-5.33301 -21.333 -15.333 -32 -30 -32c-12.667 0 -19 16 -19 48l5 44l3 47l-43 -18l-18 -9l-25 -20
c-6.66699 -5.33301 -15.667 -9 -27 -11c-9.33301 0 -15.333 2.33301 -18 7l-4 22c0 8.66699 14 22 42 40l30 17l33 15l-61 38c-19.333 12 -29 25 -29 39l4 9c3.33301 4 8 6 14 6c10 0 28.667 -7.33301 56 -22c20 -10 37 -21 51 -33v14v13l-2 15l-2 33
c0 18.667 0.833008 30.5 2.5 35.5s8.16699 7.5 19.5 7.5c14 0 23.333 -8.66699 28 -26c2 -8 3 -24.333 3 -49z" />
    <glyph glyph-name="plus" unicode="+" horiz-adv-x="543" 
d="M240 362l-0.999023 54.998v18v13l-2 14c0 29.333 2 53 6 71s11.667 27 23 27c8 0 14.167 -3.83301 18.5 -11.5s6.5 -19.5 6.5 -35.5l-2 -43l3 -105l59 1h18h14l15 2c30 0 54 -2 72 -6s27 -11.667 27 -23c0 -8 -3.66699 -14.167 -11 -18.5s-19.333 -6.5 -36 -6.5l-43 2
h-48l-63 -4l2 -31l2 -53l3 -38c0 -28.667 -2.16699 -49 -6.5 -61s-10.5 -19 -18.5 -21c-12.667 0 -22.334 12.333 -29.001 37l-5 42l-2 56v33l1 32l-36 -1l-80 -5l-36 1c-6.66699 0 -16 2.33301 -28 7s-18 10.334 -18 17.001c0 12.667 12.333 22.334 37 29.001l42 5l55 2
l31 -1h30z" />
    <glyph glyph-name="comma" unicode="," horiz-adv-x="159" 
d="M124 146c4 0 8 -2.83105 12 -8.49805s6 -11.834 6 -18.501c0 -4.66699 -2.33301 -13 -7 -25l-43 -105l-25 -72l-21 -74l-20 -145c-6 -52.667 -17.333 -79 -34 -79c-3.33301 0 -8 4 -14 12c-4 8 -6 16.333 -6 25c0 29.333 13 97.666 39 204.999
c23.333 94 40.333 155 51 183l21 70c8 21.333 21.667 32 41 32z" />
    <glyph glyph-name="hyphen" unicode="-" horiz-adv-x="371" 
d="M169 245c26.667 3.33301 55.001 5.00098 85.001 5.00098l25 1c9.33301 0 16.5 -1.16699 21.5 -3.5s7.83301 -8.5 8.5 -18.5c0 -8 -4.16699 -15.167 -12.5 -21.5s-23.833 -9.5 -46.5 -9.5l-29 1l-34 -3l-49 -9l-26 -5l-18 -2c-10.667 0 -18.834 2.66699 -24.501 8
s-8.5 11.666 -8.5 18.999c0 12 5 20.667 15 26c12 3.33301 27 5 45 5h11c4 0 8.66699 0.666992 14 2z" />
    <glyph glyph-name="period" unicode="." horiz-adv-x="144" 
d="M80 57l23.001 -3c7.33301 -1.33301 12.333 -4 15 -8l1 -14l-1 -17v-16c-2 -1.33301 -3.66699 -2.33301 -5 -3c-5.33301 -3.33301 -10 -6 -14 -8l-17 -3c-10.667 0 -20.834 2.83301 -30.501 8.5s-14.5 13.167 -14.5 22.5c0 3.33301 2 9 6 17l11 16
c5.33301 5.33301 14 8 26 8z" />
    <glyph glyph-name="slash" unicode="/" horiz-adv-x="495" 
d="M443 643l8.99902 36c6 16 15 24 27 24h26c10 -1.33301 15 -4.66602 15 -9.99902c0 -14.667 -11.333 -47.667 -34 -99c-11.333 -27.333 -23 -54 -35 -80l-56 -122c-0.666992 -0.666992 -26.667 -55.334 -78 -164.001c-37.333 -81.333 -77.666 -184 -120.999 -308
c-22 -66.667 -42 -100 -60 -100c-8 0 -16.167 2.16699 -24.5 6.5s-12.5 9.83301 -12.5 16.5c0 24.667 14 70 42 136c10 24 40 87 90 189l37 78l40 90l18 48c4 12.667 12 28 24 46l17 30l16 38l10 35l19 46l18 36z" />
    <glyph glyph-name="zero" unicode="0" horiz-adv-x="559" 
d="M259 643c30 0 51.667 -4.00098 65 -12.001l88 -79c38 -34 62.333 -58.333 73 -73c29.333 -41.333 44 -90.666 44 -147.999c0 -29.333 -4 -57 -12 -83c-4 -14 -8.5 -26.5 -13.5 -37.5s-12.167 -23.833 -21.5 -38.5c-34 -60 -60 -98 -78 -114
c-4 -4 -26.333 -15.667 -67 -35l-35 -17c-25.333 -12 -49 -18 -71 -18c-16 0 -33.667 2.83301 -53 8.5s-41.666 16.167 -66.999 31.5c-30 17.333 -50 42.666 -60 75.999s-15 84.333 -15 153l-1 35v36v20l2 23c0 7.33301 2 20 6 38l9 42c9.33301 40.667 17 66.334 23 77.001
c23.333 46 53.666 78.667 90.999 98c24.667 11.333 55.667 17 93 17zM246 588.999c-8 0 -23.334 -6.16797 -46.001 -18.501s-39.667 -24.166 -51 -35.499s-22.333 -27 -33 -47c-14 -32 -21 -75.667 -21 -131c0 -42 2.66699 -72.667 8 -92l17 -67
c0 -7.33301 -1.66699 -15.333 -5 -24l-5 -25c0 -22 8.33301 -42.667 25 -62c20 -22 46 -33 78 -33c26 0 59.333 9 100 27s69.334 37.333 86.001 58c30.667 42 52 83 64 123c6 22 9 50.667 9 86c0 24 -7.16699 50.333 -21.5 79s-29.5 52 -45.5 70s-38.333 36.667 -67 56
c-37.333 24 -68 36 -92 36z" />
    <glyph glyph-name="one" unicode="1" horiz-adv-x="706" 
d="M585 638c8.66699 0 17 -9.16992 25 -27.5029s12 -42.166 12 -71.499c0 -42 -3 -83 -9 -123l-21 -137l-13 -93l-1 -42l-1 -19c0 -6 -1.33301 -12.667 -4 -20l-6 -39c0 -10 2 -18 6 -24l12 -17c0 -11.333 -6.16699 -25.5 -18.5 -42.5s-24.5 -25.5 -36.5 -25.5
c-8 0 -15.167 6.66699 -21.5 20s-9.5 29.333 -9.5 48c0 12 3 28.667 9 50l15 49l4 31c0 14.667 1.66699 31 5 49l6 38l10 49l6 51l5 81l2 109c0 15.333 -1 25.666 -3 30.999s-7 7.33301 -15 6l-31 -16l-19 -11l-43 -31l-69 -52c-28 -20 -54.5 -40.833 -79.5 -62.5
s-47.5 -43.167 -67.5 -64.5l-41 -47l-40 -54c-16 -24 -24.333 -36.333 -25 -37c-12 -17.333 -20.333 -28 -25 -32l-21 -22c-4.66699 -5.33301 -8 -12.666 -10 -21.999v-31c-4.66699 -8.66699 -13 -13 -25 -13l-17 3c-3.33301 2 -6 5.33301 -8 10
c0 12.667 7.16699 34.834 21.5 66.501s27.833 54.834 40.5 69.501c62 67.333 114.333 121 157 161l97 86c26.667 24 67.667 56.333 123 97c64.667 47.333 106 71 124 71z" />
    <glyph glyph-name="two" unicode="2" horiz-adv-x="586" 
d="M266 619c60 0 101.668 -7.33496 125.001 -22.002c28 -18 42 -55.667 42 -113c0 -33.333 -14.333 -65.333 -43 -96l-87 -84c-24.667 -25.333 -47.334 -47 -68.001 -65l-50 -40l-56 -65c-4.66699 -6 -8 -13 -10 -21c0 -23.333 25 -38.666 75 -45.999c18 -2 44.667 -3 80 -3
l29 4c8.66699 1.33301 15.667 2.66602 21 3.99902s14.666 4.33301 27.999 9l83 27l48 20l23 7c12 4 21.667 6 29 6c14 0 25.667 -6 35 -18c4 -7.33301 6 -13.333 6 -18c0 -14 -14.333 -26.333 -43 -37l-71 -15l-46 -7c-12 -1.33301 -24.333 -3.66602 -37 -6.99902l-48 -10
l-36 -12c-36 -9.33301 -69.333 -14 -100 -14c-42 0 -76.667 10 -104 30c-21.333 16 -32 35 -32 57c0 35.333 30.333 84.333 91 147l130 126c33.333 36 57.5 64.833 72.5 86.5s22.5 37.834 22.5 48.501c0 10 -11.667 24.333 -35 43c-21.333 18.667 -38.333 29 -51 31
c-22 0 -34.833 -3.33301 -38.5 -10s-16.167 -10 -37.5 -10h-26c-9.33301 0 -16.333 -0.666992 -21 -2c-9.33301 0 -21.666 -4.33301 -36.999 -13l-34 -16l-25 -10l-17 -3l-9 3l-4 10l1 16c0 12 28.333 30.333 85 55c43.333 18 90 27 140 27z" />
    <glyph glyph-name="three" unicode="3" horiz-adv-x="674" 
d="M414 687c28.667 0 50.999 -2.99707 66.999 -8.99707c25.333 -10 38 -31.667 38 -65c0 -38 -12.333 -72.333 -37 -103c-17.333 -22.667 -46.333 -46 -87 -70l-22 -11l-12 -5l-3 -3l7 -4l9 -3l58 -7c10 0 19.167 -0.333008 27.5 -1s15.833 -2 22.5 -4
c53.333 -12 95.5 -32 126.5 -60s46.5 -65.667 46.5 -113c0 -48 -22 -91 -66 -129l-64 -50l-44 -43c-7.33301 -4.66699 -46.333 -17.334 -117 -38.001c-41.333 -10.667 -78 -16 -110 -16c-62 0 -111 19 -147 57c-39.333 42.667 -59 95 -59 157
c0 11.333 7.5 30.666 22.5 57.999s26.167 41 33.5 41c4 0 8.66699 -1.33301 14 -4c11.333 -7.33301 17 -20.333 17 -39c0 -24 -6.33301 -42 -19 -54c-12 -10 -18 -25 -18 -45c0 -42.667 25 -76 75 -100c35.333 -16 70 -24 104 -24c36.667 0 76.334 9.66699 119.001 29
c23.333 10 51.666 27 84.999 51s61.333 47.333 84 70c18.667 22.667 28 42.667 28 60c0 40 -17.333 75.833 -52 107.5s-79.334 47.5 -134.001 47.5h-62c-28.667 0 -50 4.66699 -64 14c-10 6 -15.333 13.667 -16 23c0 14.667 11.667 28.667 35 42l59 34
c41.333 30 69.333 53.667 84 71c11.333 13.333 18 26.333 20 39c0 10 -5.16699 20 -15.5 30s-27.833 18.667 -52.5 26l-22 4l-21 2c-10.667 0 -19.167 -1.33301 -25.5 -4s-12.166 -5.5 -17.499 -8.5s-13.5 -8.33301 -24.5 -16s-28.5 -13.834 -52.5 -18.501l-51 -7
c-6.66699 0 -12 -0.5 -16 -1.5s-10 -3.16699 -18 -6.5l-46 -27c-18 -10.667 -31.333 -16 -40 -16c-5.33301 0 -10.333 1.5 -15 4.5s-8 7.5 -10 13.5c0 6 5.66699 13.667 17 23l26 14l62 38l34 9l27 4c4.66699 0 11.334 1.66699 20.001 5l80 19c34 8 71.333 12 112 12z" />
    <glyph glyph-name="four" unicode="4" horiz-adv-x="541" 
d="M401 653c6.66699 0 13.6689 -2.49902 21.002 -7.49902s11.333 -11.167 12 -18.5c0 -22 -7.66699 -47 -23 -75c-2.66699 -6.66699 -6.5 -14 -11.5 -22l-19 -29c-7.66699 -11.333 -18.334 -41.5 -32.001 -90.5s-20.5 -82.5 -20.5 -100.5c20 2 38.667 8 56 18
c30 18.667 53.333 28 70 28c15.333 0 26 -4 32 -12c3.33301 -6 5.66602 -15 6.99902 -27l-10 -7l-28 -8c-11.333 -4 -22.666 -12.667 -33.999 -26c-4 -5.33301 -10.667 -9.33301 -20 -12l-12 -1l-21 1c-25.333 0 -42 -5.33301 -50 -16c-6 -10 -9 -33.333 -9 -70l-1 -16
l1 -18l1 -19c0 -9.33301 -0.666992 -15.333 -2 -18l-1 -16l2 -12l14 -37l5 -22c-0.666992 -2 -1.33398 -3.83301 -2.00098 -5.5s-2.16699 -4 -4.5 -7s-6.5 -5.5 -12.5 -7.5c-18 0 -32 9 -42 27l-31 65l-2 11l2 16l13 53l5 34l2 38l-28 -6l-25 -2c-53.333 0 -97 27 -131 81
c-22.667 40 -34 75 -34 105c0 10 3.66699 23.333 11 40l8 19.5c3.33301 8.33301 5.33301 14.166 6 17.499l2 20l-1 29c0 14 3.83301 29.333 11.5 46s14.834 25.334 21.501 26.001c10 0 20.333 -2.66699 31 -8s16 -11.333 16 -18c0 -4.66699 -1.66699 -9.66699 -5 -15l-9 -18
l-1 -11l1 -29c-2 -16 -7 -28.667 -15 -38c-7.33301 -6 -11 -21.667 -11 -47c0 -42.667 11 -78 33 -106c13.333 -16 28.666 -27 45.999 -33l18 -2l25 1l36 1c4 22.667 7 38.667 9 48s5.66699 23.666 11 42.999l33 107c34 105.333 62.667 158 86 158z" />
    <glyph glyph-name="five" unicode="5" horiz-adv-x="667" 
d="M364 658l42 -1.00098h20l24 -2l27 1h12c5.33301 0 10.666 0.666992 15.999 2l28 -3l31 -11l27 -3l12 1l13 2c4.66699 0 8.66699 -1.66699 12 -5c3.33301 -2 5 -10.333 5 -25c0 -16 -4.16699 -28.167 -12.5 -36.5s-22.833 -12.5 -43.5 -12.5
c-6.66699 0 -12.667 1.66699 -18 5l-17 11c-16 9.33301 -33.333 15.333 -52 18l-46 4l-69 -4l-90 -4h-69l-23 2c-24 0 -44 -8 -60 -24c-22 -24 -33 -66 -33 -126c0 -59.333 24.667 -95.333 74 -108l199 -17c92 -8 148 -16.333 168 -25c46 -17.333 69 -53 69 -107
c0 -43.333 -35.167 -86.166 -105.5 -128.499s-148.5 -63.5 -234.5 -63.5c-15.333 0 -34.5 3 -57.5 9s-49.167 15.333 -78.5 28c-62 27.333 -98 54.333 -108 81l-3 15l3 10c4 9.33301 12.333 14 25 14c8 0 18.667 -3.33301 32 -10l54 -32l52 -28
c30.667 -13.333 67.667 -20 111 -20c48.667 0 99.667 16 153 48s80 61.333 80 88c0 22 -10.333 37 -31 45c-8 3.33301 -26.333 6.33301 -55 9l-81 15c-23.333 4 -48.666 6 -75.999 6l-83 -3c-43.333 0 -81.333 14.833 -114 44.5s-49 71.5 -49 125.5
c0 58.667 15.333 111.667 46 159c28 43.333 56 65 84 65c4 0 10.5 -3.16699 19.5 -9.5s15.833 -9.5 20.5 -9.5c10 0 17 0.666992 21 2l28 6l43 4l28 -1z" />
    <glyph glyph-name="six" unicode="6" horiz-adv-x="505" 
d="M180 710c5.33301 0 11.6641 -1.83301 18.9971 -5.5s11 -11.167 11 -22.5c-6.66699 -10 -19.334 -34.667 -38.001 -74c-15.333 -36 -30.666 -97.333 -45.999 -184l-16 -103l-2 -51c0 -30.667 4 -58.5 12 -83.5s23.667 -48.167 47 -69.5c10 -9.33301 21 -16.5 33 -21.5
s23.667 -7.5 35 -7.5c19.333 0 40.333 8.33301 63 25c16 12 38.667 32.667 68 62c8 8 14.333 17.667 19 29s7 22 7 32c0 20 -7.16699 37.667 -21.5 53s-32.166 23 -53.499 23c-19.333 0 -39.333 -16 -60 -48s-35.334 -48 -44.001 -48l-19 -2
c-8.66699 0 -14.667 1.66699 -18 5c-6 5.33301 -9 13.666 -9 24.999c0 26.667 19.167 55.834 57.5 87.501s70.833 47.5 97.5 47.5c28.667 0 58 -13.833 88 -41.5s45 -60.834 45 -99.501c0 -22.667 -5.33301 -42.667 -16 -60c-6 -10 -26.333 -31.333 -61 -64
c-45.333 -42.667 -72.666 -67 -81.999 -73c-19.333 -12 -38.666 -18 -57.999 -18c-18 0 -39.833 6 -65.5 18s-44.5 23.333 -56.5 34c-23.333 22 -40.166 49.833 -50.499 83.5s-15.5 68.834 -15.5 105.501v62c0 19.333 0.666992 35.333 2 48l5 47l13 70l4 32
c2 13.333 4.33301 22.333 7 27l12 29l18 36l5 23l-1 21l1 10c2 6 10.667 14.333 26 25l15 9c7.33301 4 15 6.33301 23 7z" />
    <glyph glyph-name="seven" unicode="7" horiz-adv-x="654" 
d="M116 696c6.66699 0 13.665 -1.66699 20.998 -5l18 -5l18 2l15 2c6.66699 0 14.334 -1.66699 23.001 -5l24 -9l42 -9l79 -31c22 -9.33301 40.333 -23 55 -41l46 -59c12 -16 18 -26.667 18 -32l-5 -9c-8 -10 -12 -24.333 -12 -43c0 -16 3.33301 -25.833 10 -29.5
s31.667 -5.5 75 -5.5c40 0 74 3 102 9l76 22l18 1c4 0 7 -1 9 -3s2 -9.33301 0 -22l-4 -21c-2 -9.33301 -9 -14 -21 -14l-17 1l-42 -3l-40 -6l-36 -3l-18 1l-20 1l-27 -2l-19 -4l-27 -6l-37 -7c-6 -6 -9.33301 -12.667 -10 -20l2 -10l4 -14c0 -4 -2.33301 -10.667 -7 -20
l-16 -30l-13 -36l-13 -36c-6.66699 -22 -11.5 -40 -14.5 -54s-4.5 -25.333 -4.5 -34c0 -11.333 3 -23 9 -35c5.33301 -8.66699 9 -19 11 -31c0 -21.333 -7.66699 -40 -23 -56c-12 -13.333 -23.667 -20 -35 -20c-8.66699 0 -18 6 -28 18l-7 13
c-4 9.33301 -6 19.666 -6 30.999c0 10.667 4.33301 26 13 46l10 28l12 64l15 40l5 27l4 24l22 43c8 15.333 12 35.333 12 60c-11.333 0 -21.5 -0.166992 -30.5 -0.5s-18.167 -1.5 -27.5 -3.5l-62 -18c-24 -4 -48.667 -6 -74 -6l-56 -7l-31 -1
c-10.667 0 -19.667 -1.66699 -27 -5l-30 -12c-7.33301 -3.33301 -18 -6 -32 -8c-8 0 -16.333 2 -25 6s-14 10 -16 18c0 16 4.66699 26.667 14 32l18 4c10 2 20 8 30 18s17.667 15.333 23 16c4 -2 7 -5 9 -9l9 -7l54 5l87 5c6.66699 0 14.834 0.333008 24.501 1
s19.834 2 30.501 4l49 8l34 2h18l24 -2l5 33l2 31c0 42.667 -14.333 75.334 -43 98.001c-20 16 -56.667 30.333 -110 43l-103 23l-44 5l-18 -2l-12 2c-4.66699 1.33301 -8.83398 4 -12.501 8s-6.16699 8.33301 -7.5 13c0 12.667 6.66699 22.667 20 30l21 9z" />
    <glyph glyph-name="eight" unicode="8" horiz-adv-x="514" 
d="M332 715c34.667 0 63 -5.66504 85 -16.998c22 -10 33 -25 33 -45c0 -34 -19.333 -70.333 -58 -109l-106 -104l41 -50l42 -52c10 -13.333 16.333 -29 19 -47v-20c0 -4 2 -9.66699 6 -17c10 -6.66699 18.167 -13.334 24.5 -20.001s9.5 -15.667 9.5 -27
c0 -22 2 -37.667 6 -47c4 -4.66699 6.33301 -11.334 7 -20.001c0 -32 -7.66699 -60 -23 -84c-19.333 -32 -47.333 -48 -84 -48c-23.333 0 -47.333 5.66699 -72 17l-31 8l-32 10l-22 12l-21 15l-45 23c-10 7.33301 -19.667 25.333 -29 54c-11.333 49.333 -17 79.333 -17 90v8
l2 7l27 76c4 8 14.333 21.333 31 40l28 31l19 15l22 15l20 17l-67 107c-9.33301 17.333 -14 32.666 -14 45.999c0 16 4 30 12 42s18.667 18 32 18c8 0 21 -3 39 -9l31 -12l-3 20c0 18.667 12.667 34.334 38 47.001c20 6.66699 36.667 10 50 10zM338 659.002
c-7.33301 0 -16.001 -3 -26.001 -9c-6 -6 -11.333 -13.667 -16 -23l-9 -27c-5.33301 -11.333 -14.333 -17 -27 -17c-8 0 -14 1 -18 3l-8 4l-14 1c-3.33301 0 -7 -3 -11 -9l-2 -13v-4l2 -18l15 -29l25 -31c36.667 20.667 62.667 39 78 55l34 41c16.667 18.667 25 34 25 46
c0 10 -4.66699 17.5 -14 22.5s-20.666 7.5 -33.999 7.5zM238.999 399.002c-18.667 -10 -36.332 -24.001 -52.999 -42.001c-6.66699 -6.66699 -16.667 -21 -30 -43l-25 -42c-9.33301 -18.667 -14 -35.667 -14 -51c0 -24 7.33301 -45.667 22 -65
c9.33301 -12.667 24.666 -26.667 45.999 -42l50 -31c20.667 -8.66699 42 -13 64 -13c28 0 48 3.66699 60 11c19.333 10 29 27.667 29 53c0 33.333 -17.667 80 -53 140c-30 52.667 -62 94.334 -96 125.001z" />
    <glyph glyph-name="nine" unicode="9" horiz-adv-x="473" 
d="M228 690c14 0 29 -3.16504 45 -9.49805s33.333 -15.5 52 -27.5c24 -18 41 -36 51 -54c10 -16 15 -34.667 15 -56c0 -11.333 -0.333008 -19.333 -1 -24s-2 -11.667 -4 -21l-8 -46l-15 -100l-5 -71l3 -48l3 -49l-6 -32l-5 -30c0 -39.333 7.66699 -72.333 23 -99
c7.33301 -14.667 11 -30 11 -46c0 -8.66699 -4.33301 -15.334 -13 -20.001l-25 -4c-10 0 -18.667 4.66699 -26 14l-3 13l1 15l2 15c0 36 -2.66699 61 -8 75l-19 53l2 23l4 27l3 28l-1 12v18v18l1 18v12l-2 13l-6 19l-3 21c0 8.66699 2.16699 16.667 6.5 24
s7.5 15.666 9.5 24.999c0 6 -2 15 -6 27l-68 -70c-24 -22 -48.333 -33 -73 -33c-30 0 -54.667 7.66699 -74 23c-28.667 22.667 -43 59 -43 109c0 70 14.333 125.333 43 166c34 48 80.333 72 139 72zM213 636.002c-22 0 -41 -7.99902 -57 -23.999
c-26 -26 -43.333 -73.667 -52 -143l-1 -16l1 -29c0 -16 3 -29 9 -39c6.66699 -8.66699 20 -13 40 -13c30 0 52.333 8.33301 67 25l55 70l29 32c11.333 14.667 17 28 17 40c0 17.333 -10 37.666 -30 60.999c-22 24 -48 36 -78 36z" />
    <glyph glyph-name="colon" unicode=":" horiz-adv-x="219" 
d="M99 62c10.667 0 19.667 -3.66699 27 -11c8.66699 -6.66699 13 -18 13 -34c0 -10.667 -3.83301 -19 -11.5 -25s-18.5 -9 -32.5 -9c-14.667 0 -25 4 -31 12c-4 8 -6 20.667 -6 38c0 6 4 11.833 12 17.5s17.667 9.5 29 11.5zM155 357c13.333 0 21.667 -0.666016 25 -1.99902
c5.33301 0 9.33301 -2.66699 12 -8l4 -14l-3 -18c-4 -10.667 -9.33301 -19.334 -16 -26.001c-6 -4 -13.333 -6 -22 -6c-12 0 -21.667 2.66699 -29 8c-6 6 -10 14.667 -12 26c0 12 3.66699 21.667 11 29s17.333 11 30 11z" />
    <glyph glyph-name="semicolon" unicode=";" horiz-adv-x="195" 
d="M124 146c4 0 8 -2.83105 12 -8.49805s6 -11.834 6 -18.501c0 -4.66699 -2.33301 -13 -7 -25l-43 -105l-25 -72l-21 -74l-20 -145c-6 -52.667 -17.333 -79 -34 -79c-3.33301 0 -8 4 -14 12c-4 8 -6 16.333 -6 25c0 29.333 13 97.666 39 204.999
c23.333 94 40.333 155 51 183l21 70c8 21.333 21.667 32 41 32zM144 363.002c16 0 27.333 -5.66699 34 -17l2 -11l-2 -21c0 -9.33301 -1.16699 -17 -3.5 -23s-6.83301 -9 -13.5 -9c-10 0 -23.667 3 -41 9s-26 14.667 -26 26c0 5.33301 5 14.333 15 27s21.667 19 35 19z" />
    <glyph glyph-name="equal" unicode="=" horiz-adv-x="546" 
d="M291 289l21 1l24 1l29 -1h30h16l19 1l29 -1c9.33301 0 18.333 -1.66699 27 -5c9.33301 -2 14 -9.33301 14 -22c0 -8 -3.66699 -14.167 -11 -18.5s-19.333 -6.5 -36 -6.5l-43 2h-42l-64 -3l-45 -8l-65 -9l-64 -1h-32c-12 0 -22.333 2.66699 -31 8
c-12 4 -18.333 9.66699 -19 17c0 8 6.5 15.167 19.5 21.5s37.833 9.5 74.5 9.5h41h18l22 4zM289 442l105 8.99902h32l29 -1c10 0 19.667 -1.66699 29 -5c10 -2 15 -9 15 -21c0 -8 -3.66699 -14.167 -11 -18.5s-19.333 -6.5 -36 -6.5h-43c-25.333 0 -48.333 -2 -69 -6
s-35.667 -6 -45 -6l-77 1l-54 -3l-37 -2l-36 1c-6.66699 0 -16 2.33301 -28 7s-18 10.334 -18 17.001c0 8 7 15.667 21 23l29 6l51 2h34l55 1h20h17z" />
    <glyph glyph-name="question" unicode="?" horiz-adv-x="335" 
d="M149 795l19.9971 -6.00391l14 -4h14l25 1l11 -1c18 -2 31 -11 39 -27c3.33301 -6 6.33301 -19 9 -39c0 -8 0.666992 -13.667 2 -17l2 -18c0 -8.66699 -1.33301 -15.667 -4 -21l-13 -18l-15 -18l-11 -27c-4 -12 -8 -20 -12 -24
c-38.667 -41.333 -60.667 -66.666 -66 -75.999l-11 -32l-13 -33l-7 -33c0 -12 4 -25.667 12 -41c8.66699 -12.667 23.334 -25.667 44.001 -39l25 -14l23 -3c6.66699 0 14.334 1.33301 23.001 4l22 2c8 -1.33301 12 -4 12 -8c0 -13.333 -7 -26 -21 -38
c-14 -10.667 -29.333 -16 -46 -16c-36 0 -70.333 17 -103 51s-49 66.667 -49 98c0 16.667 5.66699 37.334 17 62.001c16 34.667 38.667 72.667 68 114l36 48c16.667 21.333 28.334 40.333 35.001 57l2 19l-2 11c-2 10.667 -8.66699 19.334 -20 26.001
c-12 4.66699 -23 7 -33 7h-23c-22 0 -41.167 -5.66699 -57.5 -17s-30.833 -17 -43.5 -17l-14 3c-4 2 -6.33301 4.66699 -7 8c0 13.333 10.333 28.333 31 45c10.667 8.66699 23.667 16.334 39 23.001c7.33301 2.66699 14.333 4.66699 21 6s15 2 25 2zM264.997 93.9961
c9.33301 0 17.833 -2.66699 25.5 -8s11.5 -12 11.5 -20s-4 -15 -12 -21l-14 -12l-12 -13l-7 -14c-2 -4 -5 -6 -9 -6c-10 0 -15 2.33301 -15 7l1 16l2 12l-3 12l-3 12c0 6 4 12.833 12 20.5s15.667 12.5 23 14.5z" />
    <glyph glyph-name="A" unicode="A" horiz-adv-x="581" 
d="M315 694c5.33301 0 12.998 -2.33301 22.998 -7l24 -9l15 -2l18 1l20 2c6 0 10.167 -1.16699 12.5 -3.5s4.5 -9.16602 6.5 -20.499l-1 -19l-1 -21l3 -31l2 -13c0 -4 2 -10 6 -18l8 -76c0 -22 5.33301 -37 16 -45l38 -12c10 -2 15 -10 15 -24c0 -8 -5.33301 -17 -16 -27
c-10.667 -8.66699 -22 -13 -34 -13v-27l2 -28c0 -4.66699 0.333008 -8.83398 1 -12.501s2 -8.5 4 -14.5l9 -29l11 -37l8 -31l4 -32c2 -14.667 5.66699 -25 11 -31l19 -22c8 -9.33301 12 -17 12 -23c0 -12.667 -3.66699 -26.667 -11 -42c-6 -16 -12.333 -24.333 -19 -25
c-6 0 -10.667 0.5 -14 1.5s-8 3.16699 -14 6.5c-9.33301 6 -15.333 12.667 -18 20l-4 21l1 18c0 9.33301 0.666992 15.666 2 18.999c0 8.66699 -1.33301 18 -4 28s-5 18.333 -7 25l-13 44c0 4 -2.33301 10.667 -7 20c-6 17.333 -12 42.666 -18 75.999
c-2 18.667 -6.66699 29.334 -14 32.001h-12h-16l-14 1c-7.33301 0 -12.666 -0.666992 -15.999 -2c-4 0 -9.66699 -2.66699 -17 -8l-34 -25c-8 -4.66699 -34.667 -9.66699 -80 -15s-71.333 -37 -78 -95l-1 -15v-15l1 -15c0 -12 -0.666992 -21 -2 -27
s-4.66602 -15 -9.99902 -27l-29 -78c-10 -32 -20.333 -48 -31 -48c-17.333 0 -29.5 3.33301 -36.5 10s-10.5 17 -10.5 31c0 14.667 4.33301 33 13 55l24 69l11 44l5 38v10c0 4 -2.33301 9.66699 -7 17l-8 14l-4 20c0 6.66699 1.66699 12.834 5 18.501s12.333 11.5 27 17.5
l33 14c14 10 25.333 29.333 34 58l24 85l50 157c4 12.667 20.333 34.667 49 66l17 18c4 3.33301 9.66699 6 17 8zM339.998 617c-12 0 -22 -5.33301 -30 -16l-13 -29l-11 -44l-31 -63l-4 -30c-1.33301 -4.66699 -4.66602 -10.667 -9.99902 -18l-12 -19l-17 -36l-19 -40
c9.33301 -4 16.333 -6 21 -6c6.66699 0 14 2.66699 22 8l37 20l56 15c23.333 6 48.666 20.667 75.999 44l-6 47l-8 36l-5 44c0 23.333 -2 42 -6 56c-6 20.667 -19.333 31 -40 31z" />
    <glyph glyph-name="B" unicode="B" horiz-adv-x="599" 
d="M290 252l-3.00293 -93.0029c0 -10.667 4.33301 -18.334 13 -23.001c8 -2 12.333 -6.66699 13 -14l-2 -9l-4 -17c-2 -7.33301 -6 -13.166 -12 -17.499s-16.333 -6.5 -31 -6.5c-4 0 -8.33301 2.33301 -13 7l-4 17l4 11l4 12c0 7.33301 -5.16699 14.5 -15.5 21.5
s-16.5 16.167 -18.5 27.5c0 12 4.33301 22.167 13 30.5s13 23.5 13 45.5l-3 44l-3 37l6 58l-38 28c-17.333 14 -27 26 -29 36c0 8.66699 6 19.334 18 32.001s28.333 24 49 34c0 54.667 3.66699 99.334 11 134.001l-56 4l-54 -4l-55 -3h-72c-22 0 -37 -4 -45 -12
s-16.333 -12.667 -25 -14c-12 0 -24.167 3.16699 -36.5 9.5s-19.5 14.5 -21.5 24.5c0 12 10 23 30 33c28.667 13.333 72.667 20 132 20l35 -3l35 -3l65 3l71 3l8 48c4 26 15 39 33 39c5.33301 0 10 -1.83301 14 -5.5s7 -8.83398 9 -15.501c0 -13.333 -1.66699 -26 -5 -38
l-9 -34l70 -16c30 -8 45 -29.667 45 -65c0 -18 -8 -38.667 -24 -62c-9.33301 -13.333 -22.333 -25.666 -39 -36.999l-44 -27c-19.333 -14 -29 -29 -29 -45c0 -6 11.333 -15.333 34 -28l45 -22c68 -36 114.667 -64.667 140 -86c40 -35.333 60 -76.333 60 -123
c0 -28 -11.333 -61.333 -34 -100c-26 -43.333 -58.333 -77.333 -97 -102l-32 -17c-9.33301 -4.66699 -24 -10 -44 -16c-4.66699 -1.33301 -18 -4 -40 -8l-32 -6l-27 -2l-16 2c-30 6 -61.167 24.5 -93.5 55.5s-48.5 56.167 -48.5 75.5c0 4.66699 1.33301 8.66699 4 12l8 12
l4 15l-2 18v21c2 10 9.83301 24.667 23.5 44s22.834 30.333 27.501 33l14 4c4.66699 0 9.5 -1.33301 14.5 -4s9.5 -9 13.5 -19v-15c0 -4.66699 -4 -12 -12 -22l-15 -19l-11 -15c-4 -5.33301 -6 -10.666 -6 -15.999c0 -30 3 -52 9 -66c15.333 -33.333 47.333 -50 96 -50
c30.667 0 53.5 2.66699 68.5 8s33.5 15.333 55.5 30c40.667 28.667 68.834 53 84.501 73s23.5 42 23.5 66c0 31.333 -9.33301 57.333 -28 78c-11.333 12 -29.666 25.333 -54.999 40l-49 27c-20 10 -46.667 18.667 -80 26l-4 -53v-23zM303.997 646.997l-8 -59.998l-3 -54
l55 46c6.66699 7.33301 11 14.666 13 21.999c0 11.333 -4 20.666 -12 27.999c-8 6 -23 12 -45 18z" />
    <glyph glyph-name="C" unicode="C" horiz-adv-x="534" 
d="M314 639c27.333 0 51.6719 -14 73.0049 -42c13.333 -20 25.666 -51 36.999 -93l3 -22l-3 -13c-6.66699 -8.66699 -17 -13 -31 -13c-12 0 -20 4.5 -24 13.5s-6 18.167 -6 27.5c0 16.667 -1.33301 28.667 -4 36c-5.33301 15.333 -16.333 23 -33 23
c-22.667 0 -47.334 -8.66699 -74.001 -26c-18.667 -11.333 -35.667 -25.666 -51 -42.999c-8.66699 -10 -16.834 -20.333 -24.501 -31s-16.167 -24.334 -25.5 -41.001c-20.667 -44.667 -31 -90.667 -31 -138c0 -18 4 -36 12 -54l12 -21l20 -27c10 -14 22.333 -26.667 37 -38
c22 -18 44 -27 66 -27c14 0 37.167 9 69.5 27s54.166 34.333 65.499 49l17 29c3.33301 4.66699 20 10.334 50 17.001l24 2c12 0 18.333 -3.66699 19 -11c0 -10 -17.667 -30.667 -53 -62c-23.333 -20 -56.333 -45.333 -99 -76l-28 -18
c-10 -6.66699 -17.667 -11.334 -23 -14.001c-15.333 -6.66699 -31 -10 -47 -10c-17.333 0 -36.333 5 -57 15s-44.334 27.333 -71.001 52s-45.167 47.167 -55.5 67.5s-15.5 47.5 -15.5 81.5c0 40 5 79.667 15 119s23 73.333 39 102c16.667 27.333 45 59.333 85 96
c46 42 83.333 63 112 63z" />
    <glyph glyph-name="D" unicode="D" horiz-adv-x="874" 
d="M336 681l66.999 -0.00195312l86 -3h22c7.33301 -2 14.5 -3.66699 21.5 -5s12 -2.16602 15 -2.49902s7.83301 -1.83301 14.5 -4.5c106 -27.333 181 -71.666 225 -132.999c27.333 -38.667 41 -82.667 41 -132c0 -94.667 -28.333 -176.667 -85 -246
c-44.667 -54.667 -115.667 -109 -213 -163c-28 -15.333 -59 -28.333 -93 -39s-62.333 -16 -85 -16c-70 0 -118.333 19.333 -145 58l-32 51l-10 10c-4 4 -6.33301 7.66699 -7 11l1 7l4 10l5 19l-2 73l2 52l2 40l-4 54l-4 54l1 30v21c2 8 3.33301 13.667 4 17l22 157
c-61.333 0 -105 -3.66699 -131 -11c-9.33301 -1.33301 -17.666 -4 -24.999 -8l-49 -24c-18.667 -9.33301 -34 -14 -46 -14c-4 0 -8 2 -12 6s-6.33301 9.33301 -7 16c0 19.333 19.167 37 57.5 53s101.833 31 190.5 45l88 11c30 4 57 6 81 6zM262.999 614.998
c-9.33301 -23.333 -17.333 -68.998 -24 -136.998l-7 -111l-3 -132c0 -10.667 1.33301 -19.834 4 -27.501s8 -12.5 16 -14.5c4 0 12.667 4 26 12c10 8 18 12 24 12c14.667 0 25.334 -1.66699 32.001 -5c7.33301 -2 11 -11.333 11 -28c0 -10 -8.66699 -23.667 -26 -41l-29 -30
l-26 -35c-6 -8 -9 -15.333 -9 -22c0 -14 7.66699 -27.667 23 -41c15.333 -11.333 37.666 -17 66.999 -17c18.667 0 38.5 2.5 59.5 7.5s45.5 13.167 73.5 24.5c105.333 43.333 183 103.333 233 180c36 55.333 54 115.666 54 180.999c0 78 -39.333 138 -118 180
c-68.667 35.333 -154.667 53 -258 53c-42 0 -83 -3 -123 -9z" />
    <glyph glyph-name="E" unicode="E" horiz-adv-x="624" 
d="M538 729c4 0 8.49902 -1.16797 13.499 -3.50098s7.83301 -5.83301 8.5 -10.5c0 -10 -3.5 -19.833 -10.5 -29.5s-16.5 -16.5 -28.5 -20.5l-13 -1l-15 1l-16 1l-10 -1c-7.33301 -1.33301 -14.666 -3.66602 -21.999 -6.99902l-17 -7h-22.5c-7 0 -13.5 -0.666992 -19.5 -2
l-42 -8l-61 -16c-24.667 -6.66699 -51 -16.334 -79 -29.001c-12.667 -4 -27.334 -15.333 -44.001 -34c-12 -14 -23 -21 -33 -21c-8 0 -15.667 4.66699 -23 14c-6 10 -9 20.667 -9 32c0 6 1.33301 11.5 4 16.5s7.33398 8.83301 14.001 11.5h21
c4.66699 0 35.334 16.667 92.001 50l33 16l20 5l22 -4l10 1c10.667 8.66699 25 17.334 43 26.001c15.333 6 36.666 9 63.999 9h11l36 1h17c8 2 14 3.33301 18 4zM87.999 490.999l7 -4.99902l11 -9l14 -17c0 -4.66699 -1.66699 -8.66699 -5 -12
c-8.66699 -10.667 -13 -30.334 -13 -59.001l174 10l51 4l45 3l24 1c10 0.666992 18.667 4.66699 26 12c6 7.33301 14 11.333 24 12l19 -3l17 -4l16 -1l23 1c16 0 24 -3.33301 24 -10c0 -4 -8.5 -15.167 -25.5 -33.5s-30.833 -28.5 -41.5 -30.5l-14 3l-20 2h-13l-13 -2
l-88 -11l-65 -6h-16l-14 1c-13.333 0 -23.333 -1.66699 -30 -5l-18 -11c-4 -2 -8.66699 -3 -14 -3c-11.333 0 -20.666 1.83301 -27.999 5.5s-13 5.5 -17 5.5c-10.667 0 -21.667 -2.66699 -33 -8l-3 -41c0 -66 28.667 -115.667 86 -149c42 -24 92.333 -36 151 -36
c50.667 0 98 7 142 21l117 46c4 0 7.33301 -2.66699 10 -8l4 -17c0 -32 -34.667 -59.333 -104 -82c-31.333 -9.33301 -60.833 -16.333 -88.5 -21s-55.5 -7 -83.5 -7c-80 0 -144.333 17.333 -193 52c-34.667 23.333 -60.334 57 -77.001 101c-4 12 -9 37 -15 75s-9 66 -9 84
c0 35.333 6 69.5 18 102.5s24.667 49.5 38 49.5z" />
    <glyph glyph-name="F" unicode="F" horiz-adv-x="809" 
d="M738 694l13 -4l12 -4h23c4.66699 -2 10 -7 16 -15l7 -22c0 -8 -47.667 -21 -143 -39l-75 -6l-44 -1l-74 -9l-163 -16l-8 -43l-7 -45c-3.33301 -20.667 -7.66602 -39.334 -12.999 -56.001l-12 -40l-3 -25l3 -12l18 -9l19 -2l21 2l79 26l75 22
c41.333 11.333 78.666 17 111.999 17c47.333 0 88.333 -7.83301 123 -23.5s52 -33.834 52 -54.501c0 -7.33301 -5.66699 -14.333 -17 -21s-21 -10 -29 -10c-7.33301 0 -15.333 2.33301 -24 7l-40 25l-16 5l-18 1l-25 -3l-22 -3l-121 -23c-42 -6 -72.667 -12 -92 -18l-48 -14
l-47 -9v-18l1 -17l-1 -16l-6 -32l-2 -24l4 -16l4 -16l-1 -18l-8 -34l-2 -27l1 -36l2 -22c0 -25.333 3.33301 -44.666 10 -57.999l22 -31c0 -12 -3.66699 -22.667 -11 -32s-19 -14 -35 -14c-12 0 -22.833 4.83301 -32.5 14.5s-16.834 20.167 -21.501 31.5l-2 23l1 19l1 18
l-1 13l-6 27l-2 20l3 7l6 8l7 9l2 14l-3 21l-2 32l3 45l8 61v12v8l-2 7c0 6.66699 -2.33301 16.667 -7 30l-22 -9l-18 -5l-39 -3h-26h-57c-14.667 0 -25 2 -31 6c-4.66699 4.66699 -7 12.667 -7 24c0 18 2.16699 30.167 6.5 36.5s17.5 9.5 39.5 9.5l26 -4l23 -4h12l55 1
l47 7l6 76c0 14 0.666992 25 2 33s3.33301 17.333 6 28c6 48.667 15.667 85.334 29 110.001l-72 -7l-77 -2c-25.333 0 -47.5 5.16699 -66.5 15.5s-28.5 25.833 -28.5 46.5l4 11l12 12c4.66699 3.33301 12.334 5 23.001 5l18 -2l22 -4l50 -8l61 -3l138 -5l94 3l79 3
c46 4 82 10 108 18l65 18c18 4 36.667 6 56 6z" />
    <glyph glyph-name="G" unicode="G" horiz-adv-x="651" 
d="M360 709c44 0 82.668 -15.3359 116.001 -46.0029c26 -25.333 39 -49.333 39 -72c0 -10.667 -3.66699 -19.834 -11 -27.501s-15.666 -11.5 -24.999 -11.5c-4.66699 0 -10.334 2.33301 -17.001 7s-14.667 15 -24 31l-19 30c-10 13.333 -20.667 20 -32 20l-14 -3l-13 -4
l-41 -4c-24.667 -6 -56 -31 -94 -75c-46 -54 -81 -118 -105 -192l-13 -41c-4 -12 -6 -24.667 -6 -38v-14l3 -21c2 -10 7.33301 -25.667 16 -47c12 -30 25 -50 39 -60c14 -8 33 -12 57 -12c18 0 41 8 69 24c39.333 22.667 84.333 59.334 135 110.001l49 49
c22 22 38.333 33.333 49 34c30.667 0 49 -18 55 -54l2 -71l3 -51l9 -53l7 -34c2 -8 6 -15 12 -21c6 -4.66699 9.33301 -11 10 -19c0 -6 -2.16699 -12.167 -6.5 -18.5s-9.5 -9.5 -15.5 -9.5c-21.333 0 -38.833 1.33301 -52.5 4s-20.834 9.33398 -21.501 20.001l1 41l-3 25
l-5 25l-1 20v13v29v27l-5 19c-1.33301 6 -6 9 -14 9c-6.66699 -2 -15 -7 -25 -15c-5.33301 -3.33301 -11.5 -8.5 -18.5 -15.5l-27.5 -28.5c-53.333 -54.667 -85 -85.334 -95 -92.001c-30 -18 -65.333 -27 -106 -27c-30 0 -52.667 3 -68 9s-33.333 19.333 -54 40
c-16 18 -26.667 40.333 -32 67v12c0 4.66699 -0.666992 10.334 -2 17.001s-3 11 -5 13c-1.33301 6 -5 13.5 -11 22.5s-9 17.167 -9 24.5c0 6.66699 1.66699 13 5 19l10 22c2 6 3 20.667 3 44c0 36.667 13.667 77.334 41 122.001l58 90c24 36.667 45.667 62.334 65 77.001
l61 28l38 21c15.333 8 28.333 12 39 12z" />
    <glyph glyph-name="H" unicode="H" horiz-adv-x="656" 
d="M130 659c18 0 30.999 -10.668 38.999 -32.001c2 -8.66699 3.66699 -17.334 5 -26.001s2 -18.667 2 -30v-15c0 -4 -2 -9 -6 -15l-5 -13l2 -21l2 -22v-17c-2 -9.33301 -3.33301 -16.666 -4 -21.999l-5 -33l-6 -69c72.667 0 131.167 3.5 175.5 10.5s99.5 22.167 165.5 45.5
l3 79l7 81l-1 34l2 20c1.33301 7.33301 5 15 11 23s14 13 24 15c12 0 20.333 -2 25 -6s7 -9 7 -15l-3 -22l-4 -29l-1 -24l2 -27l2 -19c0 -5.33301 -3 -16.166 -9 -32.499s-9 -29.166 -9 -38.499c0 -6 3.66699 -9.33301 11 -10c9.33301 0 21 4.66699 35 14l18 7
c10 0 17 -3.66699 21 -11c2 -4 2 -11 0 -21c-4 -20 -15.667 -32 -35 -36c-17.333 -2.66699 -35 -10.667 -53 -24l-2 -27l2 -16l6 -20l8 -22l-3 -21c-5.33301 -14.667 -8 -37.334 -8 -68.001v-24l1 -24l-1 -18l-2 -18v-14c0 -20 2.33301 -34.333 7 -43l17 -22l-12 -10
c-4 -0.666992 -7 -2.66699 -9 -6l-11 -13c-4 -6 -7.66699 -9.33301 -11 -10l-7 4l-13 11c-10 10 -15 17 -15 21l4 18l7 19l3 22l-3 21l-6 23l-2 17l5 20l2 12l-3 47l-7 47c0 18.667 2.33301 44 7 76l-102 -30l-83 -12l-35 -4l-44 -7l-41 -4l-28 3
c-4.66699 0 -8.66699 -1.33301 -12 -4l-7 -11l-3 -15l-1 -14l1 -22c2 -16 6 -26 12 -30c8.66699 -2 14.834 -4.16699 18.501 -6.5s10.167 -11 19.5 -26s15.333 -27.5 18 -37.5c0 -29.333 -5 -56.666 -15 -81.999s-21.667 -38 -35 -38c-24.667 0 -42.334 17.333 -53.001 52
l-5 36l-2 57v12c0 29.333 -1.33301 50.333 -4 63c-2 17.333 -6.33301 31.666 -13 42.999c-5.33301 11.333 -11.666 19.333 -18.999 24l-15 7l-4 3l-2 4c0 8 5 16.667 15 26l28 20l7 22c2 12 3 32 3 60v53v81l-3 50c0 16 4.33301 28.333 13 37c6 6 12.333 9 19 9z" />
    <glyph glyph-name="I" unicode="I" horiz-adv-x="231" 
d="M122 629l17 2l10 -3c4 -2 6 -9.33301 6 -22l-1 -24v-102l-3 -72l-7 -151l1 -69l2 -42v-32c0 -14.667 7.66699 -29.334 23 -44.001c4.66699 -4.66699 8 -10.667 10 -18c0 -14.667 -4.16699 -27 -12.5 -37s-19.833 -15 -34.5 -15c-14 0 -26.333 19.667 -37 59l-13 64l-2 33
v12v22l1 23l3 86l8 93l-3 63l5 27l2 17c0 29.333 -2.33301 56 -7 80l-2 20l2 10c4 8.66699 14.667 15.334 32 20.001z" />
    <glyph glyph-name="J" unicode="J" horiz-adv-x="406" 
d="M245 765c12.667 0 22.668 -3.66504 30.001 -10.998c4 -4 9.33301 -18.667 16 -44l37 -196l4 -38l2 -50l1 -208c0 -94 -25 -178 -75 -252c-54.667 -78.667 -122.334 -118 -203.001 -118c-50 0 -99.667 16.667 -149 50c-44.667 30.667 -67 58 -67 82
c0 14.667 6.33301 31.667 19 51c6 10 12 17.667 18 23s12.667 8 20 8s13.333 -3.66699 18 -11l4 -14l-2 -14l-2 -16c0 -24 9.33301 -44.333 28 -61c23.333 -20 58 -30 104 -30c58.667 0 101.667 11.667 129 35c16.667 12.667 37 43.667 61 93c18 38.667 30 67 36 85
c8 28 12 63.333 12 106c0 58.667 -7.33301 145.667 -22 261c0 11.333 -0.666992 21.666 -2 30.999s-4 23.666 -8 42.999l-13 67l-25 119c0 4 2.33301 6.33301 7 7z" />
    <glyph glyph-name="K" unicode="K" horiz-adv-x="565" 
d="M131 367l21.998 -14.002l76 94c12.667 14.667 41.334 33.667 86.001 57c26.667 14 50 37 70 69c14 24 30.333 36 49 36c10.667 0 20.667 -5.16699 30 -15.5s14 -21.166 14 -32.499c0 -14 -22 -38 -66 -72c-26 -20 -62 -43.667 -108 -71l-40 -24l-26 -17
c-30.667 -23.333 -46 -44.666 -46 -63.999c0 -13.333 22 -35 66 -65c26.667 -16 57.334 -32.667 92.001 -50c26.667 -11.333 53 -20.666 79 -27.999l33 -5l32 -2l71 6l70 7c16.667 0 30 -3.66699 40 -11c10 -6 16 -14.333 18 -25c0 -20 -13.333 -33 -40 -39l-61 -4l-54 -2
l-46 -2l-29 1h-16l-12 4c-16 4 -40.333 12 -73 24c-54.667 20 -96 39.333 -124 58s-48 36.667 -60 54l-16 21c-9.33301 10 -18.333 15 -27 15c-4.66699 0 -7 -6 -7 -18c0 -10 0.666992 -18.833 2 -26.5s4.33301 -17.834 9 -30.501c8 -20.667 17.333 -35.334 28 -44.001
c26 -20 39 -39 39 -57c0 -9.33301 -5.33301 -19 -16 -29c-10.667 -7.33301 -22 -11 -34 -11c-26 0 -46.667 20 -62 60c-8.66699 32.667 -13 68 -13 106v20l1 20c0 14.667 -1.66699 25.334 -5 32.001l-7 21l3 25l4 21l2 15v12l-1 25l-1 25c0 16.667 0.333008 28.334 1 35.001
c3.33301 15.333 5.33301 27.333 6 36l4 44v22l-4 19l-3 34c0 17.333 2.16699 30.166 6.5 38.499s10.5 13.5 18.5 15.5c20 0 33 -15.333 39 -46l4 -65v-24v-16l-1 -36l-4 -23l-4 -17l-6 -37c-2 -12 -3 -28.333 -3 -49z" />
    <glyph glyph-name="L" unicode="L" horiz-adv-x="570" 
d="M165 653c10 0 19.5 -4.50098 28.5 -13.501s13.5 -18.5 13.5 -28.5c0 -6.66699 -3.66699 -12.667 -11 -18l-20 -17l-11 -25l-4 -28l-1 -18l-4 -12l-5 -21l-9 -41l-16 -91l-5 -71c0 -66 16.333 -115.333 49 -148c28.667 -26.667 77 -40 145 -40c50.667 0 85 2.66699 103 8
l65 22l64 21l37 18l31 24c12.667 9.33301 25.334 14 38.001 14h24c9.33301 0 15.333 -0.666992 18 -2c3.33301 0 6 -3 8 -9c0 -24 -11.667 -42.333 -35 -55l-77 -30l-112 -57c-40 -18 -96 -27 -168 -27c-42 0 -74.667 3 -98 9c-42 12 -76.667 39 -104 81
c-32 52 -48 128.333 -48 229c0 24.667 4.33301 56.334 13 95.001l18 74l18 103c9.33301 36 27.666 54 54.999 54z" />
    <glyph glyph-name="M" unicode="M" horiz-adv-x="809" 
d="M610 599c30.667 0 57.001 -15 79.001 -45c8.66699 -12.667 20 -38 34 -76l24 -75c4 -14 6 -28 6 -42l-1 -30l-1 -28v-56c0 -22.667 3.66699 -41.667 11 -57l19 -52c6 -16 9 -30.667 9 -44c0 -6.66699 -1.66699 -13.334 -5 -20.001c-2 -6 -5.33301 -9 -10 -9
c-14 0 -26.667 4 -38 12c-14.667 12.667 -26.334 40.334 -35.001 83.001l-8 43l-5 44l2 80c0 30 -8 69.667 -24 119c-18 53.333 -37 80 -57 80c-19.333 0 -38 -10.333 -56 -31l-25 -39l-51 -71c-30.667 -38.667 -57.334 -91.667 -80.001 -159l-9 -27l-14 -32
c-14 -27.333 -28.333 -41 -43 -41c-20 0 -33 6.83301 -39 20.5s-9 33.834 -9 60.501v44l-3 44l-12 105c-8 50 -20.333 75 -37 75c-18 0 -37 -23 -57 -69c-10 -24.667 -22.333 -63 -37 -115l-15 -66l-4 -50c0 -18.667 1.33301 -34.334 4 -47.001l12 -59
c0 -14.667 -2.66699 -27 -8 -37s-12 -15 -20 -15c-17.333 0 -30.666 7 -39.999 21l-8 26c-2 10 -3 22.667 -3 38l5 86l2 56c0 80 16 144.667 48 194l75 78c21.333 25.333 44.333 38 69 38c14.667 0 27.167 -6.16699 37.5 -18.5s17.5 -31.5 21.5 -57.5
c0 -17.333 2.33301 -30.333 7 -39l15 -24c2 -6 3 -15.333 3 -28l-1 -20v-14v-13l5 -18l3 -22l2 -18l1 -4l2 -2l3 3l8 10l12 31c16 42 32 75.333 48 100l57 72l55 70c24.667 24.667 50 37 76 37z" />
    <glyph glyph-name="N" unicode="N" horiz-adv-x="743" 
d="M561 534c4 0 7.33301 -1.66797 10 -5.00098c3.33301 -2 6.33301 -5.66699 9 -11l5 -28l12 -48c8 -35.333 24 -87.666 48 -156.999l46 -119c8.66699 -26 13 -45.333 13 -58c0 -38 -15 -65 -45 -81c-18.667 -9.33301 -43.667 -14 -75 -14h-19
c-44 0 -79.167 5.66699 -105.5 17s-61.5 34.166 -105.5 68.499s-83 72.833 -117 115.5l-84 114l-11 -84l-5 -57v-39v-21c2 -8 3.33301 -13.667 4 -17l11 -50c0 -6.66699 -4.5 -16.667 -13.5 -30s-17.167 -20.666 -24.5 -21.999h-13c-8.66699 0 -17 2 -25 6
c-6.66699 4.66699 -10 13 -10 25l4 62c0 12 1.16699 26.833 3.5 44.5l9.5 70.5c12 94 22 156 30 186l-29 49l-16 34l-5 25c0 22.667 8 34 24 34c10 0 28.667 -23.667 56 -71l92 -157c42 -63.333 86 -115 132 -155l40 -30l44 -26c34 -18 65 -27 93 -27l54 1
c12.667 0 21.667 1.5 27 4.5s9 7.5 11 13.5l-24 74c-10 33.333 -20 75.5 -30 126.5s-21 91.833 -33 122.5c-16 44 -24 67.667 -24 71c0 16 2.5 27.167 7.5 33.5s14.5 9.5 28.5 9.5z" />
    <glyph glyph-name="O" unicode="O" horiz-adv-x="759" 
d="M342 638c56 0 126.001 -24.668 210.001 -74.001c96 -55.333 144 -111 144 -167c0 -35.333 -14.167 -79.166 -42.5 -131.499s-59.833 -93.833 -94.5 -124.5c-28 -24.667 -63.833 -46.5 -107.5 -65.5s-82.834 -28.5 -117.501 -28.5c-97.333 0 -174 35.333 -230 106
c-42 54 -63 115 -63 183l-1 22c0 12.667 1.66699 20.667 5 24l20 22c10 10 15 17.333 15 22l-3 6l-7 11c-6 8 -9 14.667 -9 20c0 28.667 37.167 65 111.5 109s130.833 66 169.5 66zM331.001 572.999c-26.667 0 -50.666 -6.33301 -71.999 -19l-66 -36l-31 -12
c-10 -4 -15 -9 -15 -15l2 -5l9 -9c8 -6 12 -11 12 -15c0 -4.66699 -4.66699 -11.667 -14 -21l-17 -20c-2.66699 -4 -5.66699 -9.66699 -9 -17s-7 -16 -11 -26l-5 -31l-2 -42c0 -62 23 -112.667 69 -152c42 -34 93.667 -51 155 -51c35.333 0 74.666 12.5 117.999 37.5
s80.333 54.833 111 89.5c17.333 19.333 33.333 44.333 48 75s22 60.667 22 90c0 46 -42.333 89 -127 129c-72.667 33.333 -131.667 50 -177 50z" />
    <glyph glyph-name="P" unicode="P" horiz-adv-x="557" 
d="M276 679c98.667 0 172.999 -19.002 222.999 -57.002c38.667 -30.667 58 -69.334 58 -116.001c0 -44 -21 -94 -63 -150c-38 -51.333 -79.333 -90.333 -124 -117c-30 -18.667 -55.667 -31.667 -77 -39c-10 -3.33301 -19.667 -6 -29 -8s-18.333 -3 -27 -3
c-11.333 0 -18.666 0.666992 -21.999 2l-23 7c0 -52.667 3.33301 -94.334 10 -125.001l24 -78c-0.666992 -1.33301 -1.33398 -2.83301 -2.00098 -4.5s-2 -3.5 -4 -5.5l-14 -4c-35.333 0 -56.666 27 -63.999 81l-5 91l2 113l2 110v37c0 31.333 3 52.333 9 63
s14.333 16.334 25 17.001c8 0 17 -4 27 -12s15 -16.333 15 -25c0 -8 -1.66699 -14 -5 -18l-9 -25l-3 -39l-1 -53c0 -24.667 4.83301 -42.667 14.5 -54s23.167 -17 40.5 -17c22 0 48.333 9.5 79 28.5s64.667 50.167 102 93.5c41.333 48.667 62 89.667 62 123
c0 38.667 -20.333 69.334 -61 92.001c-35.333 18 -83.666 27 -144.999 27l-80 -1c-23.333 0 -40.333 -1.33301 -51 -4c-50.667 -6 -85.334 -31.667 -104.001 -77c-4 -10 -7 -23.667 -9 -41c0 -14.667 -3.33301 -23 -10 -25c-10.667 0 -18.667 1.66699 -24 5
c-8.66699 5.33301 -13 14.333 -13 27c0 8.66699 1 16.834 3 24.501s3.66699 13.167 5 16.5s4.66602 9 9.99902 17c18 38.667 37.333 65.334 58 80.001c40.667 28.667 107.334 43 200.001 43z" />
    <glyph glyph-name="Q" unicode="Q" horiz-adv-x="670" 
d="M216 464c0 46 13.5 89.3311 40.5 129.998s60.167 61 99.5 61c34 0 69 -18.333 105 -55c10 -10 18 -18.333 24 -25c8.66699 -9.33301 15.667 -17.666 21 -24.999l32 -46c30 -52 45 -113.333 45 -184c0 -45.333 -5.33301 -82 -16 -110l-31 -70l-10 -43
c-4 -22 -15 -46 -33 -72c2 -12 6.66699 -21.667 14 -29s15.666 -12 24.999 -14l29 7c10 0 17 -4 21 -12l4 -27c0 -14.667 -3.66699 -26.667 -11 -36c-9.33301 -12 -21 -18 -35 -18c-12 0 -30 12 -54 36l-33 32c-20 -32 -43.833 -56.167 -71.5 -72.5
s-60.167 -24.5 -97.5 -24.5c-60 0 -111.667 28.667 -155 86c-14.667 22 -28 47.333 -40 76l-16 63c-4 22 -6 45.333 -6 70l1 44l7 46c8.66699 55.333 23.334 98.833 44.001 130.5s53 58.834 97 81.501zM378 593.998c-40 0 -71 -22 -93 -66
c-11.333 -24.667 -23.666 -68.667 -36.999 -132l-9 -49c-5.33301 -15.333 -15.333 -23 -30 -23l-11 4l-8 6l-7 4c-16 0 -29 -16.667 -39 -50s-15 -67 -15 -101l1 -51l8 -54c4 -25.333 13 -48 27 -68c18.667 -29.333 39 -52 61 -68c17.333 -12 35.666 -18 54.999 -18
c11.333 0 23.666 3 36.999 9c7.33301 2.66699 14.166 5.66699 20.499 9s13.5 8 21.5 14c24.667 18 39.334 29.667 44.001 35c6.66699 12 10 31.667 10 59c0 10.667 -9.33301 28.667 -28 54c-14 19.333 -24 36 -30 50l-41 71l-13 34l10 -1l19 -6h21
c6 0 15.667 -10.667 29 -32l33 -48l23 -38c6 -10 11.333 -15.333 16 -16c14 0 29.667 15.667 47 47c21.333 40.667 32 90 32 148c0 44 -10.333 87.667 -31 131c-18 38 -46 77 -84 117l-17 19c-5.33301 4.66699 -12.666 8 -21.999 10z" />
    <glyph glyph-name="R" unicode="R" horiz-adv-x="617" 
d="M107 546l-19.0029 -4.99902c-7.33301 0 -14 2 -20 6l-9 13c0 4 7.66699 10 23 18c8 4 14.667 7 20 9s13 4.66699 23 8l35 8l36 3l101 3c67.333 0 114 -3.66699 140 -11c56.667 -14 85 -44.333 85 -91c0 -11.333 -0.666992 -19 -2 -23l-6 -23
c-8 -28.667 -37.667 -63.667 -89 -105c-42 -36 -79 -62 -111 -78l-60 -24c-17.333 -6 -39.666 -19 -66.999 -39c22 -16 48.667 -29.333 80 -40c34.667 -8.66699 63 -13 85 -13c44.667 0 89 7 133 21s80 31.333 108 52l50 46c18.667 17.333 31.667 26 39 26
c4 0 8 -2.83301 12 -8.5s6 -11.5 6 -17.5c0 -12 -2.5 -22.167 -7.5 -30.5s-14.167 -17.5 -27.5 -27.5l-83 -64c-30 -20.667 -65 -36 -105 -46l-62 -12l-72 -5l-41 1c-9.33301 0 -21.333 2.33301 -36 7c-23.333 6 -42.666 15.333 -57.999 28l-31 28
c-8.66699 7.33301 -23 14 -43 20l-6 -48l-1 -35l2 -30c0.666992 -2 1.83398 -4.66699 3.50098 -8l5.5 -11l6 -9l5 -9l3 -15l-4 -16c-2 -6 -6.16699 -11.167 -12.5 -15.5s-13.5 -7.5 -21.5 -9.5c-7.33301 0 -16.666 12 -27.999 36c-10 24 -15 44.667 -15 62
c0 5.33301 1.33301 11.666 4 18.999l10 34l-3 43l3 38l3 38c-0.666992 2 -1.5 4.16699 -2.5 6.5s-3.16699 5.83301 -6.5 10.5l-8 17l3 43l11 87c9.33301 74 16.666 120 21.999 138zM162.997 554.001c-6 -54 -13 -95 -21 -123l-10 -57l1 -51l1 -68c26 6 51.667 16.333 77 31
c33.333 16.667 87 51 161 103c18 12 34.667 25.667 50 41c24.667 24.667 37 46.667 37 66c0 24 -12 41 -36 51c-18.667 7.33301 -42.667 11 -72 11l-23 -1h-20l-69 -2z" />
    <glyph glyph-name="S" unicode="S" horiz-adv-x="450" 
d="M272 691c50.667 0 90.668 -14.6689 120.001 -44.002c25.333 -24 38 -49.667 38 -77c0 -13.333 -3.33301 -23.333 -10 -30l-19 -20l-5 -23c-2 -10.667 -6 -17 -12 -19c-10.667 0 -21.5 2 -32.5 6s-16.5 11.333 -16.5 22c0 6 5.83301 14.167 17.5 24.5
s18.5 18.833 20.5 25.5l3 13l-2 13c-4 15.333 -16 27.333 -36 36c-18.667 9.33301 -39.667 14 -63 14c-9.33301 0 -16.666 -2.16699 -21.999 -6.5s-8 -14.5 -8 -30.5s4.33301 -32.667 13 -50c30.667 -45.333 59 -91 85 -137c14 -24 29 -56.833 45 -98.5s24 -73.5 24 -95.5
c0 -62 -23.667 -114.333 -71 -157c-42.667 -36.667 -98.334 -55 -167.001 -55c-54 0 -98 20 -132 60c-28 34 -42 69.667 -42 107c0 32.667 11.667 66.667 35 102c26 42 56 63 90 63c16.667 0 29 -4 37 -12c4.66699 -4.66699 7 -12.334 7 -23.001
c0 -7.33301 -6 -14.666 -18 -21.999l-27 -8c-20 -6 -36.333 -22.667 -49 -50c-8 -19.333 -12 -37.666 -12 -54.999c0 -34.667 13.667 -61.667 41 -81c14.667 -9.33301 30.167 -16.333 46.5 -21s35.166 -7 56.499 -7h15l24 1c4 1.33301 8.33301 5 13 11l11 25l34 17
c28 15.333 42 51.333 42 108c0 23.333 -5 47 -15 71l-9 17l-23 37l-32 58l-18 37l-14 32c-3.33301 10 -8 18.333 -14 25l-15 24l-11 27l-7 37l-7 37c0 20.667 8.33301 38.334 25 53.001c16.667 12.667 38.667 19 66 19z" />
    <glyph glyph-name="T" unicode="T" 
d="M247 663c14 -2 23.001 -7.66699 27.001 -17l8 -22c4 -8 9.66699 -12 17 -12s17.333 2.66699 30 8l51 17l47 11l45 10l48 12l41 10l40 4l40 -4c8 0 14.667 1.33301 20 4l21 14c13.333 0 24.333 -3.33301 33 -10s13 -16.334 13 -29.001
c0 -8.66699 -4.66699 -15.667 -14 -21l-11 -2l-24 2l-20 1c-12.667 0 -30 -2 -52 -6s-36 -6.66699 -42 -8s-21.667 -5.33301 -47 -12c-104 -26 -185 -45 -243 -57l1 -208l1 -92l1 -93l-2 -64l-2 -47v-52v-32l2 -20l2 -22c0 -3.33301 -2.66699 -7.66602 -8 -12.999
s-12 -9 -20 -11c-18.667 0 -30.667 3.66699 -36 11c-9.33301 11.333 -14 28.666 -14 51.999l7 91l4 89l-1 38c0 8.66699 1.66699 19.667 5 33l2 20l-2 136l3 53v114l-82 -12l-69 -5c-10 0 -18.667 1 -26 3c-6 2.66699 -9 9 -9 19c0 6 2 12.667 6 20
c7.33301 9.33301 20.666 14 39.999 14h28c6 0 15 2 27 6c21.333 6 36.333 9 45 9l12 -1h21l7 17v25c0 14.667 2.33301 24.334 7 29.001c4 2 11.333 2 22 0z" />
    <glyph glyph-name="U" unicode="U" horiz-adv-x="697" 
d="M111 548c11.333 0 20.3311 -2.83398 26.998 -8.50098s10 -13.167 10 -22.5c0 -6.66699 -3 -18 -9 -34l-10 -25l-6 -20l-2 -26l5 -102l3 -90c0 -42.667 7.66699 -78 23 -106c13.333 -25.333 28.333 -38 45 -38c28.667 0 56.667 20.667 84 62l52 94l18 28l15 28l6 21l5 19
c6.66699 26.667 22.667 67.334 48 122.001s43 86 53 94c4.66699 4.66699 14.334 9.66699 29.001 15l29 10c4 0 8 -5 12 -15l6 -22l2 -15v-15l-1 -27l-1 -25l-4 -122v-18v-76c0 -70 3.5 -116.333 10.5 -139s16.833 -34 29.5 -34l11 6l11 9l8 2c4.66699 0 8.66699 -1 12 -3
s6 -6.66699 8 -14c0 -13.333 -6.66699 -31.166 -20 -53.499s-24.666 -34.5 -33.999 -36.5c-37.333 0 -64 31.667 -80 95l-17 100c0 7.33301 -0.666992 12.666 -2 15.999v14l1 30l1 30v58v12c0 32.667 -2.33301 62 -7 88l-32 -62l-30 -64l-54 -133c-24 -46 -48 -81 -72 -105
c-29.333 -30.667 -59.333 -46 -90 -46c-37.333 0 -70 23 -98 69c-23.333 42.667 -35 89 -35 139v177l-2 35l-2 28c0 12 1.66699 22.667 5 32l16 36c10 18 17.667 27.333 23 28z" />
    <glyph glyph-name="V" unicode="V" horiz-adv-x="567" 
d="M52 624c20.667 0 37.332 -42.6709 49.999 -128.004c6 -53.333 14.333 -91.666 25 -114.999l16 -45l19 -59c8.66699 -26 17 -46 25 -60l25 -47l24 -52c10 -18 19.333 -27 28 -27c4.66699 0 8.66699 2.66699 12 8l21 35l19 40l18 32l9 21l7 22l14 48
c5.33301 18 13.666 40.667 24.999 68l54 109c7.33301 14 14.166 28.667 20.499 44l23.5 59l8 25c2.66699 5.33301 10 9 22 11c8.66699 0 17.334 -2 26.001 -6s13.334 -8.66699 14.001 -14c0 -5.33301 -0.333008 -9.66602 -1 -12.999s-3.33398 -10.5 -8.00098 -21.5
s-9.66699 -20.167 -15 -27.5l-23 -26c-11.333 -11.333 -24 -41 -38 -89l-19 -70c-2 -7.33301 -4 -13.833 -6 -19.5s-4.66699 -10.5 -8 -14.5l-19 -34c-4.66699 -10 -9 -23.333 -13 -40c-2 -16 -4.33301 -27 -7 -33c-1.33301 -10 -4.66602 -21 -9.99902 -33l-10 -25l-4 -10
c-2 -8 -7.33301 -16.333 -16 -25l-16 -19l-24 -65c-8 -9.33301 -25 -14 -51 -14c-22 0 -39.167 6 -51.5 18s-31.166 39.333 -56.499 82c-8 14.667 -14.333 31.334 -19 50.001l-10 56c-8 20 -14 31 -18 33s-11 17 -21 45c-12 36.667 -20 66.334 -24 89.001
c-2 23.333 -6.33301 42 -13 56l-11 26l-2 17l-1 20v24l-3 22c-2 9.33301 -6 19 -12 29l-7 21c0.666992 2 1.66699 4 3 6s4 4.66699 8 8s11 6 21 8z" />
    <glyph glyph-name="W" unicode="W" horiz-adv-x="672" 
d="M110 527c26 0 38.999 -27.666 38.999 -82.999l3 -68c1.33301 -12.667 2.33301 -21.5 3 -26.5s2.33398 -11.167 5.00098 -18.5l24 -111c6 -34.667 12.5 -58.334 19.5 -71.001s14.833 -22.334 23.5 -29.001l22 -7l13 2l13 9c9.33301 43.333 19 74.333 29 93
c10 21.333 26.333 32 49 32c14.667 0 27 -3.66699 37 -11c11.333 -6 21.333 -16 30 -30l27 -58c20 -44 38 -66 54 -66c12 0 20 6 24 18c3.33301 14.667 5 29.667 5 45v14v13v11l-1 39c0 14 -1.33301 27.333 -4 40l-9 124l3 51c2 13.333 6 26.333 12 39
s15.333 22.334 28 29.001l17 4c10 0 19.333 -3.66699 28 -11s14 -15.666 16 -24.999c0 -8 -7.16699 -15.833 -21.5 -23.5s-21.5 -27.834 -21.5 -60.501l2 -70l2 -49l11 -117c0 -20.667 -1.33301 -36.667 -4 -48c-6 -34.667 -17.667 -61.667 -35 -81
c-16 -19.333 -31.333 -29 -46 -29c-14 0 -36.667 19 -68 57c-10.667 13.333 -20.5 27.5 -29.5 42.5s-16.833 29.833 -23.5 44.5l-14 32c-4 11.333 -8.66699 17 -14 17c-4.66699 0 -9.66699 -4.66699 -15 -14l-24 -64c-15.333 -46.667 -37 -70 -65 -70
c-16 0 -33.167 6.5 -51.5 19.5s-32.5 29.167 -42.5 48.5c-8 19.333 -22 65.333 -42 138l-17 68l-2 22l1 18v16l-4 19l-15 67l-4 14l-1 17c0 10.667 2 19.667 6 27s13.333 11 28 11z" />
    <glyph glyph-name="X" unicode="X" horiz-adv-x="654" 
d="M112 754c22 0 42.0029 -21.334 60.0029 -64.001l35 -88l39 -47l7 -22l9 -41c2 -12 8.66699 -27.667 20 -47s21.666 -35.666 30.999 -48.999l32 -45c19.333 4 35.666 11 48.999 21l34 29c3.33301 2 10 5.5 20 10.5s19.667 9.16699 29 12.5c28.667 8 53.667 23.333 75 46
l23 25c10 10 22 20 36 30l46 33c21.333 13.333 37.666 20 48.999 20c4.66699 0 7 -7.33301 7 -22c0 -14 -15 -36 -45 -66c-15.333 -14.667 -31.333 -28.667 -48 -42s-36.334 -27.333 -59.001 -42l-56 -26c-17.333 -10.667 -53 -37.667 -107 -81l36 -63l23 -39l42 -48
c8.66699 -9.33301 20 -24.666 34 -45.999c18.667 -30 52.334 -65 101.001 -105c15.333 -13.333 23 -26 23 -38c0 -6.66699 -2.66699 -13.5 -8 -20.5s-12.666 -12.5 -21.999 -16.5l-15 -3l-16 2c-26 6 -45.667 21 -59 45c-16 38 -36.333 68.333 -61 91c-10 10 -42 61 -96 153
c-16 28 -33 42 -51 42c-14 0 -28.667 -6.66699 -44 -20c-54.667 -47.333 -90 -75.333 -106 -84c-56 -30 -92 -65 -108 -105c-10 -27.333 -26 -41 -48 -41c-10 0 -20.833 3.83301 -32.5 11.5s-18.5 16.5 -20.5 26.5c0 17.333 13.333 36.333 40 57l88 69l29 36l16 7l53 22
c35.333 12 67.666 36.667 96.999 74c-24 28 -41.333 54.667 -52 80l-21 58l-17 30l-32 50l-12 24l-21 41c-4 7.33301 -7 15 -9 23l-5 22c-1.33301 8.66699 -4 14.667 -8 18c-2 3.33301 -8.33301 9.16602 -19 17.499s-18 16.5 -22 24.5v22c3.33301 16 9.33301 27 18 33z" />
    <glyph glyph-name="Y" unicode="Y" horiz-adv-x="576" 
d="M507 693c9.33301 0 16.0029 -1.66602 20.0029 -4.99902c4 -2 6.33301 -6.33301 7 -13c0 -8.66699 -1.66699 -15.667 -5 -21c-2 -6 -7.33301 -14.333 -16 -25l-62 -96l-16 -32c-32.667 -89.333 -50.334 -141.333 -53.001 -156l7 -15c0 -8 -3.83301 -18.5 -11.5 -31.5
s-14.5 -30.167 -20.5 -51.5l-3 -28v-28v-12c0 -15.333 -1.33301 -27.333 -4 -36l-15 -58c0 -10 1.83301 -20.5 5.5 -31.5s5.5 -19.833 5.5 -26.5c0 -5.33301 -1.16699 -10.333 -3.5 -15s-5.5 -8 -9.5 -10h-17l-37 3c-10 2 -15 7 -15 15v18l3 26l3 26l-1 17l-1 20l1 27
c0 8 1.66699 18 5 30l9 45l8 49c-6.66699 10.667 -13.834 21.5 -21.501 32.5s-16.834 23.167 -27.501 36.5l-44 57l-47 61l-27 44c-18 38 -38 69 -60 93l-14 16l-10 19c0 4 2 7 6 9l27 9l29 3c4 0 16.667 -18 38 -54l28 -47l22 -32l57 -78c14.667 -19.333 37.667 -42 69 -68
c36.667 83.333 63 139.666 79 168.999l42 78c8 22 15.333 37.333 22 46c11.333 14 27.333 21 48 21z" />
    <glyph glyph-name="Z" unicode="Z" horiz-adv-x="569" 
d="M244 656c42.667 0 75.6621 -17.665 98.9951 -52.998c8.66699 -14 16.334 -32 23.001 -54c2.66699 -10.667 4.66699 -21 6 -31s2 -22.333 2 -37c0 -36.667 -5.33301 -69.667 -16 -99c24 4 45 9 63 15l55 17l79 16l53 4h22c1.33301 -0.666992 3 -1.83398 5 -3.50098
s4 -3.5 6 -5.5l4 -16c0 -12.667 -14 -27 -42 -43c-26.667 -12.667 -47.667 -19 -63 -19h-23l-22 1c-12.667 0 -21 -0.666992 -25 -2l-10 -1l-18 -6l-34 -11l-52 -12l-5 -26l-2 -28c0 -38.667 9.66699 -74.334 29 -107.001c17.333 -29.333 33 -44 47 -44l21 7l17 3
c8 0 16 -1.33301 24 -4c10 -2 17.167 -4.5 21.5 -7.5s7.5 -10.5 9.5 -22.5c0 -10.667 -8.83301 -25.167 -26.5 -43.5s-32.5 -28.5 -44.5 -30.5c-10 0 -23.333 8.33301 -40 25l-11.5 12c-4.33301 4.66699 -9.16602 8.66699 -14.499 12l-43 27l-9 24
c-2 12.667 -3.66699 19.667 -5 21l-21 44c-10 21.333 -15 43.333 -15 66c0 12 2 28.667 6 50l-93 -18c-19.333 -2 -61.666 -14 -126.999 -36l-19 -11l-20 -13l-17 -8l-29 -11l-13 -4l-19 -1c-14.667 0 -24.834 5.16699 -30.501 15.5s-8.5 21.5 -8.5 33.5l1 20
c0 6 6.66699 9 20 9l17 -1h17l32 3c11.333 2 20.333 5.66699 27 11l29 16c16 8.66699 33.333 16 52 22l30 5l38 3c26.667 0 62.334 10.667 107.001 32l8 46l2 41l-1 25v29c0 22.667 -3 40 -9 52c-11.333 20 -35.333 30 -72 30c-29.333 0 -52.666 -5.66699 -69.999 -17
s-32.666 -17 -45.999 -17l-18 3c-4.66699 2 -7.66699 6 -9 12c0 14 5.33301 25.333 16 34l25 11c20 14 39.833 25.167 59.5 33.5s43.167 12.5 70.5 12.5z" />
    <glyph glyph-name="bracketleft" unicode="[" horiz-adv-x="355" 
d="M144 625l-2.00098 32.002c0 17.333 3.66699 28.5 11 33.5s18 7.5 32 7.5h14l44 -1l49 1l28 1c12 0 20.667 -0.666992 26 -2c6 0 13 -3 21 -9c4 -2.66699 7.66699 -8 11 -16l2 -16c0 -8 -8.66699 -14 -26 -18l-27 -3l-16 1l-27 5l-22 1l-31 -3
c-10 -0.666992 -17.833 -4.5 -23.5 -11.5s-8.5 -16.833 -8.5 -29.5l1 -40l2 -35l-1 -43c0 -10.667 -2.33301 -27.667 -7 -51l-22 -205v-12c0 -13.333 -0.333008 -27 -1 -41s-2 -28.333 -4 -43c0 -18 -1 -35.833 -3 -53.5s-3.66699 -31.834 -5 -42.501v-44c0 -36 3 -59 9 -69
s22 -15 48 -15h11c27.333 0 48 1.33301 62 4l32 4c6 0 11.667 -3.66699 17 -11l7 -23c0 -4.66699 -6 -11 -18 -19s-22 -13 -30 -15l-12 5l-15 5l-44 -2l-43 -2c-37.333 0 -61.666 3.66699 -72.999 11s-17 22.666 -17 45.999l1 39l5 98l1 47v30c2 10 3.33301 17.333 4 22
l1 34l12 71l6 47l3 48v25c0 22 2 42 6 60l7 33l2 19v19l-1 33l-1 42l3 30z" />
    <glyph glyph-name="backslash" unicode="\" horiz-adv-x="495" 
d="M176 643l32.998 -90.001l19.5 -44.5c7.66699 -17.667 14.834 -33.167 21.501 -46.5l40 -80l43 -82l45 -89l32 -69l59 -142l36 -95c10 -28 15 -48.667 15 -62c0 -4.66699 -4 -10 -12 -16l-25 -7c-14 0 -29.333 19.333 -46 58l-58 163
c-29.333 80.667 -64.333 162.334 -105 245.001l-67 137l-50 107l-34 77c-16 39.333 -24 68 -24 86c2.66699 4 5.33398 6.66699 8.00098 8l20 2h13c9.33301 0 18 -7.66699 26 -23z" />
    <glyph glyph-name="bracketright" unicode="]" horiz-adv-x="356" 
d="M212 -83l1.99707 -32.001c0 -15.333 -4.33301 -27 -13 -35c-6 -4 -16 -6 -30 -6h-14l-44 1l-49 -1l-28 -1c-12.667 0 -21.667 0.666992 -27 2c-6 0 -12.667 3 -20 9c-4 2.66699 -7.66699 8 -11 16l-2 16c0 6.66699 6.66699 12.334 20 17.001l33 4l22 -2l24 -4l19 -2l27 3
c12.667 2 21.834 6.16699 27.501 12.5s8.5 16.166 8.5 29.499l-1 39v13v11l-2 12l1 43c0 9.33301 1 19.833 3 31.5l5 28.5l20 198c9.33301 104.667 14 168 14 190v44c0 36 -3 59 -9 69s-22 15 -48 15c-33.333 0 -57.666 -1.33301 -72.999 -4l-32 -4
c-7.33301 0 -13.166 3.83301 -17.499 11.5s-6.5 15.167 -6.5 22.5c0 4.66699 6 11 18 19s22 13 30 15l12 -5l15 -5l43 2l44 2c32.667 0 54.5 -2 65.5 -6s16.5 -12.667 16.5 -26c0 -9.33301 -0.666992 -15.666 -2 -18.999l-3 -36l-2 -43l4 -53l4 -80
c0 -110 -3.33301 -188.333 -10 -235l-29 -105l-2 -25v-14l1 -32l1 -32l-2 -36z" />
    <glyph glyph-name="a" unicode="a" horiz-adv-x="440" 
d="M186 390c16.667 0 29.6689 -3.66797 39.002 -11.001l25 -23l13 -9c4 -2 6 -6.66699 6 -14l3 -21c0 -5.33301 2.66699 -9 8 -11c10 0 19 2.66699 27 8l20 8c8 0 15.333 -11.333 22 -34c2.66699 -10 5 -21 7 -33s3 -23.667 3 -35l-1 -15
c0 -7.33301 -0.666992 -12.333 -2 -15l2 -13l6 -12l5 -9v-19l-1 -13v-7l2 -17c1.33301 -9.33301 4 -17.333 8 -24l10 -19l11 -13l10 -19l4 -20l-3 -8l-9 -7l-10 -4h-19l-22 18l-16 20v23l-8 17l-7 17l-7 26l-1 12l1 14c0 6.66699 -1.16699 13.834 -3.5 21.501
s-5.83301 12.5 -10.5 14.5l-5 -2l-6 -4l-11 -11l-15 -4l-18 2c-4 0 -8.16699 -1.83301 -12.5 -5.5s-10.5 -13.5 -18.5 -29.5c-4 -12 -10 -21 -18 -27c-12.667 -9.33301 -30 -24.333 -52 -45l-21 -18l-17 -4l-16 1h-23c-8 2 -17.5 10.5 -28.5 25.5s-16.5 28.5 -16.5 40.5
c0 6 2 16.667 6 32l11 39c11.333 56.667 23.666 101 36.999 133c29.333 68.667 66.666 103 111.999 103zM173.002 329.999c-17.333 0 -32.999 -13.334 -46.999 -40.001l-19 -56c-2 -6.66699 -4.66699 -11.667 -8 -15s-6.33301 -18.666 -9 -45.999l-9 -58l-2 -16l3 -13
c2 -6 6 -9 12 -9c15.333 0 42.666 22.167 81.999 66.5s59 78.833 59 103.5c0 16.667 -4.66699 33 -14 49c-12.667 22.667 -28.667 34 -48 34z" />
    <glyph glyph-name="b" unicode="b" horiz-adv-x="438" 
d="M56 756c14 0 23 -3.33203 27 -9.99902s6 -19 6 -37v-20l1 -19l-1 -17l-9 -35c-2.66699 -10 -4.66699 -19.667 -6 -29s-2 -20.333 -2 -33v-29v-11c0 -27.333 -1 -49 -3 -65l-7 -72l-4 -62l1 -22c0 -10 -0.666992 -16.333 -2 -19l-3 -10v-7l7 -1
c3.33301 0 8.66602 5 15.999 15l18 27l22 26c12 13.333 26.667 24.666 44 33.999c16 10 30.333 16 43 18l24 3l16 6l19 10l18 9l37 13l41 10c6.66699 0 13 -2.83301 19 -8.5s9 -12.5 9 -20.5c0 -4 -3.33301 -8.33301 -10 -13l-46 -14c24.667 -14 45 -36 61 -66
c12 -24 18 -49.667 18 -77c0 -50.667 -14.667 -99 -44 -145c-38 -61.333 -92.667 -92 -164 -92c-33.333 0 -66.666 12 -99.999 36c-36 28 -54 62 -54 102l4 23l5 24c-14.667 0 -26.667 3 -36 9c-14 10 -21 26.667 -21 50c0 40.667 1.66699 63 5 67s5 22 5 54l3 96l4 52v26
c0 16.667 0.666992 27.667 2 33l15 109l2 25c0 8 -0.666992 13 -2 15l-5 31l9 8zM278 335.001c-22 -4 -42.666 -14.665 -61.999 -31.998l-41 -39c-24.667 -21.333 -42.834 -43.333 -54.501 -66s-17.5 -41.667 -17.5 -57c0 -10.667 1.66699 -20.334 5 -29.001
s6.33301 -15.334 9 -20.001s6.66699 -10.667 12 -18c18 -22 39.667 -33 65 -33c36 0 70.667 13 104 39c42 35.333 63 85.333 63 150c0 24.667 -8.66699 48 -26 70c-16 23.333 -35 35 -57 35z" />
    <glyph glyph-name="c" unicode="c" horiz-adv-x="398" 
d="M155 356h16.999c8 0 15.167 -4.16699 21.5 -12.5s10.5 -18.166 12.5 -29.499c0 -10 -5 -16.667 -15 -20h-13l-16 5c-7.33301 4 -12.666 6 -15.999 6c-20 0 -34 -16 -42 -48c-4 -18 -6 -44.667 -6 -80c0 -32 10 -56 30 -72c16 -12 38 -18 66 -18
c26.667 0 56.667 11.333 90 34c28.667 19.333 54 42 76 68c9.33301 10.667 22 16 38 16c8.66699 0 13 -6.33301 13 -19c0 -10.667 -4.33301 -20.667 -13 -30l-25 -24c-31.333 -32.667 -53 -53.334 -65 -62.001c-36.667 -25.333 -79 -38 -127 -38
c-38.667 0 -67.667 6.66699 -87 20c-36 23.333 -54 67 -54 131v38v15.5c0 4.33301 1.33301 11.5 4 21.5l15 40c2 8.66699 9 18 21 28c18 16 43 26 75 30z" />
    <glyph glyph-name="d" unicode="d" horiz-adv-x="455" 
d="M439 645c8.66699 0 15.668 -2.66113 21.001 -7.99414c4.66699 -3.33301 8 -8.33301 10 -15l-2 -8l-6 -9l-11 -16c-4 -8 -7 -20 -9 -36c0 -14 -1 -24 -3 -30l-9 -23l-10 -23l-2 -14v-11l1 -31c0 -15.333 -12 -73 -36 -173c-12 -48 -18 -92 -18 -132
c0 -20.667 2.83301 -36 8.5 -46s8.5 -18 8.5 -24c0 -12.667 -1.66699 -23.334 -5 -32.001s-9 -13.334 -17 -14.001c-26 0 -41 11.333 -45 34l-7 51l-2 26l1 13l6 17c4 8 6 20 6 36l-1 11l-3 7c-4 -2.66699 -7.5 -5.5 -10.5 -8.5l-21.5 -22.5
c-14 -16.667 -23.667 -30.334 -29 -41.001l-9 -20c-2 -6 -9 -13 -21 -21l-22 -14l-18 -15l-16 -17c-24 -24 -47.667 -36 -71 -36c-30.667 0 -53 9 -67 27c-8 11.333 -12 24.666 -12 39.999c0 12 0.333008 23.5 1 34.5s2.16699 24 4.5 39s8.16602 34.833 17.499 59.5l14 35
l27 52c16.667 30.667 34.334 52.667 53.001 66c13.333 9.33301 25.666 14 36.999 14c16 0 28.333 -5.33301 37 -16s15.667 -30.334 21 -59.001l6 -50c2 -15.333 8.33301 -24 19 -26c15.333 0 38.5 32.333 69.5 97s46.5 125 46.5 181c0 31.333 5 62.666 15 93.999
c13.333 38 31 57 53 57zM159.001 298.006c-10 0 -19.333 -7.33398 -28 -22.001l-23 -44l-17 -26l-10 -33l-5 -40l-7 -24l-2 -19l2 -12l5 -13c4 -8 9.33301 -12.333 16 -13c22 0 39 9 51 27c4 6.66699 9.66699 21.334 17 44.001l21 57v24l12 25c0 13.333 -3.16699 28 -9.5 44
s-13.833 24.333 -22.5 25z" />
    <glyph glyph-name="e" unicode="e" horiz-adv-x="395" 
d="M80 70l-30.002 -10.9971l-28 -8c-8.66699 0 -16.167 2.66699 -22.5 8s-9.5 14.666 -9.5 27.999c0 14 8.66699 22 26 24s32 9.66699 44 23c-9.33301 17.333 -16.666 37.666 -21.999 60.999c-4 22 -6 43.667 -6 65c0 32.667 8.66699 61.167 26 85.5s33 36.5 47 36.5
c23.333 0 44.333 -12.333 63 -37c16 -21.333 24 -49 24 -83c0 -24.667 -4.33301 -47.667 -13 -69c-12 -30 -31 -56 -57 -78c6.66699 -16 27.667 -31.667 63 -47c28.667 -11.333 55.334 -17 80.001 -17c30.667 0 59 6.33301 85 19c10 4.66699 25.667 14.667 47 30l18 11l17 5
c5.33301 0 10 -1 14 -3s7 -5.66699 9 -11c0 -10.667 -7.33301 -22.334 -22 -35.001l-33 -21l-50 -31c-24 -10 -66 -15 -126 -15c-23.333 0 -49.666 6 -78.999 18c-24.667 12 -46.334 29.333 -65.001 52zM102.998 177.003c6 4 10.333 10.333 13 19l8 22
c6.66699 23.333 10 40.333 10 51c0 14 -2.83301 25 -8.5 33s-12.5 12 -20.5 12l-6 -5l-7 -9l-9 -19l-1 -12l1 -19l-1 -19l1 -13c1.33301 -6.66699 4 -12.667 8 -18z" />
    <glyph glyph-name="f" unicode="f" horiz-adv-x="434" 
d="M210 719c14 0 31.0029 -7.00195 51.0029 -21.002c13.333 -9.33301 23.333 -19.666 30 -30.999l19 -40l13 -34c0 -26.667 -5.83301 -51.834 -17.5 -75.501s-24.834 -35.5 -39.501 -35.5l-10 5l-4 12l11 35l5 36c0 18.667 -4.33301 33.667 -13 45
c-7.33301 11.333 -15 18 -23 20l-4 -6l-7 -23l-11 -11c-6 -5.33301 -9 -9.66602 -9 -12.999l4 -21l-1 -18c0 -4.66699 -2.33301 -12 -7 -22c-3.33301 -11.333 -5 -27 -5 -47v-25l1 -24v-11l-2 -21l-5 -41l2 -20l4 -15l3 -40l106 26c41.333 8.66699 75.666 13 102.999 13h45
c11.333 -1.33301 20.166 -2.5 26.499 -3.5s13.833 -2.66699 22.5 -5s14.334 -6.5 17.001 -12.5c2 -4 2 -9.66699 0 -17c0 -3.33301 -3.33301 -8 -10 -14c-2 -1.33301 -9.33301 -3 -22 -5l-17 1l-44 2l-31 2c-32 0 -68 -3 -108 -9
c-20.667 -3.33301 -37.667 -7.66602 -51 -12.999c-14 -4 -27.333 -10.333 -40 -19l12 -115l3 -69l1 -88c0 -24.667 1.33301 -43.334 4 -56.001l12 -66l5 -66l1 -29l5 -30c2 -9.33301 5 -16.666 9 -21.999l14 -12c8 -6 15 -16 21 -30s9 -24 9 -30
c0 -5.33301 -3.83301 -13 -11.5 -23s-14.834 -16 -21.501 -18c-34 0 -58.333 38.333 -73 115l-9 92l-4 124v14v12c0 30 -1.33301 53.333 -4 70l-10 79l-7 64l-2 64c-26 0 -56.333 -10.333 -91 -31l-72 -46c-4 -2 -8.66699 -3 -14 -3l-15 3c-5.33301 2 -9.33301 6 -12 12
s-5 15.333 -7 28c0 20 23.333 37.333 70 52l141 45l-6 125l-2 58l-2 44v31l4 20l19 109c12 46 29 69 51 69z" />
    <glyph glyph-name="g" unicode="g" horiz-adv-x="342" 
d="M193 335c16.667 0 31.667 -5.66895 45 -17.002c18 -14 27 -34.667 27 -62c0 -29.333 -7.33301 -44 -22 -44c-12.667 0 -20 3 -22 9l2 16l3 14c0 4 -4 9 -12 15l-24 7c-11.333 0 -27.166 -12.667 -47.499 -38s-31.166 -43.666 -32.499 -54.999c0 -8.66699 4 -17 12 -25
c8 -6 21.333 -9 40 -9c6.66699 0 17.667 3.33301 33 10l24 7l29 3c22 0 36.333 -8.33301 43 -25c4 -10 6 -30 6 -60v-30v-13v-10c-1.33301 -4.66699 -2 -8 -2 -10l-8 -44l-2 -23v-8v-16l1 -18c0 -100.667 -18 -189 -54 -265c-32 -65.333 -63.667 -98 -95 -98
c-22 0 -49.667 3.16699 -83 9.5s-56 14.166 -68 23.499l-94 64c-46 36 -69 66.667 -69 92l6 18l3 13l-2 11l-3 8c0 4 2.66699 7.66699 8 11l20 6c15.333 0 26.166 -1.66699 32.499 -5s10.166 -8.66602 11.499 -15.999l-5 -13c-4 -7.33301 -6 -12.666 -6 -15.999
c0 -22 27.167 -53 81.5 -93s96.833 -60 127.5 -60c46 0 82.333 44.667 109 134c9.33301 34 16.333 65.667 21 95c2 14.667 3.66699 29.5 5 44.5s2 30.167 2 45.5l-3 54c0 4 1.33301 8.66699 4 14l9 22l-3 22l-2 19l3 38c0 6 -2.83301 11 -8.5 15s-13.5 7 -23.5 9l-40 -20
c-14 -6 -32.333 -9 -55 -9c-8.66699 0 -16 1.33301 -22 4c-24.667 10 -37 33 -37 69c0 50 18 94.667 54 134c29.333 30.667 57 46 83 46z" />
    <glyph glyph-name="h" unicode="h" horiz-adv-x="652" 
d="M101 330v-54.999v-98v-30l1 -28v-17l-1 -9l-3 -30c0 -9.33301 0.666992 -15.333 2 -18l8 -15l9 -7c6 0 16.667 12.667 32 38l105 173c22.667 37.333 39 62 49 74c25.333 32 48.666 48 69.999 48c20 0 34.333 -14.667 43 -44l15 -82l17 -56
c4.66699 -11.333 7.66699 -18 9 -20l12 -18c19.333 -26.667 47 -40 83 -40c32 0 55.333 4.33301 70 13l16 7c11.333 4 23.333 6 36 6c10.667 0 18 -3.16699 22 -9.5s6 -14.833 6 -25.5c0 -16 -17.333 -29 -52 -39c-28 -8 -57.667 -12 -89 -12c-53.333 0 -97 21 -131 63
c-14.667 20.667 -29.334 53.667 -44.001 99l-15 58c-4 17.333 -8.66699 27 -14 29c-10 0 -26.667 -16.333 -50 -49s-42.666 -66 -57.999 -100c-23.333 -53.333 -48.166 -96.333 -74.499 -129s-49.833 -49 -70.5 -49c-30 0 -48 31.667 -54 95c-2 21.333 -3 52.666 -3 93.999
v115v164c0 52.667 -2.33301 97.667 -7 135l-3 36l3 21l6 17l10 8l11 3c4.66699 0 7.66699 -0.666992 9 -2c8 -4 14.667 -26 20 -66l2 -103z" />
    <glyph glyph-name="i" unicode="i" horiz-adv-x="225" 
d="M140 305c8 0 13.834 -1.99902 17.501 -5.99902s6.16699 -9.33301 7.5 -16l2 -12v-6l-1 -24l-3 -45v-49c0 -55.333 -2 -93 -6 -113c-2 -18 -10.667 -29.333 -26 -34l-15 -3l-10 3c-5.33301 2.66699 -9 7 -11 13c0 12 0.666992 20.333 2 25l4 27l6 68l3 28v16l2 23
c0 6 -1.33301 9.33301 -4 10l-7 -4l-13 -11l-15 -15c-6 -5.33301 -14.333 -9 -25 -11c-15.333 0 -23 9.66699 -23 29c0 6 6.66699 15.333 20 28l25 24l33 36c13.333 11.333 25.666 17.666 36.999 18.999zM159.001 477.001c5.33301 0 13.665 -4.66602 24.998 -13.999
c12 -8 20 -16 24 -24l3 -13c0 -4 -1.16699 -8.33301 -3.5 -13s-8.66602 -9 -18.999 -13s-20.166 -6 -29.499 -6c-8.66699 0 -18.167 2.66699 -28.5 8s-15.5 11.333 -15.5 18c0 11.333 4.83301 23.666 14.5 36.999s19.5 20 29.5 20z" />
    <glyph glyph-name="j" unicode="j" horiz-adv-x="209" 
d="M135 245c4 0 8 -1 12 -3s7 -5.66699 9 -11l-6 -19c-2 -4 -5.33301 -11.667 -10 -23l-9 -22l-2 -29v-16l1 -16c0 -15.333 -7 -57.666 -21 -126.999c-7.33301 -38 -11 -94 -11 -168l-1 -12v-18l1 -21c0 -4.66699 3.33301 -10.334 10 -17.001c6 -4 9 -7.66699 9 -11
c0 -17.333 -6.33301 -32.333 -19 -45s-28.667 -19 -48 -19c-4 0 -6 7 -6 21v15c0 12 -2.33301 23.667 -7 35l-6 19l3 2l7 5c3.33301 1.33301 7 6.33301 11 15l3 20l-1 18l-1 18c0 22 5 51 15 87c2 8 3.66699 15.667 5 23s2.33301 13.333 3 18l-1 81l2 27l2 21l-2 18l-2 14
c0 20 5.33301 43.667 16 71c13.333 32.667 28 49 44 49zM96 582c14.667 0 28.832 -12.6709 42.499 -38.0039s20.5 -46.666 20.5 -63.999c0 -8.66699 -6.5 -16.167 -19.5 -22.5s-24.167 -10.166 -33.5 -11.499l-4 16c0 11.333 -3.33301 20.333 -10 27l-16 16
c-5.33301 6.66699 -9.66602 14.667 -12.999 24v19c2 6.66699 6 13.834 12 21.501s13 11.834 21 12.501z" />
    <glyph glyph-name="k" unicode="k" horiz-adv-x="458" 
d="M165 610c10 0 19.002 -4 27.002 -12s12 -21.667 12 -41c0 -54 -13 -107.667 -39 -161c-34 -66 -53 -107 -57 -123l4 -26l2 -29v-22v-31c0 -8.66699 1.5 -19.5 4.5 -32.5s12.833 -19.5 29.5 -19.5c18 0 32 11.667 42 35c14 36 25.167 58.333 33.5 67s16.833 17 25.5 25
s19 17 31 27c33.333 28 55.666 42 66.999 42c3.33301 0 8 -3.33301 14 -10c4 -6.66699 7 -13.334 9 -20.001c0 -8.66699 -9.66699 -19.667 -29 -33l-36 -26c-22 -16 -35.167 -28.167 -39.5 -36.5s-6.5 -22.5 -6.5 -42.5s4 -37 12 -51c13.333 -22.667 35.666 -34 66.999 -34
c39.333 0 74 12.333 104 37s52.333 37 67 37l4 -2c3.33301 -2.66699 5.5 -4.66699 6.5 -6s2.5 -6.66602 4.5 -15.999c0 -19.333 -25.167 -41.5 -75.5 -66.5s-94.833 -37.5 -133.5 -37.5c-24.667 0 -47 6.66699 -67 20c-27.333 17.333 -41 41.333 -41 72
c-8 -16.667 -17.5 -28 -28.5 -34s-24.167 -9 -39.5 -9c-26 0 -46.333 11.333 -61 34c-12.667 24 -19 55.667 -19 95l3 54l-40 -51c-12 -16 -20 -24 -24 -24l-17 3c-4.66699 2 -8 5 -10 9c0 10 12 32.667 36 68l60 77l6 45l1 32l-1 21v19c0 42 10 82 30 120s40.667 57 62 57z
" />
    <glyph glyph-name="l" unicode="l" horiz-adv-x="187" 
d="M130 700c12 0 20 -2.16895 24 -6.50195s7 -12.5 9 -24.5l-1 -19c0 -9.33301 -0.666992 -15.666 -2 -18.999l-3 -41l-4 -33l-15 -104v-15v-12l-1 -39c0 -4 -0.5 -9.16699 -1.5 -15.5s-3.83301 -19.166 -8.5 -38.499l-14 -61l-3 -36l-1 -72c0 -34 -2.33301 -63.667 -7 -89
l-13 -75l-3 -31c0 -9.33301 0.666992 -15.333 2 -18l5 -18l3 -14c0 -6.66699 -3.66699 -12.167 -11 -16.5s-15.333 -6.5 -24 -6.5c-8 0 -18 10 -30 30c-10.667 21.333 -16 37.333 -16 48l22 34c6.66699 13.333 10 25.666 10 36.999l-1 17v16c0 10 0.666992 17 2 21l4 29
l6 39l6 52l14 125c3.33301 28.667 6.33301 64.834 9 108.501s4 83.167 4 118.5c0 86 13 129 39 129z" />
    <glyph glyph-name="m" unicode="m" horiz-adv-x="710" 
d="M63 250c14.667 0 25.335 -4.33105 32.002 -12.998c3.33301 -6 6.33301 -19.667 9 -41v-30c1.33301 -8.66699 5 -19.334 11 -32.001s12 -19.667 18 -21c4.66699 0 12.334 6.33301 23.001 19l44 60c29.333 27.333 53.666 46.5 72.999 57.5s34.333 16.5 45 16.5
c5.33301 0 11.666 -2 18.999 -6l17 -10l25 -14c8.66699 -8.66699 13 -22.667 13 -42l1 -42c3.33301 -20 10.666 -30 21.999 -30c10 0 23.667 8 41 24l38 40c7.33301 6 19.666 13 36.999 21l34 14h19c22 -2 36.667 -6.66699 44 -14s11 -21 11 -41v-34l1 -35l6 -19
c2 -4.66699 8.33301 -11 19 -19c10 -6 15 -12.333 15 -19l-4 -11l-11 -12c-14.667 -12.667 -25.667 -19 -33 -19c-4 0 -11.667 6 -23 18c-8 12 -16 19 -24 21l-16 7c-4.66699 3.33301 -7 10 -7 20c0 3.33301 2 9 6 17l7 13l1 11l-1 23v11v8l-2 7c0 6 -2.66699 9.33301 -8 10
c-8 0 -18.667 -6.33301 -32 -19l-26 -30l-47 -51c-20 -23.333 -36.333 -35 -49 -35c-15.333 0 -27.666 3 -36.999 9c-10 8 -16.333 19.333 -19 34l-4 31c0 7.33301 0.666992 12.666 2 15.999l2 11l-3 15l-24 41l-11 15c-1.33301 3.33301 -5.33301 6 -12 8
c-4.66699 0 -11.334 -6.33301 -20.001 -19c-4 -7.33301 -9.33301 -13.333 -16 -18l-12 -9l-12 -16l-58 -89c-23.333 -32 -44.666 -48 -63.999 -48c-28 0 -46 19.667 -54 59l-10 85l-19 70c0 17.333 7.66699 26 23 26z" />
    <glyph glyph-name="n" unicode="n" horiz-adv-x="460" 
d="M36 284c13.333 0 24.666 -9.99805 33.999 -29.998c8 -20 12 -45.667 12 -77v-36l1 -18l-1 -21c0 -6 2 -10 6 -12h7c6 0 11.5 6.66699 16.5 20l10.5 27.5c2 5 6.5 12.5 13.5 22.5s15.833 20.333 26.5 31c13.333 13.333 26 20 38 20c18 0 33.667 -6.66699 47 -20
c9.33301 -10.667 20.333 -29.334 33 -56.001l25 -55c10 -15.333 25.333 -23 46 -23c15.333 0 31.833 3.66699 49.5 11s33.167 18 46.5 32l19 18c7.33301 5.33301 15 9 23 11c4.66699 0 9.5 -2.83301 14.5 -8.5s8.5 -12.834 10.5 -21.501c0 -10 -12 -25 -36 -45l-18 -13
l-30 -18l-48 -15c-24 -6 -40.333 -9 -49 -9c-16 0 -31 4 -45 12c-18 10.667 -31.667 28.667 -41 54l-15 52c-9.33301 24.667 -19 37 -29 37c-6.66699 0 -16.667 -8.66699 -30 -26c-5.33301 -7.33301 -10.166 -15.333 -14.499 -24s-8.16602 -17.667 -11.499 -27
c-8 -32 -19.333 -54 -34 -66c-8.66699 -7.33301 -18.334 -11 -29.001 -11c-14 -0 -25.667 4.33301 -35 13c-8 9.33301 -12 21.333 -12 36v28l-6 19l-4 32v45l2 26l2 26v16l-4 11l-4 22c0 6 4.33301 9.33301 13 10z" />
    <glyph glyph-name="o" unicode="o" horiz-adv-x="359" 
d="M167 369c18.667 0 32 -2 40 -6l52 -48l44 -43c18 -25.333 27 -54.333 27 -87c0 -62 -23.667 -113.667 -71 -155c-38.667 -33.333 -74 -50 -106 -50c-52 0 -88 22 -108 66c-9.33301 22.667 -14 54.667 -14 96c0 39.333 1 66 3 80l8 37c8 36 22.333 63.333 43 82
s48 28 82 28zM162 314l-23 -8.99902l-25 -18c-6 -6 -10.667 -13.833 -14 -23.5s-6 -20.5 -8 -32.5s-3 -23.333 -3 -34v-24l3 -27l7 -19l3 -17l-3 -15l-2 -13c0 -10 4.5 -19.167 13.5 -27.5s20.833 -12.5 35.5 -12.5c27.333 0 54 12.667 80 38c31.333 30 47 67 47 111
c0 12.667 -3.66699 26 -11 40c-5.33301 14 -12.333 25.667 -21 35l-34 29c-18.667 11.333 -33.667 17.666 -45 18.999z" />
    <glyph glyph-name="p" unicode="p" horiz-adv-x="415" 
d="M85 282c14 0 21.3291 -4.33496 21.9961 -13.002l-1 -26l-4 -41l-3 -32l2 -10l4 -6h12c6.66699 2 16 8 28 18l32 31l20 23c4.66699 4.66699 11.334 8.33398 20.001 11.001l23 4l13 4l17 7c12 6 23.667 9 35 9c20 0 38.333 -7.33301 55 -22s25 -33 25 -55
c0 -10 -0.666992 -16.333 -2 -19l-6 -16l-9 -24l-7 -23l-12 -20l-14 -21c-10 -20.667 -17.333 -32.667 -22 -36l-16 -7l-12 1l-12 -3c-5.33301 0 -10.333 -2.16699 -15 -6.5s-10.667 -7.5 -18 -9.5l-23 3l-25 10l-75 29c-9.33301 -14.667 -17.666 -33.667 -24.999 -57
c-8.66699 -39.333 -13 -91 -13 -155v-83c0 -36 -3.66699 -60 -11 -72c-6 -14 -13 -21 -21 -21s-17.167 2.5 -27.5 7.5s-16.166 11.167 -17.499 18.5l3 15c0 14 -2 23.667 -6 29c-4.66699 2.66699 -7 12.334 -7 29.001s3 32 9 46c5.33301 10 10 25.667 14 47v16l-2 24l2 10
c1.33301 5.33301 4.83301 11.166 10.5 17.499s9.5 14.5 11.5 24.5v37v31l1 26c0 13.333 1.33301 27.666 4 42.999l5 72l-2 27l-2 35c0 20.667 4.83301 37.834 14.5 51.501s18.834 20.834 27.501 21.501zM145.996 99.998c8 -12 21.667 -22.332 41 -30.999
c20.667 -7.33301 36.667 -11 48 -11c16 0 32.833 9.83301 50.5 29.5s28.5 37.5 32.5 53.5l1 11c0 9.33301 -0.666992 15.666 -2 18.999c0 6.66699 -1.66699 12 -5 16c-5.33301 7.33301 -14 11 -26 11c-28 0 -51.667 -9.66699 -71 -29c-38 -40 -61 -63 -69 -69z" />
    <glyph glyph-name="q" unicode="q" horiz-adv-x="356" 
d="M225 104c-38.667 -44.667 -72.6689 -80.333 -102.002 -107c-13.333 -10.667 -24.666 -17 -33.999 -19c-10.667 0 -19 1.33301 -25 4c-22.667 9.33301 -34 31 -34 65c0 66 15 135.667 45 209c34 81.333 73 122 117 122c24.667 0 49.834 -14.333 75.501 -43
s38.5 -59 38.5 -91c0 -10.667 -2.33301 -23.334 -7 -38.001l-11 -35l-5 -22l-3 -18l-1 -31v-14l1 -69c0 -15.333 3.33301 -43.333 10 -84l10 -84l9 -57c1.33301 -10 3 -17.667 5 -23l12 -38l10 -50c0 -12 -5 -21 -15 -27l-22 -4c-10 0 -18.667 5 -26 15l-2 11l2 24l-4 16
l-7 19l-5 24l-3 23l-5 42l-3 40c0 10.667 -1.66699 22.334 -5 35.001l-9 54l-4 57v45zM189.998 322.001c-24 0 -48.333 -38.668 -73 -116.001c-10 -33.333 -17.667 -62.5 -23 -87.5s-8 -44.833 -8 -59.5l3 -9l8 -5c15.333 0 42.833 29.833 82.5 89.5
s59.5 98.834 59.5 117.501c0 12 -5.16699 26.667 -15.5 44s-21.5 26 -33.5 26z" />
    <glyph glyph-name="r" unicode="r" horiz-adv-x="312" 
d="M110 239l13 33.001l5 25c2 9.33301 5.33301 17.666 10 24.999l13 18c4.66699 6.66699 10.334 18 17.001 34c2 6 6.66699 9.33301 14 10l13 1l24 9l10 -5l11 -8l40 -14c8.66699 -2 13 -12 13 -30c0 -16 -6 -24 -18 -24l-12 3l-24 11c-10 6 -17.667 9 -23 9
c-10 0 -20.333 -9.33301 -31 -28c-2 -2.66699 -5.66699 -12.334 -11 -29.001l-6 -30l-1 -23l1 -28v-16l1 -16l-1 -14l-7 -26l-4 -34l1 -21l3 -21l2 -16l-2 -10c-3.33301 -10 -10 -17 -20 -21l-10 -2l-11 2c-15.333 4 -23 11.667 -23 23l4 24l3 15l3 20
c0 6.66699 -2 15 -6 25l-8 12c-2 3.33301 -3 7 -3 11l2 11l2 14c0 8.66699 -4.33301 18.667 -13 30l-10 11l-9 12l-13 25l-16 11c-8 6 -12.333 11.333 -13 16c0 9.33301 2 17 6 23s11.667 9 23 9c9.33301 0 19.666 -4.33301 30.999 -13c14 -11.333 24 -25.666 30 -42.999z
" />
    <glyph glyph-name="s" unicode="s" horiz-adv-x="328" 
d="M179 413l18 1h19c23.333 0 44.5 -8.16699 63.5 -24.5s28.5 -37.5 28.5 -63.5c0 -10 -2.16699 -17.333 -6.5 -22s-10.5 -8 -18.5 -10c-9.33301 0 -16 7 -20 21c-2 12.667 -5 23 -9 31c-4 5.33301 -9.33301 9.33301 -16 12l-25 6c-20 0 -31.833 -1.33301 -35.5 -4
s-6.5 -8.66699 -8.5 -18c0 -16 8.33301 -34.333 25 -55l28 -34c13.333 -18 27.333 -43.5 42 -76.5s22 -58.167 22 -75.5c0 -42.667 -16 -79 -48 -109c-28.667 -25.333 -67.334 -38 -116.001 -38c-35.333 0 -66 14.333 -92 43c-20 24 -30 49 -30 75c0 27.333 9 52 27 74
c15.333 17.333 31.333 26 48 26c9.33301 0 16.166 -3.16699 20.499 -9.5s7.16602 -14.5 8.49902 -24.5c-1.33301 -2 -2.66602 -3.66699 -3.99902 -5c-4.66699 -5.33301 -9.66699 -10 -15 -14s-11.166 -10.667 -17.499 -20s-9.5 -19.333 -9.5 -30c0 -16 7 -31 21 -45
c14.667 -12.667 36.334 -19 65.001 -19c29.333 0 52 12 68 36c10 17.333 15 38 15 62c0 22 -18.333 63.667 -55 125l-39 58c-14 23.333 -21 48 -21 74c0 12 5.83301 22.833 17.5 32.5s28.167 16.5 49.5 20.5z" />
    <glyph glyph-name="t" unicode="t" horiz-adv-x="449" 
d="M-1 395c4.66699 0 8.83398 -2.83398 12.501 -8.50098s10.167 -11.834 19.5 -18.501l12 -6c4 -0.666992 12.667 -6 26 -16c11.333 -7.33301 21.666 -12.666 30.999 -15.999c17.333 0 30.166 -0.5 38.499 -1.5s23.833 -3.16699 46.5 -6.5l8 76l3 95v49l-3 86l-2 27
c0 8 1.66699 14.667 5 20c4.66699 4.66699 12.334 7 23.001 7c12 0 20.667 -2.66699 26 -8c2.66699 -3.33301 5 -10.666 7 -21.999c0 -11.333 -0.666992 -18.666 -2 -21.999l-4 -21l-1 -21l1 -23l1 -23v-12l-3 -109l-3 -44l-12 -60l34 1c6.66699 0 17 2 31 6l47 14l17.5 7.5
c7 3 13.5 6.16699 19.5 9.5l45 30c62.667 45.333 101.334 68 116.001 68c4 -2 6.33301 -4.33301 7 -7l2 -13c0 -32 -35 -68 -105 -108c-76 -42.667 -150 -64 -222 -64c0 -47.333 -5.33301 -104.833 -16 -172.5s-16 -107.834 -16 -120.501l3 -50c0 -8 -3 -13 -9 -15l-23 -6
c-8 0 -17 6 -27 18c-7.33301 10.667 -12 21.667 -14 33c0 8 2.33301 14.667 7 20c5.33301 4 8.33301 9.66699 9 17l3 26l4 34c4 37.333 11.333 79 22 125l14 96l-119 19c-46.667 12 -78 34 -94 66c-2 4 -3 8.66699 -3 14c0 4 1.16699 8.33301 3.5 13
s7.16602 8.66699 14.499 12z" />
    <glyph glyph-name="u" unicode="u" horiz-adv-x="669" 
d="M134 407c24 0 41.6641 -22.002 52.9971 -66.002c6 -28 9 -72 9 -132v-62l-1 -29l1 -24c0 -6.66699 3 -11 9 -13c6 0 21.333 20.333 46 61l44 77l25 37l28 38c30.667 36.667 53.334 55 68.001 55c22 0 36.333 -18.333 43 -55l21 -111l23 -88
c10 -28.667 23.667 -45.334 41 -50.001h13c20.667 2 39 12 55 30c18.667 20.667 31 32.834 37 36.501s12.667 5.5 20 5.5c6 0 10.833 -1.66699 14.5 -5s5.5 -10.666 5.5 -21.999c0 -10.667 -19 -30.5 -57 -59.5s-63 -43.5 -75 -43.5c-38.667 0 -70.334 24.333 -95.001 73
c-8 16.667 -17.667 51.334 -29 104.001l-11 74c-4 25.333 -10.333 39 -19 41c-12 0 -25.333 -13.667 -40 -41l-17 -36l-37 -70c-7.33301 -13.333 -12.166 -21.833 -14.499 -25.5s-8.5 -12.834 -18.5 -27.501c-34.667 -52.667 -62.667 -79 -84 -79
c-9.33301 0 -19.666 3 -30.999 9c-9.33301 6 -14 15 -14 27c0 11.333 0.666992 18.333 2 21l2 12l1 16l-1 28v53c0 5.33301 -0.333008 11.833 -1 19.5s-2 16.167 -4 25.5l-5 58v29c0 9.33301 -1.66699 20 -5 32s-8 18.333 -14 19c-14 0 -34.667 -12.333 -62 -37
c-13.333 -12 -24.666 -18 -33.999 -18l-17 6c-6 4 -9 8.66699 -9 14c-0 8 3.33301 15.333 10 22l18 12c10 4.66699 26 18.334 48 41.001c12 12 31.333 18 58 18z" />
    <glyph glyph-name="v" unicode="v" horiz-adv-x="376" 
d="M46 364c15.333 0 26.832 -22.002 34.499 -66.002s13.5 -70 17.5 -78l42 -118c6 -16 13.333 -24.333 22 -25c7.33301 0 14.166 3.33301 20.499 10s12.833 20.334 19.5 41.001v16v16c0 4.66699 2.66699 9.66699 8 15l11 14l9 17l9 26c6 18.667 16 35 30 49
c11.333 10.667 22.333 17 33 19l9 -4l22 -18l24 -9c6 -2 9 -8.66699 9 -20c0 -13.333 -2.33301 -22 -7 -26l-20 -6l-5 1l-8 6c-2.66699 3.33301 -8.33398 6 -17.001 8c-7.33301 0 -14.166 -3.16699 -20.499 -9.5s-9.5 -14.166 -9.5 -23.499v-26l-7 -12l-11 -14l-5 -20
l-3 -20c0 -4 -2.33301 -10.333 -7 -19c-3.33301 -10 -6.66602 -17.167 -9.99902 -21.5s-10.333 -21.833 -21 -52.5c-3.33301 -10.667 -13.666 -16 -30.999 -16c-20 0 -36 5 -48 15c-7.33301 5.33301 -19 21 -35 47l-11 24l-2 24c0 10.667 -1.33301 17.667 -4 21
c-12 16 -22.167 37.833 -30.5 65.5s-15.5 62.834 -21.5 105.501c0 8.66699 -2.33301 17.667 -7 27l-5 18c0 4.66699 2.66699 8.66699 8 12s11.333 5.66602 18 6.99902z" />
    <glyph glyph-name="w" unicode="w" horiz-adv-x="579" 
d="M99 354c4 0 8.00098 -1.00488 12.001 -3.00488s7 -5.66699 9 -11c-7.33301 -9.33301 -14.5 -23.333 -21.5 -42s-10.5 -45.667 -10.5 -81v-53c0 -37.333 3.33301 -65 10 -83c4 -11.333 10.333 -18 19 -20c10.667 0 23.334 10.333 38.001 31l25 53l20 52
c9.33301 17.333 21.666 26 36.999 26c20 0 34.667 -13 44 -39l11 -38l6 -14c7.33301 -17.333 14.333 -30.666 21 -39.999c12.667 -16.667 28.334 -25 47.001 -25c22.667 0 40.667 7.66699 54 23c16.667 18.667 25 47.334 25 86.001l-3 39l-3 40
c0 32.667 4.16699 56.834 12.5 72.501s24.833 30.5 49.5 44.5l42 20c19.333 8 34.333 12 45 12c12 0 22.667 -4 32 -12c4 -5.33301 6 -12 6 -20c0 -5.33301 -3 -9 -9 -11l-33 -3c-8.66699 -1.33301 -22.334 -8 -41.001 -20l-34 -25c-11.333 -10 -17 -21.667 -17 -35l3 -53
l1 -26l-1 -23v-18c0 -59.333 -18 -101.666 -54 -126.999c-24 -14.667 -53 -22 -87 -22c-17.333 0 -37 11.333 -59 34c-19.333 21.333 -33 43 -41 65c-6 20 -12.333 30.333 -19 31l-10 -17l-28 -53c-22 -46 -47.667 -69 -77 -69c-26.667 0 -48.334 18.667 -65.001 56
c-15.333 38.667 -23 90.334 -23 155.001l4 27l5 23v26c2 12.667 8.5 27 19.5 43s23.833 24 38.5 24z" />
    <glyph glyph-name="x" unicode="x" horiz-adv-x="375" 
d="M7 413c20.667 0 36.666 -9.66699 47.999 -29l25 -38l32 -39l13 -21l19 -30l11 -14l13 -22l6 -14l5 -4c6.66699 0 11 0.666992 13 2l17 9l24 11c8 3.33301 15.667 8 23 14l22 20c8 6 17.667 11.667 29 17l32 7l22 12c5.33301 0 11 -2 17 -6c4 -4 7 -10.333 9 -19
c0 -11.333 -7 -22 -21 -32l-33 -13l-10 -6l-15 -4l-16 -4l-21 -12l-23 -13l-21 -6c-8 -4 -12.333 -11.333 -13 -22c0 -10.667 24.667 -49.667 74 -117l32 -42c10.667 -18 16 -34.333 16 -49l-1 -10c-2 -7.33301 -10.333 -14 -25 -20l-16 -3l-12 3c-8 4 -14 13.333 -18 28
l-6 30c-1.33301 6.66699 -4 13 -8 19c-12 23.333 -25 45.333 -39 66c-20 31.333 -36 53.333 -48 66c-28.667 -12 -55 -31 -79 -57c-39.333 -45.333 -61 -69 -65 -71c-6 0 -12 4 -18 12l-7 24c0 8 8.66699 23.667 26 47c15.333 20.667 28.666 35.667 39.999 45
c6 5.33301 17.333 11 34 17s30.334 17.333 41.001 34l-20 30l-19 32l-25 32l-20 32l-42 49c-7.33301 10 -13.666 22 -18.999 36v13c2 6 7.66699 9.33301 17 10z" />
    <glyph glyph-name="y" unicode="y" horiz-adv-x="374" 
d="M342 -27l-15.001 -123c-6 -52 -23 -103 -51 -153c-35.333 -64 -76 -96 -122 -96c-27.333 0 -56.166 9.5 -86.499 28.5s-51.5 44.167 -63.5 75.5c-2 8.66699 -4.33301 14.667 -7 18l-10 13c-8 8 -13 15 -15 21l-5 18l-5 18l-6 18l-9 15c-6 8 -9 14.667 -9 20
c0 10.667 1.66699 20.167 5 28.5s8.33301 12.5 15 12.5c10.667 0 20.667 -3.66699 30 -11c13.333 -10 20 -23 20 -39l-2 -28l2 -13l10 -16l15 -18l18 -31c12.667 -22.667 27.667 -40.834 45 -54.501s33.666 -20.5 48.999 -20.5c32.667 0 63.667 20.667 93 62
c32 44 48 96.333 48 157l2 51l2 44l10 108v34l2 41c0 18 -2.33301 27 -7 27l-9 -6l-27 -26c-6 -4.66699 -16 -9 -30 -13l-24 -5l-14 -6c-15.333 -6.66699 -31.333 -10 -48 -10c-41.333 0 -62 14 -62 42c0 10.667 4.33301 23.667 13 39
c3.33301 4.66699 8.33301 16.334 15 35.001l12 43c0 7.33301 -4.33301 11 -13 11c-6 0 -19 -5 -39 -15c-4.66699 -2 -11.5 -4.66699 -20.5 -8s-14.833 -5.33301 -17.5 -6c-7.33301 0 -15 3 -23 9c-6 6 -9.33301 12.667 -10 20c0 6 9.33301 12.333 28 19l40 15
c6 2 9.33301 3.16699 10 3.5s1.33398 0.833008 2.00098 1.5l80 38c16.667 7.33301 29 11 37 11c4 0 8.66699 -2 14 -6l9 -13l-10 -20l-29 -49c-14.667 -25.333 -27 -56 -37 -92c-2 -6.66699 -2 -12.334 0 -17.001c2 -0.666992 3.66699 -1 5 -1c7.33301 -2.66699 12 -4 14 -4
c15.333 0 30.333 3.66699 45 11c24 10.667 48.333 26.334 73 47.001l11 13l17 27c7.33301 12.667 16.333 19 27 19c6 0 10 -3.66699 12 -11l4 -27l-1 -28l-2 -28l-2 -27l3 -40l3 -42v-43l-4 -24z" />
    <glyph glyph-name="z" unicode="z" horiz-adv-x="368" 
d="M166 378l20.999 4c8.66699 0 18 -9.33301 28 -28s15 -36 15 -52l-5 -12l-4 -11l2 -21c0 -8.66699 -1.66699 -16.667 -5 -24l-5 -22l-1 -22l11 1l20 8c11.333 4 20.333 9 27 15l38 20c18 8 29.667 12 35 12c2.66699 -0.666992 5 -1.66699 7 -3s5.16699 -4 9.5 -8
s7.16602 -9.33301 8.49902 -16c0 -8 -8.66699 -16.333 -26 -25l-25 -10l-20 -7l-11 -6l-11 -11l-13 -7l-21 3c-6.66699 0 -13.667 -2.66699 -21 -8l-21 -11v-31c0 -8 0.333008 -14.333 1 -19s3.33398 -14 8.00098 -28s13.667 -21 27 -21c16.667 0 28.667 1.66699 36 5l19 6
c7.33301 0 13.333 -8.66699 18 -26l4 -19c0 -6 -13 -12.667 -39 -20l-35 -6l-29 -2c-11.333 0 -24 13.333 -38 40c-11.333 26.667 -17 47 -17 61l2 15l-7 14c-4 5.33301 -5.33301 12.666 -4 21.999l-25 -2c-18 0 -33.667 2 -47 6l-22 11l-32 12
c-12 4 -18.333 9.66699 -19 17c0 8.66699 2.83301 18.167 8.5 28.5s12.834 16.5 21.501 18.5c8 0 20.167 -6.83301 36.5 -20.5s33.166 -20.5 50.499 -20.5c12.667 0 26.334 2.33301 41.001 7l1 17v16c0 10.667 1.66699 19.334 5 26.001l7 22v28l1 15l-1 5l-1 3
c-12.667 0 -26 -2.33301 -40 -7l-63 -16l-8 3c-2.66699 2.66699 -5 7.66699 -7 15c0 14 13.333 27.333 40 40z" />
    <glyph glyph-name="braceleft" unicode="{" horiz-adv-x="405" 
d="M364 689c12.667 0 22.168 -2.49902 28.501 -7.49902s9.5 -12.5 9.5 -22.5c0 -6.66699 -8.66699 -13.334 -26 -20.001c-28 -8 -45 -14.333 -51 -19c-16 -9.33301 -29.333 -23 -40 -41s-19 -50 -25 -96l-11 -132c-6 -38 -22.333 -63 -49 -75l-44 -14l-9 -4l-3 -2l16 -7
c10 -2 19.667 -5.33301 29 -10c30 -13.333 45 -43.666 45 -90.999l9 -144c6 -36 17.333 -63.333 34 -82l50 -45c0 -8 -3 -15 -9 -21s-13.333 -9 -22 -9c-43.333 0 -75 25 -95 75c-12 33.333 -18 79.666 -18 138.999v28l1 25c0 10.667 -2 24 -6 40
c-2 14 -6.66699 23.667 -14 29c-6 6 -20 14 -42 24c-34 14 -51 31 -51 51s13.333 35.333 40 46l40 16c24 11.333 39 27.833 45 49.5s9 61.5 9 119.5s15.667 105.833 47 143.5s68.666 56.5 111.999 56.5z" />
    <glyph glyph-name="bar" unicode="|" horiz-adv-x="231" 
d="M122 629l17 2l10 -3c4 -2 6 -9.33301 6 -22l-1 -24v-102l-3 -72l-7 -151l1 -69l2 -42v-32c0 -14.667 7.66699 -29.334 23 -44.001c4.66699 -4.66699 8 -10.667 10 -18c0 -14.667 -4.16699 -27 -12.5 -37s-19.833 -15 -34.5 -15c-14 0 -26.333 19.667 -37 59l-13 64l-2 33
v12v22l1 23l3 86l8 93l-3 63l5 27l2 17c0 29.333 -2.33301 56 -7 80l-2 20l2 10c4 8.66699 14.667 15.334 32 20.001z" />
    <glyph glyph-name="braceright" unicode="}" horiz-adv-x="351" 
d="M41 -153c-12.667 0 -22.1689 2.49902 -28.502 7.49902s-9.5 12.5 -9.5 22.5c0 6.66699 8.66699 13.334 26 20.001c28 8 45 14.333 51 19c16 9.33301 29.333 23.5 40 42.5s18.667 50.5 24 94.5l12 132c6 38 22.333 63 49 75l44 14l8 3l4 3l-17 6l-13 3l-15 8
c-14 6 -25.167 16.667 -33.5 32s-12.5 34.666 -12.5 57.999l-4 72l-4 73c-6 36 -17.333 63.333 -34 82l-50 45c0 8 3 15 9 21s13.333 9 22 9c43.333 0 75 -25 95 -75c12 -33.333 18 -79.666 18 -138.999l-1 -29v-24v-21l6 -23c3.33301 -12 7.83301 -20.833 13.5 -26.5
s19.834 -13.167 42.501 -22.5c34 -14 51 -31 51 -51s-13.333 -35.333 -40 -46l-40 -16c-24 -11.333 -39 -27.833 -45 -49.5s-9 -61.5 -9 -119.5s-15.667 -105.833 -47 -143.5s-68.666 -56.5 -111.999 -56.5z" />
    <glyph glyph-name="nonbreakingspace" unicode="&#xa0;" horiz-adv-x="500" 
 />
    <glyph glyph-name="sterling" unicode="&#xa3;" horiz-adv-x="597" 
d="M233 665c6 5.33301 14.0029 9.00098 24.0029 11.001c12 0 20.5 -1.16699 25.5 -3.5s7.83301 -7.5 8.5 -15.5c0 -8.66699 -6 -22 -18 -40l-15 -18c-6.66699 -9.33301 -13 -25.666 -19 -48.999l-5 -56l2 -25l4 -25l6 -68c40.667 8 69 15.333 85 22l40 13l74 15
c21.333 4 41 6 59 6h19c4 0 7.33301 -2.66699 10 -8l4 -15c0 -18.667 -22.667 -33.334 -68 -44.001l-101 -15l-19 -4l-23 -7l-75 -22l9 -48l2 -41v-28l1 -19l1 -20c0 -12.667 -1.66699 -23.334 -5 -32.001l-10 -29l-4 -22c0 -6 6 -9 18 -9l32 3l34 3l62 2l36 -4l35 -4
c26 0 52.5 5.66699 79.5 17s48.833 24.666 65.5 39.999l17 16c6 6 13 9 21 9l12 -3l9 -5c4 -4 6.33301 -10.667 7 -20c0 -28 -27 -55 -81 -81c-51.333 -22.667 -98.666 -34 -141.999 -34c-13.333 0 -39 3.33301 -77 10c-24 4 -43.333 6 -58 6l-33 -1l-40 -6l-18 -3l-30 -7
l-46 -7c-21.333 0 -32 8.66699 -32 26c0 10 9 23.667 27 41l46 40c4 4.66699 7.66699 13 11 25l3 23l-1 20l-1 21v18v14l-2 13l-8 61l-86 -23.5l-97.5 -29c-35.667 -11 -58.167 -16.5 -67.5 -16.5c-6.66699 0 -12.334 6.66699 -17.001 20l-4 43c0 5.33301 6.66699 8 20 8
l20 -1l20 -1c11.333 0 21.666 2.33301 30.999 7l27 13l31 3c8.66699 0.666992 14.667 1.33398 18 2.00098s11.166 2.66699 23.499 6s37.166 12.333 74.499 27l-7 65l-4 79c0 24 6 53.333 18 88s26 59 42 73z" />
    <glyph glyph-name="sterling" unicode="&#x408;" horiz-adv-x="597" 
d="M233 665c6 5.33301 14.0029 9.00098 24.0029 11.001c12 0 20.5 -1.16699 25.5 -3.5s7.83301 -7.5 8.5 -15.5c0 -8.66699 -6 -22 -18 -40l-15 -18c-6.66699 -9.33301 -13 -25.666 -19 -48.999l-5 -56l2 -25l4 -25l6 -68c40.667 8 69 15.333 85 22l40 13l74 15
c21.333 4 41 6 59 6h19c4 0 7.33301 -2.66699 10 -8l4 -15c0 -18.667 -22.667 -33.334 -68 -44.001l-101 -15l-19 -4l-23 -7l-75 -22l9 -48l2 -41v-28l1 -19l1 -20c0 -12.667 -1.66699 -23.334 -5 -32.001l-10 -29l-4 -22c0 -6 6 -9 18 -9l32 3l34 3l62 2l36 -4l35 -4
c26 0 52.5 5.66699 79.5 17s48.833 24.666 65.5 39.999l17 16c6 6 13 9 21 9l12 -3l9 -5c4 -4 6.33301 -10.667 7 -20c0 -28 -27 -55 -81 -81c-51.333 -22.667 -98.666 -34 -141.999 -34c-13.333 0 -39 3.33301 -77 10c-24 4 -43.333 6 -58 6l-33 -1l-40 -6l-18 -3l-30 -7
l-46 -7c-21.333 0 -32 8.66699 -32 26c0 10 9 23.667 27 41l46 40c4 4.66699 7.66699 13 11 25l3 23l-1 20l-1 21v18v14l-2 13l-8 61l-86 -23.5l-97.5 -29c-35.667 -11 -58.167 -16.5 -67.5 -16.5c-6.66699 0 -12.334 6.66699 -17.001 20l-4 43c0 5.33301 6.66699 8 20 8
l20 -1l20 -1c11.333 0 21.666 2.33301 30.999 7l27 13l31 3c8.66699 0.666992 14.667 1.33398 18 2.00098s11.166 2.66699 23.499 6s37.166 12.333 74.499 27l-7 65l-4 79c0 24 6 53.333 18 88s26 59 42 73z" />
    <glyph glyph-name="brokenbar" unicode="&#xa6;" horiz-adv-x="219" 
d="M99 62c10.667 0 19.667 -3.66699 27 -11c8.66699 -6.66699 13 -18 13 -34c0 -10.667 -3.83301 -19 -11.5 -25s-18.5 -9 -32.5 -9c-14.667 0 -25 4 -31 12c-4 8 -6 20.667 -6 38c0 6 4 11.833 12 17.5s17.667 9.5 29 11.5zM155 357c13.333 0 21.667 -0.666016 25 -1.99902
c5.33301 0 9.33301 -2.66699 12 -8l4 -14l-3 -18c-4 -10.667 -9.33301 -19.334 -16 -26.001c-6 -4 -13.333 -6 -22 -6c-12 0 -21.667 2.66699 -29 8c-6 6 -10 14.667 -12 26c0 12 3.66699 21.667 11 29s17.333 11 30 11z" />
    <glyph glyph-name="section" unicode="&#xa7;" horiz-adv-x="454" 
d="M206 68l54.999 -52.001c24.667 -24.667 46.334 -54.667 65.001 -90c10.667 -26.667 16 -48 16 -64c0 -36.667 -18 -63 -54 -79c-22.667 -9.33301 -54.667 -14 -96 -14l-17 1h-14c-12 0 -28 10 -48 30s-30 36.667 -30 50c0 6 1.33301 12.333 4 19
s8.33398 10.334 17.001 11.001c6 0 15.667 -5 29 -15l25 -31c12 -13.333 24.667 -20 38 -20c24 0 43 3.66699 57 11c21.333 10 32 24.333 32 43c0 12 -4.33301 25.667 -13 41c-11.333 22 -29.666 47 -54.999 75l-86 82c-67.333 63.333 -101 124 -101 182
c0 66 19.667 113.667 59 143c24.667 17.333 53 26 85 26c9.33301 0 17.333 -3 24 -9s11 -13.333 13 -22c0 -12.667 -7.33301 -21.334 -22 -26.001c-18.667 0 -34.667 -1.66699 -48 -5c-10.667 0 -23.334 -10.667 -38.001 -32c-12.667 -22 -19 -47.667 -19 -77
c0 -30 12.333 -57.667 37 -83c28.667 -28.667 65 -43 109 -43c29.333 0 55.5 9.16699 78.5 27.5s34.5 40.5 34.5 66.5c0 50.667 -24.333 105.667 -73 165c-11.333 14.667 -37.666 42.334 -78.999 83.001l-63 60c-18 22 -27 51.333 -27 88c0 22 8 41 24 57
c8.66699 8.66699 21.667 16.334 39 23.001c8 2.66699 16.5 4.66699 25.5 6s19.833 2 32.5 2c22.667 0 49.334 -6.66699 80.001 -20c37.333 -16 56 -32.667 56 -50c0 -6.66699 -1.66699 -12.667 -5 -18c-2 -6 -5.33301 -9 -10 -9c-11.333 0 -28.333 8.33301 -51 25
s-50.667 25 -84 25c-12 0 -23.333 -4.33301 -34 -13s-16 -20.334 -16 -35.001c0 -20.667 23.333 -54.667 70 -102l93 -99c29.333 -33.333 51.666 -69.333 66.999 -108c10 -26 15 -53 15 -81c0 -48 -14.333 -83.333 -43 -106c-12.667 -9.33301 -35.334 -19.333 -68.001 -30
l-30 -10l-27 -4c-10.667 0 -20.334 1.66699 -29.001 5z" />
    <glyph glyph-name="copyright" unicode="&#xa9;" horiz-adv-x="800" 
d="M371 493c19.333 0 38.3291 -3.83203 56.9961 -11.499s28 -20.167 28 -37.5c0 -7.33301 -2.33301 -13 -7 -17c-4 -2 -11 -3 -21 -3l-28 9c-14 6 -26.667 9 -38 9c-7.33301 0 -16.166 -4.16699 -26.499 -12.5s-17.5 -16.333 -21.5 -24s-8 -22.167 -12 -43.5
s-6 -37.333 -6 -48c0 -24.667 7.33301 -44.667 22 -60c18 -20 45.667 -30 83 -30c12.667 0 24.334 1 35.001 3s21.334 5.66699 32.001 11c19.333 10 41 25.333 65 46l15 17c11.333 13.333 20 21.333 26 24c6 2 12.333 2 19 0c8 -4 12.333 -10.333 13 -19
c0 -10 -4.33301 -20.333 -13 -31c-2.66699 -4 -11 -11.667 -25 -23l-67 -60c-21.333 -15.333 -50.666 -23 -87.999 -23c-49.333 0 -90 13.667 -122 41s-48 64 -48 110s9 83 27 111c11.333 17.333 26 31.666 44 42.999l29 13c10 4 19.333 6 28 6zM49.9961 348.001
c0 103.333 41 189.999 123 259.999c72 60 151 90 237 90c82 0 156.667 -27.333 224 -82c77.333 -63.333 116 -144.666 116 -243.999c0 -105.333 -33.667 -194 -101 -266s-148 -108 -242 -108c-43.333 0 -83.5 6.16699 -120.5 18.5s-73.167 32.833 -108.5 61.5
c-85.333 66 -128 156 -128 270zM112.996 346c0 -89.333 36.334 -162.001 109.001 -218.001c61.333 -46 129.666 -69 204.999 -69c70 0 132 34 186 102c48.667 62.667 73 127.667 73 195c0 76.667 -28.667 142.834 -86 198.501s-123.333 83.5 -198 83.5
c-69.333 0 -133 -24 -191 -72c-65.333 -56 -98 -129.333 -98 -220z" />
    <glyph glyph-name="guillemotleft" unicode="&#xab;" horiz-adv-x="425" 
d="M184 395c7.33301 0 14.334 -2.33301 21.001 -7s10 -10 10 -16c0 -4.66699 -8.66699 -20.334 -26 -47.001l-43 -62l-13 -16c-4 -4 -6 -8.66699 -6 -14c0 -6 4.33301 -14.333 13 -25l46 -46l38 -32c18 -16 27 -28.667 27 -38c0 -4 -1.83301 -7.83301 -5.5 -11.5
s-9.16699 -6.5 -16.5 -8.5c-16.667 0 -46.834 22.167 -90.501 66.5s-65.5 72.833 -65.5 85.5c0 14.667 15 46.834 45 96.501s52 74.5 66 74.5zM307.001 346l13 -3c8 -4 12.333 -10.333 13 -19c0 -6 -4 -15.667 -12 -29l-21 -32l-12 -15c-4 -4 -6 -8.66699 -6 -14
c0 -6 3 -13 9 -21l12 -14l20 -19l32 -27c9.33301 -8 15 -16.333 17 -25c0 -14.667 -4 -23 -12 -25c-4.66699 0 -13 4 -25 12l-25 18l-20 7c-3.33301 0.666992 -9 5.66699 -17 15l-13 18l-26 31c-4 5.33301 -6.33301 12 -7 20c0 17.333 9.66699 42 29 74s36.333 48 51 48z
" />
    <glyph glyph-name="registered" unicode="&#xae;" horiz-adv-x="799" 
d="M278 521l-15.999 10.0039c-6 4 -9 8.66699 -9 14c0 12 9.33301 20.333 28 25l29 5l35 2c90 0 153 -15 189 -45c18.667 -16.667 28 -36.334 28 -59.001c0 -24 -11.333 -46 -34 -66c-5.33301 -4.66699 -11.833 -9.33398 -19.5 -14.001s-18.834 -11 -33.501 -19l-52 -26
l-30 -11l-29 -9l-20 -10c10 -8 23 -16.167 39 -24.5s34 -16.833 54 -25.5c44 -14.667 75.333 -22 94 -22c12 0 24 4 36 12c6 4 11.333 6 16 6c4 0 7.33301 -2.33301 10 -7l6 -17c0 -14.667 -6.33301 -26.334 -19 -35.001c-14.667 -6.66699 -33.667 -10 -57 -10
c-28 0 -64.667 8.33301 -110 25c-52.667 19.333 -90.667 41.666 -114 66.999l-6 -49l-3 -39v-23c-4 -11.333 -14 -17 -30 -17c-4 0 -9 3 -15 9l-7 19l4 22l4 21l-1 40l2 13l3 11l-1 39c0 26 2.33301 54 7 84l9 49zM335.001 527.004
c-8 -37.333 -15.001 -64.334 -21.001 -81.001s-9 -46 -9 -88l22 7l34 14l35 15l41 21l24 13l20 14c13.333 10.667 21 21.334 23 32.001c0 20 -23 35 -69 45c-15.333 2.66699 -30.666 4.66699 -45.999 6s-33.333 2 -54 2zM51 372.003c0 66.667 17.998 123.999 53.998 171.999
c28.667 37.333 76 73 142 107l41 17l44 14l43 9l45 3c66 0 127.667 -18.333 185 -55c50.667 -33.333 90 -77.333 118 -132c19.333 -38.667 29 -83.667 29 -135c0 -36.667 -5.33301 -73.334 -16 -110.001c-5.33301 -20 -11.666 -37.833 -18.999 -53.5
s-17.666 -33.167 -30.999 -52.5c-36 -56 -82 -98 -138 -126c-44 -22 -89.333 -33 -136 -33c-60 0 -121.833 17.833 -185.5 53.5s-110.5 79.834 -140.5 132.501c-14 22.667 -23.333 50.334 -28 83.001l-5 49zM113.998 366.002c0 -42.667 2.16895 -74.167 6.50195 -94.5
s11.833 -39.166 22.5 -56.499c19.333 -34 59.5 -69.167 120.5 -105.5s112.5 -54.5 154.5 -54.5c49.333 0 94.666 17.333 135.999 52c12 10 24.333 22.333 37 37c10 12 23.167 30.167 39.5 54.5s30 51.666 41 81.999s16.5 59.5 16.5 87.5c0 17.333 -2 34.5 -6 51.5
s-11 36.167 -21 57.5c-22.667 42.667 -55.334 78.667 -98.001 108c-50 34 -103.333 51 -160 51c-41.333 0 -84 -10.333 -128 -31c-107.333 -52 -161 -131.667 -161 -239z" />
    <glyph glyph-name="periodcentered" unicode="&#xb7;" horiz-adv-x="228" 
d="M121 226c14 0 24.667 -6 32 -18c3.33301 -8.66699 5 -18.667 5 -30c0 -6 -2.33301 -12.667 -7 -20l-9 -12h-22c-18.667 2 -28.667 3.66699 -30 5c-13.333 5.33301 -20 15 -20 29c0 10 4.5 20.167 13.5 30.5s21.5 15.5 37.5 15.5z" />
    <glyph glyph-name="periodcentered" unicode="&#x2219;" horiz-adv-x="228" 
d="M121 226c14 0 24.667 -6 32 -18c3.33301 -8.66699 5 -18.667 5 -30c0 -6 -2.33301 -12.667 -7 -20l-9 -12h-22c-18.667 2 -28.667 3.66699 -30 5c-13.333 5.33301 -20 15 -20 29c0 10 4.5 20.167 13.5 30.5s21.5 15.5 37.5 15.5z" />
    <glyph glyph-name="onesuperior" unicode="&#xb9;" horiz-adv-x="228" 
d="M121 226c14 0 24.667 -6 32 -18c3.33301 -8.66699 5 -18.667 5 -30c0 -6 -2.33301 -12.667 -7 -20l-9 -12h-22c-18.667 2 -28.667 3.66699 -30 5c-13.333 5.33301 -20 15 -20 29c0 10 4.5 20.167 13.5 30.5s21.5 15.5 37.5 15.5z" />
    <glyph glyph-name="onesuperior" unicode="&#x2116;" horiz-adv-x="228" 
d="M121 226c14 0 24.667 -6 32 -18c3.33301 -8.66699 5 -18.667 5 -30c0 -6 -2.33301 -12.667 -7 -20l-9 -12h-22c-18.667 2 -28.667 3.66699 -30 5c-13.333 5.33301 -20 15 -20 29c0 10 4.5 20.167 13.5 30.5s21.5 15.5 37.5 15.5z" />
    <glyph glyph-name="ordmasculine" unicode="&#xba;" horiz-adv-x="386" 
d="M66 559c0 18 3.00098 32.002 9.00098 42.002l29 40c15.333 21.333 31.166 36.666 47.499 45.999s34.5 14 54.5 14c16 0 36 -8 60 -24s41 -30.667 51 -44l17 -42l7 -23l4 -17c0 -38.667 -12.333 -69.334 -37 -92.001c-24.667 -20.667 -58 -31 -100 -31
c-14 0 -24.667 1.66699 -32 5l-18 8l-12 8l-33 15c-31.333 20 -47 51.667 -47 95zM114.001 555.002c0 -14 4.99902 -26.002 14.999 -36.002l29 -17l25 -11c11.333 -3.33301 23.333 -5 36 -5c20.667 0 37.834 4.83301 51.501 14.5s20.5 22.167 20.5 37.5
c0 8.66699 -0.333008 15 -1 19s-3 11.333 -7 22c-4 14.667 -10 26 -18 34c-3.33301 3.33301 -9 7.83301 -17 13.5s-14.333 9.83398 -19 12.501l-22 7c-24 0 -45.667 -10.667 -65 -32l-16 -22c-8 -13.333 -12 -25.666 -12 -36.999z" />
    <glyph glyph-name="ordmasculine" unicode="&#x454;" horiz-adv-x="386" 
d="M66 559c0 18 3.00098 32.002 9.00098 42.002l29 40c15.333 21.333 31.166 36.666 47.499 45.999s34.5 14 54.5 14c16 0 36 -8 60 -24s41 -30.667 51 -44l17 -42l7 -23l4 -17c0 -38.667 -12.333 -69.334 -37 -92.001c-24.667 -20.667 -58 -31 -100 -31
c-14 0 -24.667 1.66699 -32 5l-18 8l-12 8l-33 15c-31.333 20 -47 51.667 -47 95zM114.001 555.002c0 -14 4.99902 -26.002 14.999 -36.002l29 -17l25 -11c11.333 -3.33301 23.333 -5 36 -5c20.667 0 37.834 4.83301 51.501 14.5s20.5 22.167 20.5 37.5
c0 8.66699 -0.333008 15 -1 19s-3 11.333 -7 22c-4 14.667 -10 26 -18 34c-3.33301 3.33301 -9 7.83301 -17 13.5s-14.333 9.83398 -19 12.501l-22 7c-24 0 -45.667 -10.667 -65 -32l-16 -22c-8 -13.333 -12 -25.666 -12 -36.999z" />
    <glyph glyph-name="guillemotright" unicode="&#xbb;" horiz-adv-x="402" 
d="M234 149l40 55l15 17c4 4 6.33301 8.33301 7 13c0 6 -8.33301 19.333 -25 40l-54 58c-20 20 -30 34.333 -30 43c0 4 2 7.83301 6 11.5s10 6.5 18 8.5c18.667 0 46.667 -21.667 84 -65s56 -72.333 56 -87c0 -10 -5 -24 -15 -42c-4 -6.66699 -12.833 -19.5 -26.5 -38.5
l-44.5 -60.5l-17 -20c-8.66699 -6.66699 -17 -10 -25 -10c-5.33301 0 -12 2 -20 6c-6 4 -9 9.66699 -9 17c0.666992 2 1.66699 4.16699 3 6.5s3.33301 5.5 6 9.5zM105 121c-4.66699 0 -9.33496 2.00098 -14.002 6.00098s-8 9.33301 -10 16c0 6 5 16 15 30l24 31l17 18l5 11
c0 6.66699 -3.66699 15.167 -11 25.5s-22.666 26.166 -45.999 47.499c-14.667 14.667 -22 25.667 -22 33c0 4 1.66699 7.66699 5 11c6 6 12.667 9.33301 20 10c8.66699 0 20.834 -5.5 36.501 -16.5s27.5 -22.833 35.5 -35.5l25 -35c8 -12 12 -22 12 -30
c0 -15.333 -11.667 -39.5 -35 -72.5s-42.333 -49.5 -57 -49.5z" />
    <glyph glyph-name="Agrave" unicode="&#xc0;" horiz-adv-x="581" 
d="M315 694c5.33301 0 12.998 -2.33301 22.998 -7l24 -9l15 -2l18 1l20 2c6 0 10.167 -1.16699 12.5 -3.5s4.5 -9.16602 6.5 -20.499l-1 -19l-1 -21l3 -31l2 -13c0 -4 2 -10 6 -18l8 -76c0 -22 5.33301 -37 16 -45l38 -12c10 -2 15 -10 15 -24c0 -8 -5.33301 -17 -16 -27
c-10.667 -8.66699 -22 -13 -34 -13v-27l2 -28c0 -4.66699 0.333008 -8.83398 1 -12.501s2 -8.5 4 -14.5l9 -29l11 -37l8 -31l4 -32c2 -14.667 5.66699 -25 11 -31l19 -22c8 -9.33301 12 -17 12 -23c0 -12.667 -3.66699 -26.667 -11 -42c-6 -16 -12.333 -24.333 -19 -25
c-6 0 -10.667 0.5 -14 1.5s-8 3.16699 -14 6.5c-9.33301 6 -15.333 12.667 -18 20l-4 21l1 18c0 9.33301 0.666992 15.666 2 18.999c0 8.66699 -1.33301 18 -4 28s-5 18.333 -7 25l-13 44c0 4 -2.33301 10.667 -7 20c-6 17.333 -12 42.666 -18 75.999
c-2 18.667 -6.66699 29.334 -14 32.001h-12h-16l-14 1c-7.33301 0 -12.666 -0.666992 -15.999 -2c-4 0 -9.66699 -2.66699 -17 -8l-34 -25c-8 -4.66699 -34.667 -9.66699 -80 -15s-71.333 -37 -78 -95l-1 -15v-15l1 -15c0 -12 -0.666992 -21 -2 -27
s-4.66602 -15 -9.99902 -27l-29 -78c-10 -32 -20.333 -48 -31 -48c-17.333 0 -29.5 3.33301 -36.5 10s-10.5 17 -10.5 31c0 14.667 4.33301 33 13 55l24 69l11 44l5 38v10c0 4 -2.33301 9.66699 -7 17l-8 14l-4 20c0 6.66699 1.66699 12.834 5 18.501s12.333 11.5 27 17.5
l33 14c14 10 25.333 29.333 34 58l24 85l50 157c4 12.667 20.333 34.667 49 66l17 18c4 3.33301 9.66699 6 17 8zM339.998 617c-12 0 -22 -5.33301 -30 -16l-13 -29l-11 -44l-31 -63l-4 -30c-1.33301 -4.66699 -4.66602 -10.667 -9.99902 -18l-12 -19l-17 -36l-19 -40
c9.33301 -4 16.333 -6 21 -6c6.66699 0 14 2.66699 22 8l37 20l56 15c23.333 6 48.666 20.667 75.999 44l-6 47l-8 36l-5 44c0 23.333 -2 42 -6 56c-6 20.667 -19.333 31 -40 31z" />
    <glyph glyph-name="Agrave" unicode="&#x410;" horiz-adv-x="581" 
d="M315 694c5.33301 0 12.998 -2.33301 22.998 -7l24 -9l15 -2l18 1l20 2c6 0 10.167 -1.16699 12.5 -3.5s4.5 -9.16602 6.5 -20.499l-1 -19l-1 -21l3 -31l2 -13c0 -4 2 -10 6 -18l8 -76c0 -22 5.33301 -37 16 -45l38 -12c10 -2 15 -10 15 -24c0 -8 -5.33301 -17 -16 -27
c-10.667 -8.66699 -22 -13 -34 -13v-27l2 -28c0 -4.66699 0.333008 -8.83398 1 -12.501s2 -8.5 4 -14.5l9 -29l11 -37l8 -31l4 -32c2 -14.667 5.66699 -25 11 -31l19 -22c8 -9.33301 12 -17 12 -23c0 -12.667 -3.66699 -26.667 -11 -42c-6 -16 -12.333 -24.333 -19 -25
c-6 0 -10.667 0.5 -14 1.5s-8 3.16699 -14 6.5c-9.33301 6 -15.333 12.667 -18 20l-4 21l1 18c0 9.33301 0.666992 15.666 2 18.999c0 8.66699 -1.33301 18 -4 28s-5 18.333 -7 25l-13 44c0 4 -2.33301 10.667 -7 20c-6 17.333 -12 42.666 -18 75.999
c-2 18.667 -6.66699 29.334 -14 32.001h-12h-16l-14 1c-7.33301 0 -12.666 -0.666992 -15.999 -2c-4 0 -9.66699 -2.66699 -17 -8l-34 -25c-8 -4.66699 -34.667 -9.66699 -80 -15s-71.333 -37 -78 -95l-1 -15v-15l1 -15c0 -12 -0.666992 -21 -2 -27
s-4.66602 -15 -9.99902 -27l-29 -78c-10 -32 -20.333 -48 -31 -48c-17.333 0 -29.5 3.33301 -36.5 10s-10.5 17 -10.5 31c0 14.667 4.33301 33 13 55l24 69l11 44l5 38v10c0 4 -2.33301 9.66699 -7 17l-8 14l-4 20c0 6.66699 1.66699 12.834 5 18.501s12.333 11.5 27 17.5
l33 14c14 10 25.333 29.333 34 58l24 85l50 157c4 12.667 20.333 34.667 49 66l17 18c4 3.33301 9.66699 6 17 8zM339.998 617c-12 0 -22 -5.33301 -30 -16l-13 -29l-11 -44l-31 -63l-4 -30c-1.33301 -4.66699 -4.66602 -10.667 -9.99902 -18l-12 -19l-17 -36l-19 -40
c9.33301 -4 16.333 -6 21 -6c6.66699 0 14 2.66699 22 8l37 20l56 15c23.333 6 48.666 20.667 75.999 44l-6 47l-8 36l-5 44c0 23.333 -2 42 -6 56c-6 20.667 -19.333 31 -40 31z" />
    <glyph glyph-name="Aacute" unicode="&#xc1;" horiz-adv-x="655" 
d="M255 796c6.66699 0 12.665 -2.66504 17.998 -7.99805c6 -4 9 -9.33301 9 -16v-16l-4 -15l-6 -28l102 7l112 3l56 -1l25 3l36 4c7.33301 0 12.833 -2.16699 16.5 -6.5s5.5 -14.5 5.5 -30.5c0 -13.333 -4.33301 -23 -13 -29c-4 -2 -13 -3 -27 -3l-27 1l-43 4h-60
c-27.333 0 -61.666 -2 -102.999 -6l-89 -11c0 -16 -1.33301 -33 -4 -51l-7 -51c-4 -30 -6 -69 -6 -117l29 5l28 1l26 -1l26 -1c38.667 0 67 -2 85 -6c7.33301 -0.666992 17.833 -4.33398 31.5 -11.001s29.5 -16.667 47.5 -30c26 -18 44.333 -34.667 55 -50
c18 -26 27 -62 27 -108c0 -60 -21.333 -111.667 -64 -155c-18 -18 -53.667 -42.333 -107 -73c-45.333 -26 -81 -43.333 -107 -52c-16.667 -5.33301 -30.834 -8.83301 -42.501 -10.5s-23.167 -2.5 -34.5 -2.5c-22.667 0 -47.667 3.33301 -75 10c-28.667 6 -52 16.667 -70 32
c-6.66699 4.66699 -12 9.66699 -16 15s-6 11 -6 17c0 8 3.16699 15.167 9.5 21.5s14.833 10.5 25.5 12.5c20.667 0 37 -6.83301 49 -20.5s30.333 -20.5 55 -20.5l36 1l24 3l23 5c51.333 8 103 34 155 78c56 47.333 84 95.333 84 144c0 40 -18 74 -54 102
c-38 30 -89 45 -153 45c-24 0 -52.667 -3 -86 -9v-52l1 -42v-17l-1 -9l-4 -28l-1 -20c0 -8.66699 2.66699 -18 8 -28c12 -24 18 -39.667 18 -47c0 -22.667 -5.33301 -39.334 -16 -50.001c-8.66699 -6.66699 -21 -10 -37 -10c-3.33301 0 -8 3 -14 9l-5 19l4 12l4 11
c-0.666992 2 -1.16699 3.83301 -1.5 5.5s-1.83301 4.16699 -4.5 7.5l-10 14c-3.33301 4.66699 -6 13 -8 25c0 8.66699 1.33301 16.667 4 24c8 26 12 42.333 12 49l-3 37l-3 38l3 175l3 81c0 12.667 0.333008 22 1 28s3.66699 19.333 9 40
c-41.333 0 -91.333 -7.66699 -150 -23c-32 -8 -62.333 -12 -91 -12l-10 1l-9 3l-6 -1l8 -5l5 -2l2 -2l-4 -9l-11 -5c-13.333 0 -26.666 3.33301 -39.999 10s-21 16 -23 28c0 24 18.667 40.333 56 49c25.333 5.33301 62 8 110 8c18.667 0 44.334 3.33301 77.001 10l91 16
l16 72c4 10 13.333 15 28 15z" />
    <glyph glyph-name="Aacute" unicode="&#x411;" horiz-adv-x="655" 
d="M255 796c6.66699 0 12.665 -2.66504 17.998 -7.99805c6 -4 9 -9.33301 9 -16v-16l-4 -15l-6 -28l102 7l112 3l56 -1l25 3l36 4c7.33301 0 12.833 -2.16699 16.5 -6.5s5.5 -14.5 5.5 -30.5c0 -13.333 -4.33301 -23 -13 -29c-4 -2 -13 -3 -27 -3l-27 1l-43 4h-60
c-27.333 0 -61.666 -2 -102.999 -6l-89 -11c0 -16 -1.33301 -33 -4 -51l-7 -51c-4 -30 -6 -69 -6 -117l29 5l28 1l26 -1l26 -1c38.667 0 67 -2 85 -6c7.33301 -0.666992 17.833 -4.33398 31.5 -11.001s29.5 -16.667 47.5 -30c26 -18 44.333 -34.667 55 -50
c18 -26 27 -62 27 -108c0 -60 -21.333 -111.667 -64 -155c-18 -18 -53.667 -42.333 -107 -73c-45.333 -26 -81 -43.333 -107 -52c-16.667 -5.33301 -30.834 -8.83301 -42.501 -10.5s-23.167 -2.5 -34.5 -2.5c-22.667 0 -47.667 3.33301 -75 10c-28.667 6 -52 16.667 -70 32
c-6.66699 4.66699 -12 9.66699 -16 15s-6 11 -6 17c0 8 3.16699 15.167 9.5 21.5s14.833 10.5 25.5 12.5c20.667 0 37 -6.83301 49 -20.5s30.333 -20.5 55 -20.5l36 1l24 3l23 5c51.333 8 103 34 155 78c56 47.333 84 95.333 84 144c0 40 -18 74 -54 102
c-38 30 -89 45 -153 45c-24 0 -52.667 -3 -86 -9v-52l1 -42v-17l-1 -9l-4 -28l-1 -20c0 -8.66699 2.66699 -18 8 -28c12 -24 18 -39.667 18 -47c0 -22.667 -5.33301 -39.334 -16 -50.001c-8.66699 -6.66699 -21 -10 -37 -10c-3.33301 0 -8 3 -14 9l-5 19l4 12l4 11
c-0.666992 2 -1.16699 3.83301 -1.5 5.5s-1.83301 4.16699 -4.5 7.5l-10 14c-3.33301 4.66699 -6 13 -8 25c0 8.66699 1.33301 16.667 4 24c8 26 12 42.333 12 49l-3 37l-3 38l3 175l3 81c0 12.667 0.333008 22 1 28s3.66699 19.333 9 40
c-41.333 0 -91.333 -7.66699 -150 -23c-32 -8 -62.333 -12 -91 -12l-10 1l-9 3l-6 -1l8 -5l5 -2l2 -2l-4 -9l-11 -5c-13.333 0 -26.666 3.33301 -39.999 10s-21 16 -23 28c0 24 18.667 40.333 56 49c25.333 5.33301 62 8 110 8c18.667 0 44.334 3.33301 77.001 10l91 16
l16 72c4 10 13.333 15 28 15z" />
    <glyph glyph-name="Acircumflex" unicode="&#xc2;" horiz-adv-x="599" 
d="M290 252l-3.00293 -93.0029c0 -10.667 4.33301 -18.334 13 -23.001c8 -2 12.333 -6.66699 13 -14l-2 -9l-4 -17c-2 -7.33301 -6 -13.166 -12 -17.499s-16.333 -6.5 -31 -6.5c-4 0 -8.33301 2.33301 -13 7l-4 17l4 11l4 12c0 7.33301 -5.16699 14.5 -15.5 21.5
s-16.5 16.167 -18.5 27.5c0 12 4.33301 22.167 13 30.5s13 23.5 13 45.5l-3 44l-3 37l6 58l-38 28c-17.333 14 -27 26 -29 36c0 8.66699 6 19.334 18 32.001s28.333 24 49 34c0 54.667 3.66699 99.334 11 134.001l-56 4l-54 -4l-55 -3h-72c-22 0 -37 -4 -45 -12
s-16.333 -12.667 -25 -14c-12 0 -24.167 3.16699 -36.5 9.5s-19.5 14.5 -21.5 24.5c0 12 10 23 30 33c28.667 13.333 72.667 20 132 20l35 -3l35 -3l65 3l71 3l8 48c4 26 15 39 33 39c5.33301 0 10 -1.83301 14 -5.5s7 -8.83398 9 -15.501c0 -13.333 -1.66699 -26 -5 -38
l-9 -34l70 -16c30 -8 45 -29.667 45 -65c0 -18 -8 -38.667 -24 -62c-9.33301 -13.333 -22.333 -25.666 -39 -36.999l-44 -27c-19.333 -14 -29 -29 -29 -45c0 -6 11.333 -15.333 34 -28l45 -22c68 -36 114.667 -64.667 140 -86c40 -35.333 60 -76.333 60 -123
c0 -28 -11.333 -61.333 -34 -100c-26 -43.333 -58.333 -77.333 -97 -102l-32 -17c-9.33301 -4.66699 -24 -10 -44 -16c-4.66699 -1.33301 -18 -4 -40 -8l-32 -6l-27 -2l-16 2c-30 6 -61.167 24.5 -93.5 55.5s-48.5 56.167 -48.5 75.5c0 4.66699 1.33301 8.66699 4 12l8 12
l4 15l-2 18v21c2 10 9.83301 24.667 23.5 44s22.834 30.333 27.501 33l14 4c4.66699 0 9.5 -1.33301 14.5 -4s9.5 -9 13.5 -19v-15c0 -4.66699 -4 -12 -12 -22l-15 -19l-11 -15c-4 -5.33301 -6 -10.666 -6 -15.999c0 -30 3 -52 9 -66c15.333 -33.333 47.333 -50 96 -50
c30.667 0 53.5 2.66699 68.5 8s33.5 15.333 55.5 30c40.667 28.667 68.834 53 84.501 73s23.5 42 23.5 66c0 31.333 -9.33301 57.333 -28 78c-11.333 12 -29.666 25.333 -54.999 40l-49 27c-20 10 -46.667 18.667 -80 26l-4 -53v-23zM303.997 646.997l-8 -59.998l-3 -54
l55 46c6.66699 7.33301 11 14.666 13 21.999c0 11.333 -4 20.666 -12 27.999c-8 6 -23 12 -45 18z" />
    <glyph glyph-name="Acircumflex" unicode="&#x412;" horiz-adv-x="599" 
d="M290 252l-3.00293 -93.0029c0 -10.667 4.33301 -18.334 13 -23.001c8 -2 12.333 -6.66699 13 -14l-2 -9l-4 -17c-2 -7.33301 -6 -13.166 -12 -17.499s-16.333 -6.5 -31 -6.5c-4 0 -8.33301 2.33301 -13 7l-4 17l4 11l4 12c0 7.33301 -5.16699 14.5 -15.5 21.5
s-16.5 16.167 -18.5 27.5c0 12 4.33301 22.167 13 30.5s13 23.5 13 45.5l-3 44l-3 37l6 58l-38 28c-17.333 14 -27 26 -29 36c0 8.66699 6 19.334 18 32.001s28.333 24 49 34c0 54.667 3.66699 99.334 11 134.001l-56 4l-54 -4l-55 -3h-72c-22 0 -37 -4 -45 -12
s-16.333 -12.667 -25 -14c-12 0 -24.167 3.16699 -36.5 9.5s-19.5 14.5 -21.5 24.5c0 12 10 23 30 33c28.667 13.333 72.667 20 132 20l35 -3l35 -3l65 3l71 3l8 48c4 26 15 39 33 39c5.33301 0 10 -1.83301 14 -5.5s7 -8.83398 9 -15.501c0 -13.333 -1.66699 -26 -5 -38
l-9 -34l70 -16c30 -8 45 -29.667 45 -65c0 -18 -8 -38.667 -24 -62c-9.33301 -13.333 -22.333 -25.666 -39 -36.999l-44 -27c-19.333 -14 -29 -29 -29 -45c0 -6 11.333 -15.333 34 -28l45 -22c68 -36 114.667 -64.667 140 -86c40 -35.333 60 -76.333 60 -123
c0 -28 -11.333 -61.333 -34 -100c-26 -43.333 -58.333 -77.333 -97 -102l-32 -17c-9.33301 -4.66699 -24 -10 -44 -16c-4.66699 -1.33301 -18 -4 -40 -8l-32 -6l-27 -2l-16 2c-30 6 -61.167 24.5 -93.5 55.5s-48.5 56.167 -48.5 75.5c0 4.66699 1.33301 8.66699 4 12l8 12
l4 15l-2 18v21c2 10 9.83301 24.667 23.5 44s22.834 30.333 27.501 33l14 4c4.66699 0 9.5 -1.33301 14.5 -4s9.5 -9 13.5 -19v-15c0 -4.66699 -4 -12 -12 -22l-15 -19l-11 -15c-4 -5.33301 -6 -10.666 -6 -15.999c0 -30 3 -52 9 -66c15.333 -33.333 47.333 -50 96 -50
c30.667 0 53.5 2.66699 68.5 8s33.5 15.333 55.5 30c40.667 28.667 68.834 53 84.501 73s23.5 42 23.5 66c0 31.333 -9.33301 57.333 -28 78c-11.333 12 -29.666 25.333 -54.999 40l-49 27c-20 10 -46.667 18.667 -80 26l-4 -53v-23zM303.997 646.997l-8 -59.998l-3 -54
l55 46c6.66699 7.33301 11 14.666 13 21.999c0 11.333 -4 20.666 -12 27.999c-8 6 -23 12 -45 18z" />
    <glyph glyph-name="Atilde" unicode="&#xc3;" 
d="M247 663c14 -2 23.001 -7.66699 27.001 -17l8 -22c4 -8 9.66699 -12 17 -12s17.333 2.66699 30 8l51 17l47 11l45 10l48 12l41 10l40 4l40 -4c8 0 14.667 1.33301 20 4l21 14c13.333 0 24.333 -3.33301 33 -10s13 -16.334 13 -29.001
c0 -8.66699 -4.66699 -15.667 -14 -21l-11 -2l-24 2l-20 1c-12.667 0 -30 -2 -52 -6s-36 -6.66699 -42 -8s-21.667 -5.33301 -47 -12c-104 -26 -185 -45 -243 -57l1 -208l1 -92l1 -93l-2 -64l-2 -47v-52v-32l2 -20l2 -22c0 -3.33301 -2.66699 -7.66602 -8 -12.999
s-12 -9 -20 -11c-18.667 0 -30.667 3.66699 -36 11c-9.33301 11.333 -14 28.666 -14 51.999l7 91l4 89l-1 38c0 8.66699 1.66699 19.667 5 33l2 20l-2 136l3 53v114l-82 -12l-69 -5c-10 0 -18.667 1 -26 3c-6 2.66699 -9 9 -9 19c0 6 2 12.667 6 20
c7.33301 9.33301 20.666 14 39.999 14h28c6 0 15 2 27 6c21.333 6 36.333 9 45 9l12 -1h21l7 17v25c0 14.667 2.33301 24.334 7 29.001c4 2 11.333 2 22 0z" />
    <glyph glyph-name="Atilde" unicode="&#x413;" 
d="M247 663c14 -2 23.001 -7.66699 27.001 -17l8 -22c4 -8 9.66699 -12 17 -12s17.333 2.66699 30 8l51 17l47 11l45 10l48 12l41 10l40 4l40 -4c8 0 14.667 1.33301 20 4l21 14c13.333 0 24.333 -3.33301 33 -10s13 -16.334 13 -29.001
c0 -8.66699 -4.66699 -15.667 -14 -21l-11 -2l-24 2l-20 1c-12.667 0 -30 -2 -52 -6s-36 -6.66699 -42 -8s-21.667 -5.33301 -47 -12c-104 -26 -185 -45 -243 -57l1 -208l1 -92l1 -93l-2 -64l-2 -47v-52v-32l2 -20l2 -22c0 -3.33301 -2.66699 -7.66602 -8 -12.999
s-12 -9 -20 -11c-18.667 0 -30.667 3.66699 -36 11c-9.33301 11.333 -14 28.666 -14 51.999l7 91l4 89l-1 38c0 8.66699 1.66699 19.667 5 33l2 20l-2 136l3 53v114l-82 -12l-69 -5c-10 0 -18.667 1 -26 3c-6 2.66699 -9 9 -9 19c0 6 2 12.667 6 20
c7.33301 9.33301 20.666 14 39.999 14h28c6 0 15 2 27 6c21.333 6 36.333 9 45 9l12 -1h21l7 17v25c0 14.667 2.33301 24.334 7 29.001c4 2 11.333 2 22 0z" />
    <glyph glyph-name="Adieresis" unicode="&#xc4;" horiz-adv-x="861" 
d="M336 681l63.001 -0.999023l69 -1c14.667 0 29.667 -1 45 -3s31.666 -5.33301 48.999 -10c58.667 -14 110 -38 154 -72c36 -28 62.333 -62.5 79 -103.5s25 -80.833 25 -119.5c0 -56 -18 -112 -54 -168c-13.333 -21.333 -44 -59 -92 -113
c-36.667 -42.667 -95.334 -78.834 -176.001 -108.501s-155.667 -44.5 -225 -44.5c-144.667 0 -217 13.667 -217 41l3 24c2 6.66699 6 11 12 13l18 -3l18 -2c23.333 0 39.333 8.83301 48 26.5s13 39.834 13 66.501l-2 61l-2 58l3 85l4 62v56l3 78c0 13.333 2 30.666 6 51.999
l9 46c-61.333 0 -105 -3.66699 -131 -11c-9.33301 -1.33301 -17.666 -4 -24.999 -8l-49 -24c-18.667 -9.33301 -34 -14 -46 -14c-4 0 -8 2 -12 6s-6.33301 9.33301 -7 16c0 19.333 19.167 37 57.5 53s101.833 31 190.5 45l88 11c30 4 57 6 81 6zM263.001 615.001
c-8.66699 -22.667 -15.999 -52 -21.999 -88l-7 -85l-3 -112l1 -123l5 -85l-3 -59l-9 -63l42 -4l24 -1c50.667 0 101.167 8 151.5 24s97.166 39 140.499 69c58 42.667 102.667 90 134 142c24.667 46 37 90.333 37 133c0 28 -2.5 51.167 -7.5 69.5s-13.5 37.833 -25.5 58.5
c-18.667 35.333 -43.5 61.5 -74.5 78.5s-79.833 32.5 -146.5 46.5l-50 6l-58 2c-44 0 -87 -3 -129 -9z" />
    <glyph glyph-name="Adieresis" unicode="&#x414;" horiz-adv-x="861" 
d="M336 681l63.001 -0.999023l69 -1c14.667 0 29.667 -1 45 -3s31.666 -5.33301 48.999 -10c58.667 -14 110 -38 154 -72c36 -28 62.333 -62.5 79 -103.5s25 -80.833 25 -119.5c0 -56 -18 -112 -54 -168c-13.333 -21.333 -44 -59 -92 -113
c-36.667 -42.667 -95.334 -78.834 -176.001 -108.501s-155.667 -44.5 -225 -44.5c-144.667 0 -217 13.667 -217 41l3 24c2 6.66699 6 11 12 13l18 -3l18 -2c23.333 0 39.333 8.83301 48 26.5s13 39.834 13 66.501l-2 61l-2 58l3 85l4 62v56l3 78c0 13.333 2 30.666 6 51.999
l9 46c-61.333 0 -105 -3.66699 -131 -11c-9.33301 -1.33301 -17.666 -4 -24.999 -8l-49 -24c-18.667 -9.33301 -34 -14 -46 -14c-4 0 -8 2 -12 6s-6.33301 9.33301 -7 16c0 19.333 19.167 37 57.5 53s101.833 31 190.5 45l88 11c30 4 57 6 81 6zM263.001 615.001
c-8.66699 -22.667 -15.999 -52 -21.999 -88l-7 -85l-3 -112l1 -123l5 -85l-3 -59l-9 -63l42 -4l24 -1c50.667 0 101.167 8 151.5 24s97.166 39 140.499 69c58 42.667 102.667 90 134 142c24.667 46 37 90.333 37 133c0 28 -2.5 51.167 -7.5 69.5s-13.5 37.833 -25.5 58.5
c-18.667 35.333 -43.5 61.5 -74.5 78.5s-79.833 32.5 -146.5 46.5l-50 6l-58 2c-44 0 -87 -3 -129 -9z" />
    <glyph glyph-name="Aring" unicode="&#xc5;" horiz-adv-x="624" 
d="M538 729c4 0 8.49902 -1.16797 13.499 -3.50098s7.83301 -5.83301 8.5 -10.5c0 -10 -3.5 -19.833 -10.5 -29.5s-16.5 -16.5 -28.5 -20.5l-13 -1l-15 1l-16 1l-10 -1c-7.33301 -1.33301 -14.666 -3.66602 -21.999 -6.99902l-17 -7h-22.5c-7 0 -13.5 -0.666992 -19.5 -2
l-42 -8l-61 -16c-24.667 -6.66699 -51 -16.334 -79 -29.001c-12.667 -4 -27.334 -15.333 -44.001 -34c-12 -14 -23 -21 -33 -21c-8 0 -15.667 4.66699 -23 14c-6 10 -9 20.667 -9 32c0 6 1.33301 11.5 4 16.5s7.33398 8.83301 14.001 11.5h21
c4.66699 0 35.334 16.667 92.001 50l33 16l20 5l22 -4l10 1c10.667 8.66699 25 17.334 43 26.001c15.333 6 36.666 9 63.999 9h11l36 1h17c8 2 14 3.33301 18 4zM87.999 490.999l7 -4.99902l11 -9l14 -17c0 -4.66699 -1.66699 -8.66699 -5 -12
c-8.66699 -10.667 -13 -30.334 -13 -59.001l174 10l51 4l45 3l24 1c10 0.666992 18.667 4.66699 26 12c6 7.33301 14 11.333 24 12l19 -3l17 -4l16 -1l23 1c16 0 24 -3.33301 24 -10c0 -4 -8.5 -15.167 -25.5 -33.5s-30.833 -28.5 -41.5 -30.5l-14 3l-20 2h-13l-13 -2
l-88 -11l-65 -6h-16l-14 1c-13.333 0 -23.333 -1.66699 -30 -5l-18 -11c-4 -2 -8.66699 -3 -14 -3c-11.333 0 -20.666 1.83301 -27.999 5.5s-13 5.5 -17 5.5c-10.667 0 -21.667 -2.66699 -33 -8l-3 -41c0 -66 28.667 -115.667 86 -149c42 -24 92.333 -36 151 -36
c50.667 0 98 7 142 21l117 46c4 0 7.33301 -2.66699 10 -8l4 -17c0 -32 -34.667 -59.333 -104 -82c-31.333 -9.33301 -60.833 -16.333 -88.5 -21s-55.5 -7 -83.5 -7c-80 0 -144.333 17.333 -193 52c-34.667 23.333 -60.334 57 -77.001 101c-4 12 -9 37 -15 75s-9 66 -9 84
c0 35.333 6 69.5 18 102.5s24.667 49.5 38 49.5z" />
    <glyph glyph-name="Aring" unicode="&#x415;" horiz-adv-x="624" 
d="M538 729c4 0 8.49902 -1.16797 13.499 -3.50098s7.83301 -5.83301 8.5 -10.5c0 -10 -3.5 -19.833 -10.5 -29.5s-16.5 -16.5 -28.5 -20.5l-13 -1l-15 1l-16 1l-10 -1c-7.33301 -1.33301 -14.666 -3.66602 -21.999 -6.99902l-17 -7h-22.5c-7 0 -13.5 -0.666992 -19.5 -2
l-42 -8l-61 -16c-24.667 -6.66699 -51 -16.334 -79 -29.001c-12.667 -4 -27.334 -15.333 -44.001 -34c-12 -14 -23 -21 -33 -21c-8 0 -15.667 4.66699 -23 14c-6 10 -9 20.667 -9 32c0 6 1.33301 11.5 4 16.5s7.33398 8.83301 14.001 11.5h21
c4.66699 0 35.334 16.667 92.001 50l33 16l20 5l22 -4l10 1c10.667 8.66699 25 17.334 43 26.001c15.333 6 36.666 9 63.999 9h11l36 1h17c8 2 14 3.33301 18 4zM87.999 490.999l7 -4.99902l11 -9l14 -17c0 -4.66699 -1.66699 -8.66699 -5 -12
c-8.66699 -10.667 -13 -30.334 -13 -59.001l174 10l51 4l45 3l24 1c10 0.666992 18.667 4.66699 26 12c6 7.33301 14 11.333 24 12l19 -3l17 -4l16 -1l23 1c16 0 24 -3.33301 24 -10c0 -4 -8.5 -15.167 -25.5 -33.5s-30.833 -28.5 -41.5 -30.5l-14 3l-20 2h-13l-13 -2
l-88 -11l-65 -6h-16l-14 1c-13.333 0 -23.333 -1.66699 -30 -5l-18 -11c-4 -2 -8.66699 -3 -14 -3c-11.333 0 -20.666 1.83301 -27.999 5.5s-13 5.5 -17 5.5c-10.667 0 -21.667 -2.66699 -33 -8l-3 -41c0 -66 28.667 -115.667 86 -149c42 -24 92.333 -36 151 -36
c50.667 0 98 7 142 21l117 46c4 0 7.33301 -2.66699 10 -8l4 -17c0 -32 -34.667 -59.333 -104 -82c-31.333 -9.33301 -60.833 -16.333 -88.5 -21s-55.5 -7 -83.5 -7c-80 0 -144.333 17.333 -193 52c-34.667 23.333 -60.334 57 -77.001 101c-4 12 -9 37 -15 75s-9 66 -9 84
c0 35.333 6 69.5 18 102.5s24.667 49.5 38 49.5z" />
    <glyph glyph-name="AE" unicode="&#xc6;" horiz-adv-x="1194" 
d="M279 587c5.33301 0 11.002 -1.66406 17.002 -4.99707c15.333 -8 24.666 -12 27.999 -12l17 3l20 4c26 0 56 -19 90 -57c38 -42 57 -87.667 57 -137l-1 -23l-6 -24c10 -12 20.333 -28.667 31 -50l48 -99l19 30l11 25c26 53.333 52.667 92.666 80 117.999s55.333 38 84 38
l17 -2l20 -5c24 59.333 50 104.666 78 135.999c36.667 38.667 83 58 139 58c14.667 0 29 -6 43 -18s21 -25 21 -39c0 -8.66699 -1.66699 -15.167 -5 -19.5s-11.666 -6.5 -24.999 -6.5c-6.66699 0 -15.667 2 -27 6l-26 9c-32 0 -62.333 -15.333 -91 -46
c-32 -35.333 -48 -80.333 -48 -135c0 -68 25.333 -119 76 -153c38 -24.667 78.333 -37 121 -37c22.667 0 42.167 7.66699 58.5 23s30.5 23 42.5 23c8.66699 0 15.167 -3.16699 19.5 -9.5s6.5 -14.833 6.5 -25.5v-15c0 -12 -17.667 -23.833 -53 -35.5
s-68.666 -17.5 -99.999 -17.5c-52.667 0 -101.667 18.333 -147 55c-58.667 47.333 -88 114.666 -88 201.999c-38.667 -17.333 -70.834 -39.833 -96.501 -67.5s-47.834 -65.167 -66.501 -112.5c-0.666992 -2 -1.83398 -6.33301 -3.50098 -13s-3.5 -15 -5.5 -25l-8 -68
c0 -52 -16 -78 -48 -78c-8 0 -16.167 4 -24.5 12s-13.5 16 -15.5 24l4 23l4 24c0 12 -4 29 -12 51l-20 47l-18 54c-4 14 -8.66699 21 -14 21c-9.33301 0 -18.333 -9.66699 -27 -29l-24 -57c-10 -18 -22.333 -33.333 -37 -46l-36 -33c-16 -27.333 -32.667 -49.333 -50 -66
c-16.667 -18 -46 -39.333 -88 -64c-22.667 -13.333 -44.667 -20 -66 -20c-18 0 -32.833 5 -44.5 15s-17.5 24.667 -17.5 44c0 24 6 45 18 63l69 79l75 93c43.333 55.333 83.333 96.666 120 123.999c24 18 45.333 27 64 27c6 0 10 -0.666992 12 -2
c0 52.667 -20.667 93.667 -62 123c-32.667 23.333 -65.667 35 -99 35c-27.333 0 -56.333 -12.333 -87 -37c-14 -12 -38 -36 -72 -72l-56 -74c-16 -22 -33 -33 -51 -33c-10 0 -17.333 2.33301 -22 7l-4 12l3 13c5.33301 18.667 23 46.334 53 83.001s66.333 73 109 109
c19.333 16 39.333 29.167 60 39.5s39.667 15.5 57 15.5zM424.002 304.003c-8 0 -27 -13.999 -57 -41.999l-40 -39l-30 -32c-56.667 -68.667 -94.667 -119 -114 -151c-11.333 -19.333 -17 -34.333 -17 -45c0 -7.33301 5.66699 -11 17 -11c12.667 0 34.5 15.5 65.5 46.5
s66.833 71.833 107.5 122.5l31 41l27 40c14 23.333 21 41.666 21 54.999l-3 9c-2 4 -4.66699 6 -8 6z" />
    <glyph glyph-name="AE" unicode="&#x416;" horiz-adv-x="1194" 
d="M279 587c5.33301 0 11.002 -1.66406 17.002 -4.99707c15.333 -8 24.666 -12 27.999 -12l17 3l20 4c26 0 56 -19 90 -57c38 -42 57 -87.667 57 -137l-1 -23l-6 -24c10 -12 20.333 -28.667 31 -50l48 -99l19 30l11 25c26 53.333 52.667 92.666 80 117.999s55.333 38 84 38
l17 -2l20 -5c24 59.333 50 104.666 78 135.999c36.667 38.667 83 58 139 58c14.667 0 29 -6 43 -18s21 -25 21 -39c0 -8.66699 -1.66699 -15.167 -5 -19.5s-11.666 -6.5 -24.999 -6.5c-6.66699 0 -15.667 2 -27 6l-26 9c-32 0 -62.333 -15.333 -91 -46
c-32 -35.333 -48 -80.333 -48 -135c0 -68 25.333 -119 76 -153c38 -24.667 78.333 -37 121 -37c22.667 0 42.167 7.66699 58.5 23s30.5 23 42.5 23c8.66699 0 15.167 -3.16699 19.5 -9.5s6.5 -14.833 6.5 -25.5v-15c0 -12 -17.667 -23.833 -53 -35.5
s-68.666 -17.5 -99.999 -17.5c-52.667 0 -101.667 18.333 -147 55c-58.667 47.333 -88 114.666 -88 201.999c-38.667 -17.333 -70.834 -39.833 -96.501 -67.5s-47.834 -65.167 -66.501 -112.5c-0.666992 -2 -1.83398 -6.33301 -3.50098 -13s-3.5 -15 -5.5 -25l-8 -68
c0 -52 -16 -78 -48 -78c-8 0 -16.167 4 -24.5 12s-13.5 16 -15.5 24l4 23l4 24c0 12 -4 29 -12 51l-20 47l-18 54c-4 14 -8.66699 21 -14 21c-9.33301 0 -18.333 -9.66699 -27 -29l-24 -57c-10 -18 -22.333 -33.333 -37 -46l-36 -33c-16 -27.333 -32.667 -49.333 -50 -66
c-16.667 -18 -46 -39.333 -88 -64c-22.667 -13.333 -44.667 -20 -66 -20c-18 0 -32.833 5 -44.5 15s-17.5 24.667 -17.5 44c0 24 6 45 18 63l69 79l75 93c43.333 55.333 83.333 96.666 120 123.999c24 18 45.333 27 64 27c6 0 10 -0.666992 12 -2
c0 52.667 -20.667 93.667 -62 123c-32.667 23.333 -65.667 35 -99 35c-27.333 0 -56.333 -12.333 -87 -37c-14 -12 -38 -36 -72 -72l-56 -74c-16 -22 -33 -33 -51 -33c-10 0 -17.333 2.33301 -22 7l-4 12l3 13c5.33301 18.667 23 46.334 53 83.001s66.333 73 109 109
c19.333 16 39.333 29.167 60 39.5s39.667 15.5 57 15.5zM424.002 304.003c-8 0 -27 -13.999 -57 -41.999l-40 -39l-30 -32c-56.667 -68.667 -94.667 -119 -114 -151c-11.333 -19.333 -17 -34.333 -17 -45c0 -7.33301 5.66699 -11 17 -11c12.667 0 34.5 15.5 65.5 46.5
s66.833 71.833 107.5 122.5l31 41l27 40c14 23.333 21 41.666 21 54.999l-3 9c-2 4 -4.66699 6 -8 6z" />
    <glyph glyph-name="Ccedilla" unicode="&#xc7;" 
d="M348 688c30 0 58.334 -9.33398 85.001 -28.001s40 -37.667 40 -57c0 -20 -23 -49.667 -69 -89c-42.667 -33.333 -84 -58.333 -124 -75c93.333 -14 166.333 -45 219 -93c45.333 -41.333 68 -85.666 68 -132.999c0 -46 -21.833 -96 -65.5 -150s-95.167 -98.333 -154.5 -133
c-56 -32 -110.667 -55.667 -164 -71c-30 -8 -60.333 -12 -91 -12c-44 0 -80.333 17.333 -109 52c-25.333 31.333 -38 66.333 -38 105c0 12 4 28 12 48c6 17.333 14.333 27 25 29c15.333 0 27.333 -2.66699 36 -8c10.667 -4 16 -9.66699 16 -17c0 -4 -3 -9 -9 -15l-11 -11
c-10.667 -12.667 -16 -24.334 -16 -35.001c0 -18 9.66699 -36.333 29 -55c24.667 -23.333 56.334 -35 95.001 -35c12.667 0 26.167 1.66699 40.5 5s32.5 9.33301 54.5 18l43 17l42 21c54.667 27.333 102 65 142 113s60 90 60 126c0 62 -39.333 109 -118 141
c-99.333 26.667 -160 44.334 -182 53.001c-12 4 -19.833 8 -23.5 12s-6.5 10.333 -8.5 19c0 10 5.33301 19.333 16 28l68 22c40.667 12 69 30 85 54l7 14c3.33301 6 9.66602 11.667 18.999 17l21 11c7.33301 4.66699 12 12 14 22c0 9.33301 -6.66699 17.333 -20 24
s-31 10 -53 10l-47 -1c-16.667 0 -29.334 -2.66699 -38.001 -8c-27.333 -16 -56 -27.667 -86 -35c-6.66699 -2 -16.334 -12.333 -29.001 -31c-11.333 -18.667 -24 -28 -38 -28c-9.33301 0 -17.333 3.66699 -24 11c-5.33301 7.33301 -8.66602 16.666 -9.99902 27.999
c0 24.667 26.667 50.334 80 77.001c13.333 6 28 11.667 44 17s33.667 10.333 53 15c36.667 7.33301 74.667 11 114 11z" />
    <glyph glyph-name="Ccedilla" unicode="&#x417;" 
d="M348 688c30 0 58.334 -9.33398 85.001 -28.001s40 -37.667 40 -57c0 -20 -23 -49.667 -69 -89c-42.667 -33.333 -84 -58.333 -124 -75c93.333 -14 166.333 -45 219 -93c45.333 -41.333 68 -85.666 68 -132.999c0 -46 -21.833 -96 -65.5 -150s-95.167 -98.333 -154.5 -133
c-56 -32 -110.667 -55.667 -164 -71c-30 -8 -60.333 -12 -91 -12c-44 0 -80.333 17.333 -109 52c-25.333 31.333 -38 66.333 -38 105c0 12 4 28 12 48c6 17.333 14.333 27 25 29c15.333 0 27.333 -2.66699 36 -8c10.667 -4 16 -9.66699 16 -17c0 -4 -3 -9 -9 -15l-11 -11
c-10.667 -12.667 -16 -24.334 -16 -35.001c0 -18 9.66699 -36.333 29 -55c24.667 -23.333 56.334 -35 95.001 -35c12.667 0 26.167 1.66699 40.5 5s32.5 9.33301 54.5 18l43 17l42 21c54.667 27.333 102 65 142 113s60 90 60 126c0 62 -39.333 109 -118 141
c-99.333 26.667 -160 44.334 -182 53.001c-12 4 -19.833 8 -23.5 12s-6.5 10.333 -8.5 19c0 10 5.33301 19.333 16 28l68 22c40.667 12 69 30 85 54l7 14c3.33301 6 9.66602 11.667 18.999 17l21 11c7.33301 4.66699 12 12 14 22c0 9.33301 -6.66699 17.333 -20 24
s-31 10 -53 10l-47 -1c-16.667 0 -29.334 -2.66699 -38.001 -8c-27.333 -16 -56 -27.667 -86 -35c-6.66699 -2 -16.334 -12.333 -29.001 -31c-11.333 -18.667 -24 -28 -38 -28c-9.33301 0 -17.333 3.66699 -24 11c-5.33301 7.33301 -8.66602 16.666 -9.99902 27.999
c0 24.667 26.667 50.334 80 77.001c13.333 6 28 11.667 44 17s33.667 10.333 53 15c36.667 7.33301 74.667 11 114 11z" />
    <glyph glyph-name="Egrave" unicode="&#xc8;" horiz-adv-x="697" 
d="M111 548c11.333 0 20.334 -2.83496 27.001 -8.50195s10 -13.167 10 -22.5c0 -6.66699 -3 -18 -9 -34l-10 -25l-6 -20l-2 -26l5 -102l3 -90c0 -42.667 7.66699 -78 23 -106c13.333 -25.333 28.333 -38 45 -38c12.667 0 27.667 6 45 18s32.333 27.667 45 47l37 63l25 48
c7.33301 14 16.666 39.333 27.999 76c5.33301 20 13.666 41 24.999 63l51 102c7.33301 18 15.333 33.333 24 46c16 20 35.667 30 59 30c4 0 8 -5 12 -15l6 -22l2 -15v-15l-1 -27l-1 -25l-4 -95l1 -70l3 -87v-23c0 -31.333 2 -58.166 6 -80.499s14 -33.5 30 -33.5l11 6l11 9
l8 2c4.66699 0 8.66699 -1 12 -3s6 -6.66699 8 -14c0 -13.333 -6.66699 -31.166 -20 -53.499s-24.666 -34.5 -33.999 -36.5c-37.333 0 -61.333 23.667 -72 71l-11 66l-11 55c-2 20 -3 51 -3 93v58v12c0 32.667 -2.33301 62 -7 88l-75 -169
c-32 -78 -60.333 -133.333 -85 -166c-36 -50 -75.333 -75 -118 -75c-37.333 0 -70 23 -98 69c-23.333 42.667 -35 89 -35 139v177l-2 35l-2 28c0 12 1.66699 22.667 5 32l16 36c10 18 17.667 27.333 23 28z" />
    <glyph glyph-name="Egrave" unicode="&#x418;" horiz-adv-x="697" 
d="M111 548c11.333 0 20.334 -2.83496 27.001 -8.50195s10 -13.167 10 -22.5c0 -6.66699 -3 -18 -9 -34l-10 -25l-6 -20l-2 -26l5 -102l3 -90c0 -42.667 7.66699 -78 23 -106c13.333 -25.333 28.333 -38 45 -38c12.667 0 27.667 6 45 18s32.333 27.667 45 47l37 63l25 48
c7.33301 14 16.666 39.333 27.999 76c5.33301 20 13.666 41 24.999 63l51 102c7.33301 18 15.333 33.333 24 46c16 20 35.667 30 59 30c4 0 8 -5 12 -15l6 -22l2 -15v-15l-1 -27l-1 -25l-4 -95l1 -70l3 -87v-23c0 -31.333 2 -58.166 6 -80.499s14 -33.5 30 -33.5l11 6l11 9
l8 2c4.66699 0 8.66699 -1 12 -3s6 -6.66699 8 -14c0 -13.333 -6.66699 -31.166 -20 -53.499s-24.666 -34.5 -33.999 -36.5c-37.333 0 -61.333 23.667 -72 71l-11 66l-11 55c-2 20 -3 51 -3 93v58v12c0 32.667 -2.33301 62 -7 88l-75 -169
c-32 -78 -60.333 -133.333 -85 -166c-36 -50 -75.333 -75 -118 -75c-37.333 0 -70 23 -98 69c-23.333 42.667 -35 89 -35 139v177l-2 35l-2 28c0 12 1.66699 22.667 5 32l16 36c10 18 17.667 27.333 23 28z" />
    <glyph glyph-name="Eacute" unicode="&#xc9;" horiz-adv-x="706" 
d="M101 575c6.66699 0 13.8359 -3.66602 21.5029 -10.999s12.5 -15.666 14.5 -24.999l-7 -94l-2 -116l3 -88c0 -12 0.833008 -23 2.5 -33s4.5 -23 8.5 -39c13.333 -62 34.666 -93 63.999 -93c28.667 0 56.667 20.667 84 62l52 94l18 28l15 28l6 21l5 19
c5.33301 20 13.666 41 24.999 63l51 102c7.33301 18 15.333 33.333 24 46c16 20 35.667 30 59 30c3.33301 0 7.66602 -4 12.999 -12l5 -24l-2 -78l-2 -145v-76c0 -70 3.5 -116.333 10.5 -139s16.833 -34 29.5 -34l11 6l11 9l8 2c4.66699 0 8.66699 -1 12 -3
s6 -6.66699 8 -14c0 -14.667 -7.5 -32.834 -22.5 -54.501s-28.167 -33.167 -39.5 -34.5c-34 0 -58.333 32.333 -73 97l-16 97c0 7.33301 -0.666992 12.666 -2 15.999v14l1 30l1 30v97l1 85l-75 -178c-31.333 -75.333 -61.333 -134 -90 -176
c-38 -53.333 -78.333 -80 -121 -80c-36 0 -65 19.333 -87 58s-37.667 89.334 -47 152.001l-7 93l-3 103c0 53.333 2.5 94.166 7.5 122.499s13.167 42.5 24.5 42.5zM448.002 719.001c10 0 16.8291 -2 20.4961 -6s6.5 -9 8.5 -15c0 -12 -17.167 -32.667 -51.5 -62
s-62.166 -44 -83.499 -44l-45 3l-25 -2l-25 -2c-6.66699 0 -12.667 1.66699 -18 5l-19 9c-11.333 2 -18.666 5.66699 -21.999 11l-7 14l-2 18c0.666992 1.33301 1.83398 3 3.50098 5s3.5 4 5.5 6l18 4c6.66699 0 14.334 -1.66699 23.001 -5l24 -9l23 -5l29 -1
c36 0 69.667 17 101 51c14.667 16.667 28.667 25 42 25z" />
    <glyph glyph-name="Eacute" unicode="&#x419;" horiz-adv-x="706" 
d="M101 575c6.66699 0 13.8359 -3.66602 21.5029 -10.999s12.5 -15.666 14.5 -24.999l-7 -94l-2 -116l3 -88c0 -12 0.833008 -23 2.5 -33s4.5 -23 8.5 -39c13.333 -62 34.666 -93 63.999 -93c28.667 0 56.667 20.667 84 62l52 94l18 28l15 28l6 21l5 19
c5.33301 20 13.666 41 24.999 63l51 102c7.33301 18 15.333 33.333 24 46c16 20 35.667 30 59 30c3.33301 0 7.66602 -4 12.999 -12l5 -24l-2 -78l-2 -145v-76c0 -70 3.5 -116.333 10.5 -139s16.833 -34 29.5 -34l11 6l11 9l8 2c4.66699 0 8.66699 -1 12 -3
s6 -6.66699 8 -14c0 -14.667 -7.5 -32.834 -22.5 -54.501s-28.167 -33.167 -39.5 -34.5c-34 0 -58.333 32.333 -73 97l-16 97c0 7.33301 -0.666992 12.666 -2 15.999v14l1 30l1 30v97l1 85l-75 -178c-31.333 -75.333 -61.333 -134 -90 -176
c-38 -53.333 -78.333 -80 -121 -80c-36 0 -65 19.333 -87 58s-37.667 89.334 -47 152.001l-7 93l-3 103c0 53.333 2.5 94.166 7.5 122.499s13.167 42.5 24.5 42.5zM448.002 719.001c10 0 16.8291 -2 20.4961 -6s6.5 -9 8.5 -15c0 -12 -17.167 -32.667 -51.5 -62
s-62.166 -44 -83.499 -44l-45 3l-25 -2l-25 -2c-6.66699 0 -12.667 1.66699 -18 5l-19 9c-11.333 2 -18.666 5.66699 -21.999 11l-7 14l-2 18c0.666992 1.33301 1.83398 3 3.50098 5s3.5 4 5.5 6l18 4c6.66699 0 14.334 -1.66699 23.001 -5l24 -9l23 -5l29 -1
c36 0 69.667 17 101 51c14.667 16.667 28.667 25 42 25z" />
    <glyph glyph-name="Ecircumflex" unicode="&#xca;" horiz-adv-x="588" 
d="M144 367l21.9971 -13.998l76 94c12.667 14.667 41.334 33.667 86.001 57c26 14 43.333 25.333 52 34l16 29l10 21c4 5.33301 11 10.666 21 15.999l20 5l8 -1l10 -3c8 -4 14.167 -11.167 18.5 -21.5s6.5 -21.166 6.5 -32.499c0 -4.66699 -31.333 -32.334 -94 -83.001
l-38 -26l-43 -25l-26 -14l-29 -20c-4 -3.33301 -8.66699 -7.5 -14 -12.5s-11.666 -11.5 -18.999 -19.5c-12.667 -14 -20 -26.667 -22 -38c0 -13.333 22 -35 66 -65c26.667 -16 57.334 -32.667 92.001 -50l42 -16l41 -11l40 -7l37 -2l34 1l59 10
c7.33301 0 12.333 0.666992 15 2l18 2c10 0 18.333 -1.66699 25 -5c8 -2 14.833 -5.83301 20.5 -11.5s9.5 -12.5 11.5 -20.5c0 -20 -13.333 -33 -40 -39l-61 -4l-54 -2l-46 -2l-29 1h-16l-12 4c-16 4 -40.333 12 -73 24c-54.667 20 -96 39.333 -124 58s-48 36.667 -60 54
l-16 21c-9.33301 10 -18.333 15 -27 15c-4.66699 0 -7 -6 -7 -18c0 -10 0.666992 -18.833 2 -26.5s4.33301 -17.834 9 -30.501c8 -20.667 17.333 -35.334 28 -44.001l20 -13c10 -6 15 -13 15 -21s-6.66699 -21.667 -20 -41c-15.333 -20 -29 -30 -41 -30
c-16.667 0 -32 24 -46 72c-9.33301 40.667 -14 74.667 -14 102v20l1 20c0 14.667 -1.66699 25.334 -5 32.001l-7 21l3 25l4 21l2 15v12l-1 25l-1 25c0 16.667 0.333008 28.334 1 35.001c3.33301 15.333 5.33301 27.333 6 36l4 44v22l-4 19l-3 34
c0 17.333 2.16699 30.166 6.5 38.499s10.5 13.5 18.5 15.5c20 0 33 -15.333 39 -46l4 -65v-24v-16l-1 -36l-4 -23l-4 -17l-6 -37c-2 -12 -3 -28.333 -3 -49z" />
    <glyph glyph-name="Ecircumflex" unicode="&#x41a;" horiz-adv-x="588" 
d="M144 367l21.9971 -13.998l76 94c12.667 14.667 41.334 33.667 86.001 57c26 14 43.333 25.333 52 34l16 29l10 21c4 5.33301 11 10.666 21 15.999l20 5l8 -1l10 -3c8 -4 14.167 -11.167 18.5 -21.5s6.5 -21.166 6.5 -32.499c0 -4.66699 -31.333 -32.334 -94 -83.001
l-38 -26l-43 -25l-26 -14l-29 -20c-4 -3.33301 -8.66699 -7.5 -14 -12.5s-11.666 -11.5 -18.999 -19.5c-12.667 -14 -20 -26.667 -22 -38c0 -13.333 22 -35 66 -65c26.667 -16 57.334 -32.667 92.001 -50l42 -16l41 -11l40 -7l37 -2l34 1l59 10
c7.33301 0 12.333 0.666992 15 2l18 2c10 0 18.333 -1.66699 25 -5c8 -2 14.833 -5.83301 20.5 -11.5s9.5 -12.5 11.5 -20.5c0 -20 -13.333 -33 -40 -39l-61 -4l-54 -2l-46 -2l-29 1h-16l-12 4c-16 4 -40.333 12 -73 24c-54.667 20 -96 39.333 -124 58s-48 36.667 -60 54
l-16 21c-9.33301 10 -18.333 15 -27 15c-4.66699 0 -7 -6 -7 -18c0 -10 0.666992 -18.833 2 -26.5s4.33301 -17.834 9 -30.501c8 -20.667 17.333 -35.334 28 -44.001l20 -13c10 -6 15 -13 15 -21s-6.66699 -21.667 -20 -41c-15.333 -20 -29 -30 -41 -30
c-16.667 0 -32 24 -46 72c-9.33301 40.667 -14 74.667 -14 102v20l1 20c0 14.667 -1.66699 25.334 -5 32.001l-7 21l3 25l4 21l2 15v12l-1 25l-1 25c0 16.667 0.333008 28.334 1 35.001c3.33301 15.333 5.33301 27.333 6 36l4 44v22l-4 19l-3 34
c0 17.333 2.16699 30.166 6.5 38.499s10.5 13.5 18.5 15.5c20 0 33 -15.333 39 -46l4 -65v-24v-16l-1 -36l-4 -23l-4 -17l-6 -37c-2 -12 -3 -28.333 -3 -49z" />
    <glyph glyph-name="Edieresis" unicode="&#xcb;" horiz-adv-x="622" 
d="M374 664c36.667 0 59.6689 -6.66602 69.002 -19.999l17 -49c20.667 -36.667 37.5 -72 50.5 -106s26.833 -85.667 41.5 -155l5 -45l4 -48l7 -39l9 -43l15 -57l8 -26l3 -18c0 -10 -4 -18.667 -12 -26l-17 -4c-14.667 0 -26.834 3.83301 -36.501 11.5
s-14.5 16.167 -14.5 25.5l4 9l5 7l-1 4l-1.5 4.5c-0.333008 1 -2.33301 4 -6 9s-7.5 13.833 -11.5 26.5l-3 34v14c0 14.667 -2 34 -6 58l-21 118v16c0 6 -0.666992 13 -2 21l-6 28c-1.33301 8.66699 -2.83301 15.334 -4.5 20.001s-4.83398 11.667 -9.50098 21l-10 23l-12 22
l-22 48c-6 17.333 -11.333 28.666 -16 33.999c-4.66699 7.33301 -11 12 -19 14c-6.66699 0 -14 -4 -22 -12l-12 -23c-14 -30.667 -32.333 -58.334 -55 -83.001c-16 -16 -34.667 -53.333 -56 -112l-11 -28l-15 -24c-8 -12.667 -15 -26 -21 -40l-18 -57l-33 -74l-3 -40
c0 -12 -3.66699 -21.667 -11 -29s-17.333 -11 -30 -11c-4.66699 0 -11 2 -19 6l-15 13l-4 16l4 19l3 12l5 9l13 24l23 47l19 50c18.667 58 34 97 46 117l40 66l18 37l24 50c9.33301 17.333 17.333 30.333 24 39l31 37l22 41c8 12 23.333 18 46 18z" />
    <glyph glyph-name="Edieresis" unicode="&#x41b;" horiz-adv-x="622" 
d="M374 664c36.667 0 59.6689 -6.66602 69.002 -19.999l17 -49c20.667 -36.667 37.5 -72 50.5 -106s26.833 -85.667 41.5 -155l5 -45l4 -48l7 -39l9 -43l15 -57l8 -26l3 -18c0 -10 -4 -18.667 -12 -26l-17 -4c-14.667 0 -26.834 3.83301 -36.501 11.5
s-14.5 16.167 -14.5 25.5l4 9l5 7l-1 4l-1.5 4.5c-0.333008 1 -2.33301 4 -6 9s-7.5 13.833 -11.5 26.5l-3 34v14c0 14.667 -2 34 -6 58l-21 118v16c0 6 -0.666992 13 -2 21l-6 28c-1.33301 8.66699 -2.83301 15.334 -4.5 20.001s-4.83398 11.667 -9.50098 21l-10 23l-12 22
l-22 48c-6 17.333 -11.333 28.666 -16 33.999c-4.66699 7.33301 -11 12 -19 14c-6.66699 0 -14 -4 -22 -12l-12 -23c-14 -30.667 -32.333 -58.334 -55 -83.001c-16 -16 -34.667 -53.333 -56 -112l-11 -28l-15 -24c-8 -12.667 -15 -26 -21 -40l-18 -57l-33 -74l-3 -40
c0 -12 -3.66699 -21.667 -11 -29s-17.333 -11 -30 -11c-4.66699 0 -11 2 -19 6l-15 13l-4 16l4 19l3 12l5 9l13 24l23 47l19 50c18.667 58 34 97 46 117l40 66l18 37l24 50c9.33301 17.333 17.333 30.333 24 39l31 37l22 41c8 12 23.333 18 46 18z" />
    <glyph glyph-name="Igrave" unicode="&#xcc;" horiz-adv-x="809" 
d="M610 599c30.667 0 57.001 -15 79.001 -45c8.66699 -12.667 20 -38 34 -76l24 -75c4 -14 6 -28 6 -42l-1 -30l-1 -28v-56c0 -22.667 3.66699 -41.667 11 -57l19 -52c6 -16 9 -30.667 9 -44c0 -6.66699 -1.66699 -13.334 -5 -20.001c-2 -6 -5.33301 -9 -10 -9
c-14 0 -26.667 4 -38 12c-14.667 12.667 -26.334 40.334 -35.001 83.001l-8 43l-5 44l2 80c0 30 -8 69.667 -24 119c-18 53.333 -37 80 -57 80c-19.333 0 -38 -10.333 -56 -31l-25 -39l-51 -71c-30.667 -38.667 -57.334 -91.667 -80.001 -159l-9 -27l-14 -32
c-14 -27.333 -28.333 -41 -43 -41c-20 0 -33 6.83301 -39 20.5s-9 33.834 -9 60.501v44l-3 44l-12 105c-8 50 -20.333 75 -37 75c-18 0 -37 -23 -57 -69c-10 -24.667 -22.333 -63 -37 -115l-15 -66l-4 -50c0 -18.667 1.33301 -34.334 4 -47.001l12 -59
c0 -14.667 -2.66699 -27 -8 -37s-12 -15 -20 -15c-17.333 0 -30.666 7 -39.999 21l-8 26c-2 10 -3 22.667 -3 38l5 86l2 56c0 80 16 144.667 48 194l75 78c21.333 25.333 44.333 38 69 38c14.667 0 27.167 -6.16699 37.5 -18.5s17.5 -31.5 21.5 -57.5
c0 -17.333 2.33301 -30.333 7 -39l15 -24c2 -6 3 -15.333 3 -28l-1 -20v-14v-13l5 -18l3 -22l2 -18l1 -4l2 -2l3 3l8 10l12 31c16 42 32 75.333 48 100l57 72l55 70c24.667 24.667 50 37 76 37z" />
    <glyph glyph-name="Igrave" unicode="&#x41c;" horiz-adv-x="809" 
d="M610 599c30.667 0 57.001 -15 79.001 -45c8.66699 -12.667 20 -38 34 -76l24 -75c4 -14 6 -28 6 -42l-1 -30l-1 -28v-56c0 -22.667 3.66699 -41.667 11 -57l19 -52c6 -16 9 -30.667 9 -44c0 -6.66699 -1.66699 -13.334 -5 -20.001c-2 -6 -5.33301 -9 -10 -9
c-14 0 -26.667 4 -38 12c-14.667 12.667 -26.334 40.334 -35.001 83.001l-8 43l-5 44l2 80c0 30 -8 69.667 -24 119c-18 53.333 -37 80 -57 80c-19.333 0 -38 -10.333 -56 -31l-25 -39l-51 -71c-30.667 -38.667 -57.334 -91.667 -80.001 -159l-9 -27l-14 -32
c-14 -27.333 -28.333 -41 -43 -41c-20 0 -33 6.83301 -39 20.5s-9 33.834 -9 60.501v44l-3 44l-12 105c-8 50 -20.333 75 -37 75c-18 0 -37 -23 -57 -69c-10 -24.667 -22.333 -63 -37 -115l-15 -66l-4 -50c0 -18.667 1.33301 -34.334 4 -47.001l12 -59
c0 -14.667 -2.66699 -27 -8 -37s-12 -15 -20 -15c-17.333 0 -30.666 7 -39.999 21l-8 26c-2 10 -3 22.667 -3 38l5 86l2 56c0 80 16 144.667 48 194l75 78c21.333 25.333 44.333 38 69 38c14.667 0 27.167 -6.16699 37.5 -18.5s17.5 -31.5 21.5 -57.5
c0 -17.333 2.33301 -30.333 7 -39l15 -24c2 -6 3 -15.333 3 -28l-1 -20v-14v-13l5 -18l3 -22l2 -18l1 -4l2 -2l3 3l8 10l12 31c16 42 32 75.333 48 100l57 72l55 70c24.667 24.667 50 37 76 37z" />
    <glyph glyph-name="Iacute" unicode="&#xcd;" horiz-adv-x="656" 
d="M130 659c18 0 30.999 -10.668 38.999 -32.001c2 -8.66699 3.66699 -17.334 5 -26.001s2 -18.667 2 -30v-15c0 -4 -2 -9 -6 -15l-5 -13l2 -21l2 -22v-17c-2 -9.33301 -3.33301 -16.666 -4 -21.999l-5 -33l-6 -69c72.667 0 131.167 3.5 175.5 10.5s99.5 22.167 165.5 45.5
l3 79l7 81l-1 34l2 20c1.33301 7.33301 5 15 11 23s14 13 24 15c12 0 20.333 -2 25 -6s7 -9 7 -15l-3 -22l-4 -29l-1 -24l2 -27l2 -19c0 -5.33301 -3 -16.166 -9 -32.499s-9 -29.166 -9 -38.499c0 -6 3.66699 -9.33301 11 -10c9.33301 0 21 4.66699 35 14l18 7
c10 0 17 -3.66699 21 -11c2 -4 2 -11 0 -21c-4 -20 -15.667 -32 -35 -36c-17.333 -2.66699 -35 -10.667 -53 -24l-2 -27l2 -16l6 -20l8 -22l-3 -21c-5.33301 -14.667 -8 -37.334 -8 -68.001v-24l1 -24l-1 -18l-2 -18v-14c0 -20 2.33301 -34.333 7 -43l17 -22l-12 -10
c-4 -0.666992 -7 -2.66699 -9 -6l-11 -13c-4 -6 -7.66699 -9.33301 -11 -10l-7 4l-13 11c-10 10 -15 17 -15 21l4 18l7 19l3 22l-3 21l-6 23l-2 17l5 20l2 12l-3 47l-7 47c0 18.667 2.33301 44 7 76l-102 -30l-83 -12l-35 -4l-44 -7l-41 -4l-28 3
c-4.66699 0 -8.66699 -1.33301 -12 -4l-7 -11l-3 -15l-1 -14l1 -22c2 -16 6 -26 12 -30c8.66699 -2 14.834 -4.16699 18.501 -6.5s10.167 -11 19.5 -26s15.333 -27.5 18 -37.5c0 -29.333 -5 -56.666 -15 -81.999s-21.667 -38 -35 -38c-24.667 0 -42.334 17.333 -53.001 52
l-5 36l-2 57v12c0 29.333 -1.33301 50.333 -4 63c-2 17.333 -6.33301 31.666 -13 42.999c-5.33301 11.333 -11.666 19.333 -18.999 24l-15 7l-4 3l-2 4c0 8 5 16.667 15 26l28 20l7 22c2 12 3 32 3 60v53v81l-3 50c0 16 4.33301 28.333 13 37c6 6 12.333 9 19 9z" />
    <glyph glyph-name="Iacute" unicode="&#x41d;" horiz-adv-x="656" 
d="M130 659c18 0 30.999 -10.668 38.999 -32.001c2 -8.66699 3.66699 -17.334 5 -26.001s2 -18.667 2 -30v-15c0 -4 -2 -9 -6 -15l-5 -13l2 -21l2 -22v-17c-2 -9.33301 -3.33301 -16.666 -4 -21.999l-5 -33l-6 -69c72.667 0 131.167 3.5 175.5 10.5s99.5 22.167 165.5 45.5
l3 79l7 81l-1 34l2 20c1.33301 7.33301 5 15 11 23s14 13 24 15c12 0 20.333 -2 25 -6s7 -9 7 -15l-3 -22l-4 -29l-1 -24l2 -27l2 -19c0 -5.33301 -3 -16.166 -9 -32.499s-9 -29.166 -9 -38.499c0 -6 3.66699 -9.33301 11 -10c9.33301 0 21 4.66699 35 14l18 7
c10 0 17 -3.66699 21 -11c2 -4 2 -11 0 -21c-4 -20 -15.667 -32 -35 -36c-17.333 -2.66699 -35 -10.667 -53 -24l-2 -27l2 -16l6 -20l8 -22l-3 -21c-5.33301 -14.667 -8 -37.334 -8 -68.001v-24l1 -24l-1 -18l-2 -18v-14c0 -20 2.33301 -34.333 7 -43l17 -22l-12 -10
c-4 -0.666992 -7 -2.66699 -9 -6l-11 -13c-4 -6 -7.66699 -9.33301 -11 -10l-7 4l-13 11c-10 10 -15 17 -15 21l4 18l7 19l3 22l-3 21l-6 23l-2 17l5 20l2 12l-3 47l-7 47c0 18.667 2.33301 44 7 76l-102 -30l-83 -12l-35 -4l-44 -7l-41 -4l-28 3
c-4.66699 0 -8.66699 -1.33301 -12 -4l-7 -11l-3 -15l-1 -14l1 -22c2 -16 6 -26 12 -30c8.66699 -2 14.834 -4.16699 18.501 -6.5s10.167 -11 19.5 -26s15.333 -27.5 18 -37.5c0 -29.333 -5 -56.666 -15 -81.999s-21.667 -38 -35 -38c-24.667 0 -42.334 17.333 -53.001 52
l-5 36l-2 57v12c0 29.333 -1.33301 50.333 -4 63c-2 17.333 -6.33301 31.666 -13 42.999c-5.33301 11.333 -11.666 19.333 -18.999 24l-15 7l-4 3l-2 4c0 8 5 16.667 15 26l28 20l7 22c2 12 3 32 3 60v53v81l-3 50c0 16 4.33301 28.333 13 37c6 6 12.333 9 19 9z" />
    <glyph glyph-name="Icircumflex" unicode="&#xce;" horiz-adv-x="759" 
d="M342 638c56 0 126.001 -24.668 210.001 -74.001c96 -55.333 144 -111 144 -167c0 -35.333 -14.167 -79.166 -42.5 -131.499s-59.833 -93.833 -94.5 -124.5c-28 -24.667 -63.833 -46.5 -107.5 -65.5s-82.834 -28.5 -117.501 -28.5c-97.333 0 -174 35.333 -230 106
c-42 54 -63 115 -63 183l-1 22c0 12.667 1.66699 20.667 5 24l20 22c10 10 15 17.333 15 22l-3 6l-7 11c-6 8 -9 14.667 -9 20c0 28.667 37.167 65 111.5 109s130.833 66 169.5 66zM331.001 572.999c-26.667 0 -50.666 -6.33301 -71.999 -19l-66 -36l-31 -12
c-10 -4 -15 -9 -15 -15l2 -5l9 -9c8 -6 12 -11 12 -15c0 -4.66699 -4.66699 -11.667 -14 -21l-17 -20c-2.66699 -4 -5.66699 -9.66699 -9 -17s-7 -16 -11 -26l-5 -31l-2 -42c0 -62 23 -112.667 69 -152c42 -34 93.667 -51 155 -51c35.333 0 74.666 12.5 117.999 37.5
s80.333 54.833 111 89.5c17.333 19.333 33.333 44.333 48 75s22 60.667 22 90c0 46 -42.333 89 -127 129c-72.667 33.333 -131.667 50 -177 50z" />
    <glyph glyph-name="Icircumflex" unicode="&#x41e;" horiz-adv-x="759" 
d="M342 638c56 0 126.001 -24.668 210.001 -74.001c96 -55.333 144 -111 144 -167c0 -35.333 -14.167 -79.166 -42.5 -131.499s-59.833 -93.833 -94.5 -124.5c-28 -24.667 -63.833 -46.5 -107.5 -65.5s-82.834 -28.5 -117.501 -28.5c-97.333 0 -174 35.333 -230 106
c-42 54 -63 115 -63 183l-1 22c0 12.667 1.66699 20.667 5 24l20 22c10 10 15 17.333 15 22l-3 6l-7 11c-6 8 -9 14.667 -9 20c0 28.667 37.167 65 111.5 109s130.833 66 169.5 66zM331.001 572.999c-26.667 0 -50.666 -6.33301 -71.999 -19l-66 -36l-31 -12
c-10 -4 -15 -9 -15 -15l2 -5l9 -9c8 -6 12 -11 12 -15c0 -4.66699 -4.66699 -11.667 -14 -21l-17 -20c-2.66699 -4 -5.66699 -9.66699 -9 -17s-7 -16 -11 -26l-5 -31l-2 -42c0 -62 23 -112.667 69 -152c42 -34 93.667 -51 155 -51c35.333 0 74.666 12.5 117.999 37.5
s80.333 54.833 111 89.5c17.333 19.333 33.333 44.333 48 75s22 60.667 22 90c0 46 -42.333 89 -127 129c-72.667 33.333 -131.667 50 -177 50z" />
    <glyph glyph-name="Idieresis" unicode="&#xcf;" horiz-adv-x="787" 
d="M268 663c9.33301 0 16.1631 -2.33203 20.4961 -6.99902s7.5 -12 9.5 -22l5 -20c2 -2.66699 6 -4.66699 12 -6l8 1c24 11.333 43.333 18.833 58 22.5s27.334 6.16699 38.001 7.5s23.334 2 38.001 2l49 3l50 7l44 10l40 5l40 -4c8 0 14.667 1.33301 20 4l21 14
c13.333 0 24.333 -3.33301 33 -10s13 -16.334 13 -29.001c0 -8.66699 -4.66699 -15.667 -14 -21l-11 -2l-24 2l-13 1l-25 -3l-26 -5l-4 -41l-3 -43l2 -26l2 -20l-9 -22c-6 -11.333 -9 -27.666 -9 -48.999v-85l6 -91l3 -75l1 -30c0 -15.333 0.666992 -25.333 2 -30v-17
l-4 -18l-4 -33c0 -3.33301 3 -10 9 -20c6 -8 9 -14.333 9 -19l-10 -9l-12 -7l-10 -13c-4 -6 -7.66699 -9.33301 -11 -10l-7 4l-13 11c-10 10 -15 17 -15 21l4 18l7 19l3 22l-3 21l-6 23l-2 17l5 20l2 12l-5 55l-2 62l-1 58l-1 58v27l1 26l5 51l3 53l-1 20v15
c0 9.33301 2.33301 19.666 7 30.999l-47 -7l-58 -4c-36.667 0 -100.667 -10.667 -192 -32l1 -208l1 -92l1 -93l-2 -64l-2 -47v-52v-32l2 -20l2 -22c0 -3.33301 -2.66699 -7.66602 -8 -12.999s-12 -9 -20 -11c-18.667 0 -30.667 3.66699 -36 11
c-9.33301 11.333 -14 28.666 -14 51.999l7 91l4 89l-1 38c0 8.66699 1.66699 19.667 5 33l2 20l-2 136l3 53v114l-18 -1c-6.66699 0 -13.667 -1.33301 -21 -4l-31 -7l-43 -14l-23 -6l-20 -2c-13.333 0 -22 1.33301 -26 4s-7 8.66699 -9 18c0 18 12.333 29.333 37 34
c10.667 1.33301 20.834 3 30.501 5s16.667 3.83301 21 5.5s12.5 3.66699 24.5 6s27.333 4.5 46 6.5s29.334 10.333 32.001 25v25c0 8 3 15 9 21c4 3.33301 10.667 6 20 8z" />
    <glyph glyph-name="Idieresis" unicode="&#x41f;" horiz-adv-x="787" 
d="M268 663c9.33301 0 16.1631 -2.33203 20.4961 -6.99902s7.5 -12 9.5 -22l5 -20c2 -2.66699 6 -4.66699 12 -6l8 1c24 11.333 43.333 18.833 58 22.5s27.334 6.16699 38.001 7.5s23.334 2 38.001 2l49 3l50 7l44 10l40 5l40 -4c8 0 14.667 1.33301 20 4l21 14
c13.333 0 24.333 -3.33301 33 -10s13 -16.334 13 -29.001c0 -8.66699 -4.66699 -15.667 -14 -21l-11 -2l-24 2l-13 1l-25 -3l-26 -5l-4 -41l-3 -43l2 -26l2 -20l-9 -22c-6 -11.333 -9 -27.666 -9 -48.999v-85l6 -91l3 -75l1 -30c0 -15.333 0.666992 -25.333 2 -30v-17
l-4 -18l-4 -33c0 -3.33301 3 -10 9 -20c6 -8 9 -14.333 9 -19l-10 -9l-12 -7l-10 -13c-4 -6 -7.66699 -9.33301 -11 -10l-7 4l-13 11c-10 10 -15 17 -15 21l4 18l7 19l3 22l-3 21l-6 23l-2 17l5 20l2 12l-5 55l-2 62l-1 58l-1 58v27l1 26l5 51l3 53l-1 20v15
c0 9.33301 2.33301 19.666 7 30.999l-47 -7l-58 -4c-36.667 0 -100.667 -10.667 -192 -32l1 -208l1 -92l1 -93l-2 -64l-2 -47v-52v-32l2 -20l2 -22c0 -3.33301 -2.66699 -7.66602 -8 -12.999s-12 -9 -20 -11c-18.667 0 -30.667 3.66699 -36 11
c-9.33301 11.333 -14 28.666 -14 51.999l7 91l4 89l-1 38c0 8.66699 1.66699 19.667 5 33l2 20l-2 136l3 53v114l-18 -1c-6.66699 0 -13.667 -1.33301 -21 -4l-31 -7l-43 -14l-23 -6l-20 -2c-13.333 0 -22 1.33301 -26 4s-7 8.66699 -9 18c0 18 12.333 29.333 37 34
c10.667 1.33301 20.834 3 30.501 5s16.667 3.83301 21 5.5s12.5 3.66699 24.5 6s27.333 4.5 46 6.5s29.334 10.333 32.001 25v25c0 8 3 15 9 21c4 3.33301 10.667 6 20 8z" />
    <glyph glyph-name="Eth" unicode="&#xd0;" horiz-adv-x="557" 
d="M276 679c98.667 0 172.999 -19.002 222.999 -57.002c38.667 -30.667 58 -69.334 58 -116.001c0 -44 -21 -94 -63 -150c-38 -51.333 -79.333 -90.333 -124 -117c-30 -18.667 -55.667 -31.667 -77 -39c-10 -3.33301 -19.667 -6 -29 -8s-18.333 -3 -27 -3
c-11.333 0 -18.666 0.666992 -21.999 2l-23 7c0 -52.667 3.33301 -94.334 10 -125.001l24 -78c-0.666992 -1.33301 -1.33398 -2.83301 -2.00098 -4.5s-2 -3.5 -4 -5.5l-14 -4c-35.333 0 -56.666 27 -63.999 81l-5 91l2 113l2 110v37c0 31.333 3 52.333 9 63
s14.333 16.334 25 17.001c8 0 17 -4 27 -12s15 -16.333 15 -25c0 -8 -1.66699 -14 -5 -18l-9 -25l-3 -39l-1 -53c0 -24.667 4.83301 -42.667 14.5 -54s23.167 -17 40.5 -17c22 0 48.333 9.5 79 28.5s64.667 50.167 102 93.5c41.333 48.667 62 89.667 62 123
c0 38.667 -20.333 69.334 -61 92.001c-35.333 18 -83.666 27 -144.999 27l-80 -1c-23.333 0 -40.333 -1.33301 -51 -4c-50.667 -6 -85.334 -31.667 -104.001 -77c-4 -10 -7 -23.667 -9 -41c0 -14.667 -3.33301 -23 -10 -25c-10.667 0 -18.667 1.66699 -24 5
c-8.66699 5.33301 -13 14.333 -13 27c0 8.66699 1 16.834 3 24.501s3.66699 13.167 5 16.5s4.66602 9 9.99902 17c18 38.667 37.333 65.334 58 80.001c40.667 28.667 107.334 43 200.001 43z" />
    <glyph glyph-name="Eth" unicode="&#x420;" horiz-adv-x="557" 
d="M276 679c98.667 0 172.999 -19.002 222.999 -57.002c38.667 -30.667 58 -69.334 58 -116.001c0 -44 -21 -94 -63 -150c-38 -51.333 -79.333 -90.333 -124 -117c-30 -18.667 -55.667 -31.667 -77 -39c-10 -3.33301 -19.667 -6 -29 -8s-18.333 -3 -27 -3
c-11.333 0 -18.666 0.666992 -21.999 2l-23 7c0 -52.667 3.33301 -94.334 10 -125.001l24 -78c-0.666992 -1.33301 -1.33398 -2.83301 -2.00098 -4.5s-2 -3.5 -4 -5.5l-14 -4c-35.333 0 -56.666 27 -63.999 81l-5 91l2 113l2 110v37c0 31.333 3 52.333 9 63
s14.333 16.334 25 17.001c8 0 17 -4 27 -12s15 -16.333 15 -25c0 -8 -1.66699 -14 -5 -18l-9 -25l-3 -39l-1 -53c0 -24.667 4.83301 -42.667 14.5 -54s23.167 -17 40.5 -17c22 0 48.333 9.5 79 28.5s64.667 50.167 102 93.5c41.333 48.667 62 89.667 62 123
c0 38.667 -20.333 69.334 -61 92.001c-35.333 18 -83.666 27 -144.999 27l-80 -1c-23.333 0 -40.333 -1.33301 -51 -4c-50.667 -6 -85.334 -31.667 -104.001 -77c-4 -10 -7 -23.667 -9 -41c0 -14.667 -3.33301 -23 -10 -25c-10.667 0 -18.667 1.66699 -24 5
c-8.66699 5.33301 -13 14.333 -13 27c0 8.66699 1 16.834 3 24.501s3.66699 13.167 5 16.5s4.66602 9 9.99902 17c18 38.667 37.333 65.334 58 80.001c40.667 28.667 107.334 43 200.001 43z" />
    <glyph glyph-name="Ntilde" unicode="&#xd1;" horiz-adv-x="534" 
d="M314 639c27.333 0 51.6719 -14 73.0049 -42c13.333 -20 25.666 -51 36.999 -93l3 -22l-3 -13c-6.66699 -8.66699 -17 -13 -31 -13c-12 0 -20 4.5 -24 13.5s-6 18.167 -6 27.5c0 16.667 -1.33301 28.667 -4 36c-5.33301 15.333 -16.333 23 -33 23
c-22.667 0 -47.334 -8.66699 -74.001 -26c-18.667 -11.333 -35.667 -25.666 -51 -42.999c-8.66699 -10 -16.834 -20.333 -24.501 -31s-16.167 -24.334 -25.5 -41.001c-20.667 -44.667 -31 -90.667 -31 -138c0 -18 4 -36 12 -54l12 -21l20 -27c10 -14 22.333 -26.667 37 -38
c22 -18 44 -27 66 -27c14 0 37.167 9 69.5 27s54.166 34.333 65.499 49l17 29c3.33301 4.66699 20 10.334 50 17.001l24 2c12 0 18.333 -3.66699 19 -11c0 -10 -17.667 -30.667 -53 -62c-23.333 -20 -56.333 -45.333 -99 -76l-28 -18
c-10 -6.66699 -17.667 -11.334 -23 -14.001c-15.333 -6.66699 -31 -10 -47 -10c-17.333 0 -36.333 5 -57 15s-44.334 27.333 -71.001 52s-45.167 47.167 -55.5 67.5s-15.5 47.5 -15.5 81.5c0 40 5 79.667 15 119s23 73.333 39 102c16.667 27.333 45 59.333 85 96
c46 42 83.333 63 112 63z" />
    <glyph glyph-name="Ntilde" unicode="&#x421;" horiz-adv-x="534" 
d="M314 639c27.333 0 51.6719 -14 73.0049 -42c13.333 -20 25.666 -51 36.999 -93l3 -22l-3 -13c-6.66699 -8.66699 -17 -13 -31 -13c-12 0 -20 4.5 -24 13.5s-6 18.167 -6 27.5c0 16.667 -1.33301 28.667 -4 36c-5.33301 15.333 -16.333 23 -33 23
c-22.667 0 -47.334 -8.66699 -74.001 -26c-18.667 -11.333 -35.667 -25.666 -51 -42.999c-8.66699 -10 -16.834 -20.333 -24.501 -31s-16.167 -24.334 -25.5 -41.001c-20.667 -44.667 -31 -90.667 -31 -138c0 -18 4 -36 12 -54l12 -21l20 -27c10 -14 22.333 -26.667 37 -38
c22 -18 44 -27 66 -27c14 0 37.167 9 69.5 27s54.166 34.333 65.499 49l17 29c3.33301 4.66699 20 10.334 50 17.001l24 2c12 0 18.333 -3.66699 19 -11c0 -10 -17.667 -30.667 -53 -62c-23.333 -20 -56.333 -45.333 -99 -76l-28 -18
c-10 -6.66699 -17.667 -11.334 -23 -14.001c-15.333 -6.66699 -31 -10 -47 -10c-17.333 0 -36.333 5 -57 15s-44.334 27.333 -71.001 52s-45.167 47.167 -55.5 67.5s-15.5 47.5 -15.5 81.5c0 40 5 79.667 15 119s23 73.333 39 102c16.667 27.333 45 59.333 85 96
c46 42 83.333 63 112 63z" />
    <glyph glyph-name="Ograve" unicode="&#xd2;" horiz-adv-x="656" 
d="M305 663c10.667 -2 18.335 -5.33105 23.002 -9.99805l8 -19c5.33301 -13.333 13.666 -20 24.999 -20c12 0 31 4.66699 57 14l67 20c96 24 153.333 36 172 36l22 -2l20 -2c8 0 14.667 1.33301 20 4l21 14c13.333 0 24.333 -3.33301 33 -10s13 -16.334 13 -29.001
c0 -8.66699 -4.66699 -15.667 -14 -21l-11 -2l-24 2l-12 1c-12 0 -21.333 -0.666992 -28 -2s-20 -4.33301 -40 -9l-77 -16l-40 -8l-69 -18l-138 -30v-223l3 -170l-2 -33l-2 -23c0 -26 4.33301 -44.333 13 -55s13 -28 13 -52l-1 -22l2 -13c1.33301 -5.33301 5 -12.5 11 -21.5
s9 -16.167 9 -21.5l-4 -10c-4 -5.33301 -11 -9 -21 -11c-22 0 -41 14 -57 42c-14 28 -21 56.333 -21 85c0 25.333 1.66699 43.333 5 54l13 63c-0.666992 2 -1.66699 4.66699 -3 8s-3.33301 6.66602 -6 9.99902c-6 8 -9 15 -9 21l3 28l4 25l-1 28v18
c-2 9.33301 -3.33301 16.666 -4 21.999l-5 67l3 53v114l-132 -21l-38 -4l-67 3l-16 -1h-11c-2.66699 0 -9 -1.33301 -19 -4l-29 -2c-10 0 -18.333 5.66699 -25 17c-6.66699 13.333 -10 25.333 -10 36c0 6 2.16699 11.5 6.5 16.5s10.5 7.83301 18.5 8.5l11 -3l11 -4l9 -2
l22 2l35 3h19l20 -2l38 -3l40 -1c9.33301 0 21.666 2 36.999 6l39 9l13 -1l13 -3l8 3l7 17v25c0 14.667 2.33301 24.334 7 29.001c4 2 11.333 2 22 0z" />
    <glyph glyph-name="Ograve" unicode="&#x422;" horiz-adv-x="656" 
d="M305 663c10.667 -2 18.335 -5.33105 23.002 -9.99805l8 -19c5.33301 -13.333 13.666 -20 24.999 -20c12 0 31 4.66699 57 14l67 20c96 24 153.333 36 172 36l22 -2l20 -2c8 0 14.667 1.33301 20 4l21 14c13.333 0 24.333 -3.33301 33 -10s13 -16.334 13 -29.001
c0 -8.66699 -4.66699 -15.667 -14 -21l-11 -2l-24 2l-12 1c-12 0 -21.333 -0.666992 -28 -2s-20 -4.33301 -40 -9l-77 -16l-40 -8l-69 -18l-138 -30v-223l3 -170l-2 -33l-2 -23c0 -26 4.33301 -44.333 13 -55s13 -28 13 -52l-1 -22l2 -13c1.33301 -5.33301 5 -12.5 11 -21.5
s9 -16.167 9 -21.5l-4 -10c-4 -5.33301 -11 -9 -21 -11c-22 0 -41 14 -57 42c-14 28 -21 56.333 -21 85c0 25.333 1.66699 43.333 5 54l13 63c-0.666992 2 -1.66699 4.66699 -3 8s-3.33301 6.66602 -6 9.99902c-6 8 -9 15 -9 21l3 28l4 25l-1 28v18
c-2 9.33301 -3.33301 16.666 -4 21.999l-5 67l3 53v114l-132 -21l-38 -4l-67 3l-16 -1h-11c-2.66699 0 -9 -1.33301 -19 -4l-29 -2c-10 0 -18.333 5.66699 -25 17c-6.66699 13.333 -10 25.333 -10 36c0 6 2.16699 11.5 6.5 16.5s10.5 7.83301 18.5 8.5l11 -3l11 -4l9 -2
l22 2l35 3h19l20 -2l38 -3l40 -1c9.33301 0 21.666 2 36.999 6l39 9l13 -1l13 -3l8 3l7 17v25c0 14.667 2.33301 24.334 7 29.001c4 2 11.333 2 22 0z" />
    <glyph glyph-name="Oacute" unicode="&#xd3;" horiz-adv-x="532" 
d="M491 693c9.33301 0 15.998 -1.66602 19.998 -4.99902c4 -2 6.33301 -6.33301 7 -13c0 -8.66699 -1.66699 -15.667 -5 -21c-2 -6 -7.33301 -14.333 -16 -25l-42 -64l-36 -64l-10 -36c-2 -13.333 -4.33301 -24.333 -7 -33s-8 -21.667 -16 -39l-23 -45l-17 -34l-40 -93
c-18.667 -60.667 -35 -105.667 -49 -135c-26 -61.333 -52.667 -92 -80 -92c-10 0 -20.667 2.33301 -32 7c-10 5.33301 -15 12 -15 20c0 6 12 26 36 60c16 20.667 31.333 45.667 46 75l58 130l-78 88l-39 44l-69 105c-39.333 64.667 -59 104 -59 118
c0 3.33301 4 7.66602 12 12.999c6.66699 3.33301 16.334 6 29.001 8c16 0 31.333 -14.333 46 -43c24.667 -55.333 47.334 -95.666 68.001 -120.999l55 -65l62 -61c32.667 73.333 59.667 130.666 81 171.999l43 82c8 22 15.333 37.333 22 46c11.333 14 27.333 21 48 21z" />
    <glyph glyph-name="Oacute" unicode="&#x423;" horiz-adv-x="532" 
d="M491 693c9.33301 0 15.998 -1.66602 19.998 -4.99902c4 -2 6.33301 -6.33301 7 -13c0 -8.66699 -1.66699 -15.667 -5 -21c-2 -6 -7.33301 -14.333 -16 -25l-42 -64l-36 -64l-10 -36c-2 -13.333 -4.33301 -24.333 -7 -33s-8 -21.667 -16 -39l-23 -45l-17 -34l-40 -93
c-18.667 -60.667 -35 -105.667 -49 -135c-26 -61.333 -52.667 -92 -80 -92c-10 0 -20.667 2.33301 -32 7c-10 5.33301 -15 12 -15 20c0 6 12 26 36 60c16 20.667 31.333 45.667 46 75l58 130l-78 88l-39 44l-69 105c-39.333 64.667 -59 104 -59 118
c0 3.33301 4 7.66602 12 12.999c6.66699 3.33301 16.334 6 29.001 8c16 0 31.333 -14.333 46 -43c24.667 -55.333 47.334 -95.666 68.001 -120.999l55 -65l62 -61c32.667 73.333 59.667 130.666 81 171.999l43 82c8 22 15.333 37.333 22 46c11.333 14 27.333 21 48 21z" />
    <glyph glyph-name="Ocircumflex" unicode="&#xd4;" horiz-adv-x="763" 
d="M357 633l-2.99707 26l-1 31c0 6 7 12 21 18s26 9 36 9c5.33301 0 9 -1.66699 11 -5l1 -29v-21l-4 -29c86 0 158.667 -21.333 218 -64c29.333 -21.333 51.333 -45 66 -71s22 -55.667 22 -89c0 -68.667 -27.333 -134.667 -82 -198c-62 -72 -146 -124 -252 -156
c0 -16.667 1.33301 -30 4 -40l4 -21c0 -14 -4.33301 -24.333 -13 -31s-19 -10 -31 -10c-8.66699 0 -17.334 7.33301 -26.001 22c-6 14 -9 30.667 -9 50v10l2 10c-72.667 0 -138.834 21.5 -198.501 64.5s-89.5 89.167 -89.5 138.5c0 68.667 11.667 123 35 163
c20 34 42.667 51 68 51c5.33301 0 11 -2 17 -6c4 -4 7 -9.66699 9 -17c0 -4 -11.667 -17.667 -35 -41c-23.333 -22 -35 -55 -35 -99c0 -58 22.667 -105.167 68 -141.5s100.666 -54.5 165.999 -54.5c0 52 2.33301 90.667 7 116c12 69.333 18 127 18 173l-3 63l3 46l9 78
c-66.667 0 -123.167 -18.5 -169.5 -55.5s-78.833 -55.5 -97.5 -55.5c-18 0 -27 3.33301 -27 10c0 24.667 25.667 54.667 77 90c62.667 43.333 134 65 214 65zM420.003 576l-8 -114.998l-4 -151c0 -44.667 -2 -78.334 -6 -101.001s-6 -53.334 -6 -92.001
c73.333 23.333 128 51 164 83c23.333 21.333 46.333 54.666 69 99.999l12 27l11 33l5 28l2 25c0 39.333 -12 71.333 -36 96s-57 42.334 -99 53.001l-39 6z" />
    <glyph glyph-name="Ocircumflex" unicode="&#x424;" horiz-adv-x="763" 
d="M357 633l-2.99707 26l-1 31c0 6 7 12 21 18s26 9 36 9c5.33301 0 9 -1.66699 11 -5l1 -29v-21l-4 -29c86 0 158.667 -21.333 218 -64c29.333 -21.333 51.333 -45 66 -71s22 -55.667 22 -89c0 -68.667 -27.333 -134.667 -82 -198c-62 -72 -146 -124 -252 -156
c0 -16.667 1.33301 -30 4 -40l4 -21c0 -14 -4.33301 -24.333 -13 -31s-19 -10 -31 -10c-8.66699 0 -17.334 7.33301 -26.001 22c-6 14 -9 30.667 -9 50v10l2 10c-72.667 0 -138.834 21.5 -198.501 64.5s-89.5 89.167 -89.5 138.5c0 68.667 11.667 123 35 163
c20 34 42.667 51 68 51c5.33301 0 11 -2 17 -6c4 -4 7 -9.66699 9 -17c0 -4 -11.667 -17.667 -35 -41c-23.333 -22 -35 -55 -35 -99c0 -58 22.667 -105.167 68 -141.5s100.666 -54.5 165.999 -54.5c0 52 2.33301 90.667 7 116c12 69.333 18 127 18 173l-3 63l3 46l9 78
c-66.667 0 -123.167 -18.5 -169.5 -55.5s-78.833 -55.5 -97.5 -55.5c-18 0 -27 3.33301 -27 10c0 24.667 25.667 54.667 77 90c62.667 43.333 134 65 214 65zM420.003 576l-8 -114.998l-4 -151c0 -44.667 -2 -78.334 -6 -101.001s-6 -53.334 -6 -92.001
c73.333 23.333 128 51 164 83c23.333 21.333 46.333 54.666 69 99.999l12 27l11 33l5 28l2 25c0 39.333 -12 71.333 -36 96s-57 42.334 -99 53.001l-39 6z" />
    <glyph glyph-name="Otilde" unicode="&#xd5;" horiz-adv-x="654" 
d="M112 754c22 0 42.0029 -21.334 60.0029 -64.001l35 -88l39 -47l7 -22l9 -41c2 -12 8.66699 -27.667 20 -47s21.666 -35.666 30.999 -48.999l32 -45c19.333 4 35.666 11 48.999 21l34 29c3.33301 2 10 5.5 20 10.5s19.667 9.16699 29 12.5c28.667 8 53.667 23.333 75 46
l23 25c10 10 22 20 36 30l46 33c21.333 13.333 37.666 20 48.999 20c4.66699 0 7 -7.33301 7 -22c0 -14 -15 -36 -45 -66c-15.333 -14.667 -31.333 -28.667 -48 -42s-36.334 -27.333 -59.001 -42l-56 -26c-17.333 -10.667 -53 -37.667 -107 -81l36 -63l23 -39l42 -48
c8.66699 -9.33301 20 -24.666 34 -45.999c18.667 -30 52.334 -65 101.001 -105c15.333 -13.333 23 -26 23 -38c0 -6.66699 -2.66699 -13.5 -8 -20.5s-12.666 -12.5 -21.999 -16.5l-15 -3l-16 2c-26 6 -45.667 21 -59 45c-16 38 -36.333 68.333 -61 91c-10 10 -42 61 -96 153
c-16 28 -33 42 -51 42c-14 0 -28.667 -6.66699 -44 -20c-54.667 -47.333 -90 -75.333 -106 -84c-56 -30 -92 -65 -108 -105c-10 -27.333 -26 -41 -48 -41c-10 0 -20.833 3.83301 -32.5 11.5s-18.5 16.5 -20.5 26.5c0 17.333 13.333 36.333 40 57l88 69l29 36l16 7l53 22
c35.333 12 67.666 36.667 96.999 74c-24 28 -41.333 54.667 -52 80l-21 58l-17 30l-32 50l-12 24l-21 41c-4 7.33301 -7 15 -9 23l-5 22c-1.33301 8.66699 -4 14.667 -8 18c-2 3.33301 -8.33301 9.16602 -19 17.499s-18 16.5 -22 24.5v22c3.33301 16 9.33301 27 18 33z" />
    <glyph glyph-name="Otilde" unicode="&#x425;" horiz-adv-x="654" 
d="M112 754c22 0 42.0029 -21.334 60.0029 -64.001l35 -88l39 -47l7 -22l9 -41c2 -12 8.66699 -27.667 20 -47s21.666 -35.666 30.999 -48.999l32 -45c19.333 4 35.666 11 48.999 21l34 29c3.33301 2 10 5.5 20 10.5s19.667 9.16699 29 12.5c28.667 8 53.667 23.333 75 46
l23 25c10 10 22 20 36 30l46 33c21.333 13.333 37.666 20 48.999 20c4.66699 0 7 -7.33301 7 -22c0 -14 -15 -36 -45 -66c-15.333 -14.667 -31.333 -28.667 -48 -42s-36.334 -27.333 -59.001 -42l-56 -26c-17.333 -10.667 -53 -37.667 -107 -81l36 -63l23 -39l42 -48
c8.66699 -9.33301 20 -24.666 34 -45.999c18.667 -30 52.334 -65 101.001 -105c15.333 -13.333 23 -26 23 -38c0 -6.66699 -2.66699 -13.5 -8 -20.5s-12.666 -12.5 -21.999 -16.5l-15 -3l-16 2c-26 6 -45.667 21 -59 45c-16 38 -36.333 68.333 -61 91c-10 10 -42 61 -96 153
c-16 28 -33 42 -51 42c-14 0 -28.667 -6.66699 -44 -20c-54.667 -47.333 -90 -75.333 -106 -84c-56 -30 -92 -65 -108 -105c-10 -27.333 -26 -41 -48 -41c-10 0 -20.833 3.83301 -32.5 11.5s-18.5 16.5 -20.5 26.5c0 17.333 13.333 36.333 40 57l88 69l29 36l16 7l53 22
c35.333 12 67.666 36.667 96.999 74c-24 28 -41.333 54.667 -52 80l-21 58l-17 30l-32 50l-12 24l-21 41c-4 7.33301 -7 15 -9 23l-5 22c-1.33301 8.66699 -4 14.667 -8 18c-2 3.33301 -8.33301 9.16602 -19 17.499s-18 16.5 -22 24.5v22c3.33301 16 9.33301 27 18 33z" />
    <glyph glyph-name="Odieresis" unicode="&#xd6;" horiz-adv-x="794" 
d="M166 746c2 -0.666992 3.84082 -1.33203 5.50781 -1.99902s4.66699 -2.83398 9 -6.50098s6.83301 -10.5 7.5 -20.5c-8 -23.333 -16.667 -54 -26 -92l-18 -71c-2.66699 -14.667 -4.83398 -27.334 -6.50098 -38.001s-4.16699 -31.667 -7.5 -63s-5 -65 -5 -101
c0 -102.667 2.33301 -166 7 -190c11.333 -64 37.666 -96 78.999 -96c32 0 77 41.333 135 124c24.667 36 44.667 68.333 60 97c7.33301 13.333 14.666 28 21.999 44l19 43c3.33301 12.667 10.666 74.334 21.999 185.001c6 70.667 27 106 63 106
c3.33301 0 7.66602 -1.66699 12.999 -5s9 -8 11 -14c0 -26.667 -7.66699 -80.334 -23 -161.001c-2 -10 -4.66699 -27.5 -8 -52.5s-6.66602 -52.5 -9.99902 -82.5s-5 -62.667 -5 -98c0 -14.667 1 -29.667 3 -45s5.33301 -31.333 10 -48c9.33301 -32 23.333 -48 42 -48
c14 0 33.333 13.333 58 40l55 61l51 43c17.333 13.333 32.666 20 45.999 20c7.33301 0 15.666 -4.83301 24.999 -14.5s14 -24.5 14 -44.5c0 -61.333 -5 -123 -15 -185c-4.66699 -32.667 -9.66699 -62.667 -15 -90s-12 -56.666 -20 -87.999l-43 -186
c-14 -62 -26 -105 -36 -129c-13.333 -32 -27 -48 -41 -48c-8 0 -15.667 3.66699 -23 11s-11 19.333 -11 36c0 15.333 4.33301 29.666 13 42.999c25.333 40 42.666 74.333 51.999 103l8 33l2 16l-1 16c0 14.667 2.33301 33.334 7 56.001l19 79l13 75l13 74
c11.333 76 17 123.333 17 142c0 5.33301 -3.66699 9 -11 11c-6 0 -21 -12 -45 -36l-81 -88c-15.333 -11.333 -34 -17 -56 -17c-36.667 0 -64.334 22.333 -83.001 67c-14 36 -21 85.333 -21 148c-33.333 -62.667 -74 -120 -122 -172c-53.333 -58 -96 -87 -128 -87
s-59.333 13.333 -82 40c-34.667 42.667 -52 116 -52 220l3 43l7 72l-2 47l-2 37c0 42.667 9.5 101.167 28.5 175.5s38.833 111.5 59.5 111.5z" />
    <glyph glyph-name="Odieresis" unicode="&#x426;" horiz-adv-x="794" 
d="M166 746c2 -0.666992 3.84082 -1.33203 5.50781 -1.99902s4.66699 -2.83398 9 -6.50098s6.83301 -10.5 7.5 -20.5c-8 -23.333 -16.667 -54 -26 -92l-18 -71c-2.66699 -14.667 -4.83398 -27.334 -6.50098 -38.001s-4.16699 -31.667 -7.5 -63s-5 -65 -5 -101
c0 -102.667 2.33301 -166 7 -190c11.333 -64 37.666 -96 78.999 -96c32 0 77 41.333 135 124c24.667 36 44.667 68.333 60 97c7.33301 13.333 14.666 28 21.999 44l19 43c3.33301 12.667 10.666 74.334 21.999 185.001c6 70.667 27 106 63 106
c3.33301 0 7.66602 -1.66699 12.999 -5s9 -8 11 -14c0 -26.667 -7.66699 -80.334 -23 -161.001c-2 -10 -4.66699 -27.5 -8 -52.5s-6.66602 -52.5 -9.99902 -82.5s-5 -62.667 -5 -98c0 -14.667 1 -29.667 3 -45s5.33301 -31.333 10 -48c9.33301 -32 23.333 -48 42 -48
c14 0 33.333 13.333 58 40l55 61l51 43c17.333 13.333 32.666 20 45.999 20c7.33301 0 15.666 -4.83301 24.999 -14.5s14 -24.5 14 -44.5c0 -61.333 -5 -123 -15 -185c-4.66699 -32.667 -9.66699 -62.667 -15 -90s-12 -56.666 -20 -87.999l-43 -186
c-14 -62 -26 -105 -36 -129c-13.333 -32 -27 -48 -41 -48c-8 0 -15.667 3.66699 -23 11s-11 19.333 -11 36c0 15.333 4.33301 29.666 13 42.999c25.333 40 42.666 74.333 51.999 103l8 33l2 16l-1 16c0 14.667 2.33301 33.334 7 56.001l19 79l13 75l13 74
c11.333 76 17 123.333 17 142c0 5.33301 -3.66699 9 -11 11c-6 0 -21 -12 -45 -36l-81 -88c-15.333 -11.333 -34 -17 -56 -17c-36.667 0 -64.334 22.333 -83.001 67c-14 36 -21 85.333 -21 148c-33.333 -62.667 -74 -120 -122 -172c-53.333 -58 -96 -87 -128 -87
s-59.333 13.333 -82 40c-34.667 42.667 -52 116 -52 220l3 43l7 72l-2 47l-2 37c0 42.667 9.5 101.167 28.5 175.5s38.833 111.5 59.5 111.5z" />
    <glyph glyph-name="multiply" unicode="&#xd7;" horiz-adv-x="582" 
d="M492 648c10.667 0 17.835 -1.66602 21.502 -4.99902s6.5 -8.66602 8.5 -15.999c0 -4 -2 -11.667 -6 -23l-17 -41l-1 -13c0 -14 -3.33301 -25.667 -10 -35l-17 -25c-6 -12 -11 -31 -15 -57c0 -12.667 -0.666992 -22.334 -2 -29.001s-4.66602 -19.334 -9.99902 -38.001
l-7 -45c10 0 17.667 1.33301 23 4l23 12l18 8l19 4c12 0 21.333 -2.83301 28 -8.5s10 -12.834 10 -21.501c0 -12.667 -18.333 -26.334 -55 -41.001l-42 -10c-12.667 0 -22 -1.33301 -28 -4v-21v-17v-14v-12l-1 -29l-3 -34l-10 -61c0 -15.333 3.66699 -28 11 -38
c4 -5.33301 6 -10.666 6 -15.999c0 -6 -3.83301 -12 -11.5 -18s-15.5 -9 -23.5 -9s-17 2 -27 6s-15 9 -15 15l4 26l4 28l-2 22l-1 27c0 18.667 1 33 3 43c6 23.333 9 52.666 9 87.999c-35.333 -10 -71 -15 -107 -15l-54 3c-6.66699 0 -14.334 1.33301 -23.001 4l-26 7
c-44.667 12 -76.667 28.333 -96 49c-12 12.667 -21.667 40.334 -29 83.001l-11 50c0 9.33301 2 22 6 38l6 19l8 23l20 87c7.33301 22 23.666 33 48.999 33c12 0 18 -9.33301 18 -28c0 -5.33301 -1.33301 -11 -4 -17l-7 -15l-6 -19c-1.33301 -10.667 -3 -18 -5 -22l-16 -40
c-4.66699 -18.667 -7 -40.667 -7 -66c0 -40 9.33301 -70.667 28 -92c13.333 -14 35 -25 65 -33s59.333 -12 88 -12h27c11.333 2 22 3.66699 32 5s25 6 45 14c0 41.333 3.66699 71.333 11 90l22 71l5 32c1.33301 10.667 4 20.334 8 29.001l12 23l11 19
c5.33301 13.333 10.666 30 15.999 50c4 18.667 14 28 30 28z" />
    <glyph glyph-name="multiply" unicode="&#x427;" horiz-adv-x="582" 
d="M492 648c10.667 0 17.835 -1.66602 21.502 -4.99902s6.5 -8.66602 8.5 -15.999c0 -4 -2 -11.667 -6 -23l-17 -41l-1 -13c0 -14 -3.33301 -25.667 -10 -35l-17 -25c-6 -12 -11 -31 -15 -57c0 -12.667 -0.666992 -22.334 -2 -29.001s-4.66602 -19.334 -9.99902 -38.001
l-7 -45c10 0 17.667 1.33301 23 4l23 12l18 8l19 4c12 0 21.333 -2.83301 28 -8.5s10 -12.834 10 -21.501c0 -12.667 -18.333 -26.334 -55 -41.001l-42 -10c-12.667 0 -22 -1.33301 -28 -4v-21v-17v-14v-12l-1 -29l-3 -34l-10 -61c0 -15.333 3.66699 -28 11 -38
c4 -5.33301 6 -10.666 6 -15.999c0 -6 -3.83301 -12 -11.5 -18s-15.5 -9 -23.5 -9s-17 2 -27 6s-15 9 -15 15l4 26l4 28l-2 22l-1 27c0 18.667 1 33 3 43c6 23.333 9 52.666 9 87.999c-35.333 -10 -71 -15 -107 -15l-54 3c-6.66699 0 -14.334 1.33301 -23.001 4l-26 7
c-44.667 12 -76.667 28.333 -96 49c-12 12.667 -21.667 40.334 -29 83.001l-11 50c0 9.33301 2 22 6 38l6 19l8 23l20 87c7.33301 22 23.666 33 48.999 33c12 0 18 -9.33301 18 -28c0 -5.33301 -1.33301 -11 -4 -17l-7 -15l-6 -19c-1.33301 -10.667 -3 -18 -5 -22l-16 -40
c-4.66699 -18.667 -7 -40.667 -7 -66c0 -40 9.33301 -70.667 28 -92c13.333 -14 35 -25 65 -33s59.333 -12 88 -12h27c11.333 2 22 3.66699 32 5s25 6 45 14c0 41.333 3.66699 71.333 11 90l22 71l5 32c1.33301 10.667 4 20.334 8 29.001l12 23l11 19
c5.33301 13.333 10.666 30 15.999 50c4 18.667 14 28 30 28z" />
    <glyph glyph-name="Oslash" unicode="&#xd8;" horiz-adv-x="1001" 
d="M113 537c12.667 0 20.8301 -2.66602 24.4971 -7.99902s5.5 -12.333 5.5 -21v-10l-3 -35l-6 -31l-5 -46v-34c0 -13.333 0.666992 -24 2 -32l6 -101c0 -40.667 2.33301 -71.334 7 -92.001c10 -46.667 29.333 -70 58 -70c24 0 51.667 32 83 96l32 75l46 96l58 169
c8 26.667 18.167 45.834 30.5 57.501s27.833 17.5 46.5 17.5c6 0 11 -5.66699 15 -17l2 -18l-12 -123c-4 -37.333 -6 -75.666 -6 -114.999c0 -60.667 3.33301 -106.334 10 -137.001c11.333 -52.667 32.333 -79 63 -79c26 0 52 28 78 84l32 71l38 76l26 70l26 86l13 47
c9.33301 19.333 23 29 41 29c6.66699 0 12.667 -3.16699 18 -9.5s8 -16.5 8 -30.5v-24v-14l-1 -46v-70v-43l-1 -42v-37c0 -56.667 2.83301 -93.334 8.5 -110.001s13.834 -25.334 24.501 -26.001c2 1.33301 3.66699 2.66602 5 3.99902c5.33301 4.66699 10 9.33398 14 14.001
c4 6.66699 8.66699 11.334 14 14.001l10 3l9 -2c5.33301 -2.66699 9 -7.33398 11 -14.001c0 -16 -9 -36.833 -27 -62.5s-34 -38.5 -48 -38.5c-23.333 0 -42.666 18 -57.999 54c-6 18 -13 51 -21 99c0 8 -0.666992 13.667 -2 17v14l1 29l1 30l-1 50v56v29
c-38.667 -131.333 -76.167 -225.666 -112.5 -282.999s-74.166 -86 -113.499 -86c-47.333 0 -81.666 30 -102.999 90c-6 20 -11 43.333 -15 70c-3.33301 30 -5 62.333 -5 97l3 72l8 74l-11 -39.5c-3.33301 -12.333 -7.33301 -25.166 -12 -38.499
c-6.66699 -20 -15.667 -42.333 -27 -67l-54 -117c-28 -62 -52.5 -104.5 -73.5 -127.5s-43.833 -34.5 -68.5 -34.5c-55.333 0 -92 32 -110 96l-17 112c-8 62 -12 117.667 -12 167c0 27.333 1 51.166 3 71.499s5.33301 37.833 10 52.5c9.33301 28 20.666 42 33.999 42z" />
    <glyph glyph-name="Oslash" unicode="&#x428;" horiz-adv-x="1001" 
d="M113 537c12.667 0 20.8301 -2.66602 24.4971 -7.99902s5.5 -12.333 5.5 -21v-10l-3 -35l-6 -31l-5 -46v-34c0 -13.333 0.666992 -24 2 -32l6 -101c0 -40.667 2.33301 -71.334 7 -92.001c10 -46.667 29.333 -70 58 -70c24 0 51.667 32 83 96l32 75l46 96l58 169
c8 26.667 18.167 45.834 30.5 57.501s27.833 17.5 46.5 17.5c6 0 11 -5.66699 15 -17l2 -18l-12 -123c-4 -37.333 -6 -75.666 -6 -114.999c0 -60.667 3.33301 -106.334 10 -137.001c11.333 -52.667 32.333 -79 63 -79c26 0 52 28 78 84l32 71l38 76l26 70l26 86l13 47
c9.33301 19.333 23 29 41 29c6.66699 0 12.667 -3.16699 18 -9.5s8 -16.5 8 -30.5v-24v-14l-1 -46v-70v-43l-1 -42v-37c0 -56.667 2.83301 -93.334 8.5 -110.001s13.834 -25.334 24.501 -26.001c2 1.33301 3.66699 2.66602 5 3.99902c5.33301 4.66699 10 9.33398 14 14.001
c4 6.66699 8.66699 11.334 14 14.001l10 3l9 -2c5.33301 -2.66699 9 -7.33398 11 -14.001c0 -16 -9 -36.833 -27 -62.5s-34 -38.5 -48 -38.5c-23.333 0 -42.666 18 -57.999 54c-6 18 -13 51 -21 99c0 8 -0.666992 13.667 -2 17v14l1 29l1 30l-1 50v56v29
c-38.667 -131.333 -76.167 -225.666 -112.5 -282.999s-74.166 -86 -113.499 -86c-47.333 0 -81.666 30 -102.999 90c-6 20 -11 43.333 -15 70c-3.33301 30 -5 62.333 -5 97l3 72l8 74l-11 -39.5c-3.33301 -12.333 -7.33301 -25.166 -12 -38.499
c-6.66699 -20 -15.667 -42.333 -27 -67l-54 -117c-28 -62 -52.5 -104.5 -73.5 -127.5s-43.833 -34.5 -68.5 -34.5c-55.333 0 -92 32 -110 96l-17 112c-8 62 -12 117.667 -12 167c0 27.333 1 51.166 3 71.499s5.33301 37.833 10 52.5c9.33301 28 20.666 42 33.999 42z" />
    <glyph glyph-name="Ugrave" unicode="&#xd9;" horiz-adv-x="1058" 
d="M980 -147l19.0049 87.999l8 60l11 110l-3 1l-12 3c-12 0 -23 -6 -33 -18l-19 -23c-12 -12 -24.667 -22.333 -38 -31c-18.667 -11.333 -35 -17 -49 -17c-24.667 0 -43.334 14.667 -56.001 44c-4 10 -10 40.333 -18 91c0 7.33301 -0.666992 12.666 -2 15.999v14l1 30l1 30
l-1 49v54v26c-38 -128.667 -75.333 -221.5 -112 -278.5s-74.334 -85.5 -113.001 -85.5c-48 0 -82.667 30 -104 90c-13.333 42 -20 98 -20 168l2 65l7 69c-8 -29.333 -16 -55.333 -24 -78s-16.667 -44.334 -26 -65.001l-51 -110l-29 -60
c-7.33301 -16 -15.333 -29.333 -24 -40c-28 -40 -57.667 -60 -89 -60c-41.333 0 -74 19.333 -98 58c-12.667 24 -22.667 57 -30 99c-2.66699 19.333 -5 43.333 -7 72s-3 58.334 -3 89.001l1 83v30c0 9.33301 0.666992 20 2 32c0 15.333 0.666992 26.333 2 33l7 29l6 21l8 16
c8 13.333 15.667 21 23 23c12 0 20 -2 24 -6s6.66699 -11.333 8 -22l-1 -12c0 -22.667 -3.33301 -53.667 -10 -93c-4 -25.333 -6 -47.666 -6 -66.999v-66c0 -78 3 -135 9 -171c9.33301 -56 27.333 -84 54 -84c27.333 0 55.666 29 84.999 87l37 82l56 122l27 81l35 113
c7.33301 26.667 17 46 29 58s28.333 18 49 18c3.33301 0 7.66602 -4 12.999 -12l5 -24c0 -26 -7 -75.667 -21 -149c-3.33301 -17.333 -6 -38 -8 -62s-3 -50 -3 -78c0 -34 0.666992 -61.167 2 -81.5s4.33301 -39.5 9 -57.5c10 -50.667 28.667 -76 56 -76
c18 0 35 10.333 51 31l63 123c28 56 49 103 63 141c7.33301 20 15 43.667 23 71s16 58 24 92c4 24.667 8.33301 40.667 13 48c9.33301 19.333 23.333 29 42 29c10 0 17 -4.16699 21 -12.5s6 -17.833 6 -28.5l-7 -87l-2 -78c0 -12.667 -0.833008 -33.667 -2.5 -63
s-2.5 -49.333 -2.5 -60l-4 -93v-33c0 -8 0.166992 -16.667 0.5 -26s1.66602 -19.333 3.99902 -30s9.16602 -16.667 20.499 -18c8 0 19 7 33 21l66 64l27 10l32 4c16 0 27 -7 33 -21s9 -33 9 -57l-1 -32l-1 -28c0 -17.333 -4 -41 -12 -71l-14 -55l-8 -39l-3 -25
c0 -9.33301 -3 -28 -9 -56c-15.333 -66.667 -28.666 -112 -39.999 -136c-14 -30.667 -29.333 -46 -46 -46c-8 0 -15.333 5.33301 -22 16c-5.33301 10.667 -8 22.334 -8 35.001c0 16 6.33301 33.667 19 53l31 46c4 8 7 22.667 9 44z" />
    <glyph glyph-name="Ugrave" unicode="&#x429;" horiz-adv-x="1058" 
d="M980 -147l19.0049 87.999l8 60l11 110l-3 1l-12 3c-12 0 -23 -6 -33 -18l-19 -23c-12 -12 -24.667 -22.333 -38 -31c-18.667 -11.333 -35 -17 -49 -17c-24.667 0 -43.334 14.667 -56.001 44c-4 10 -10 40.333 -18 91c0 7.33301 -0.666992 12.666 -2 15.999v14l1 30l1 30
l-1 49v54v26c-38 -128.667 -75.333 -221.5 -112 -278.5s-74.334 -85.5 -113.001 -85.5c-48 0 -82.667 30 -104 90c-13.333 42 -20 98 -20 168l2 65l7 69c-8 -29.333 -16 -55.333 -24 -78s-16.667 -44.334 -26 -65.001l-51 -110l-29 -60
c-7.33301 -16 -15.333 -29.333 -24 -40c-28 -40 -57.667 -60 -89 -60c-41.333 0 -74 19.333 -98 58c-12.667 24 -22.667 57 -30 99c-2.66699 19.333 -5 43.333 -7 72s-3 58.334 -3 89.001l1 83v30c0 9.33301 0.666992 20 2 32c0 15.333 0.666992 26.333 2 33l7 29l6 21l8 16
c8 13.333 15.667 21 23 23c12 0 20 -2 24 -6s6.66699 -11.333 8 -22l-1 -12c0 -22.667 -3.33301 -53.667 -10 -93c-4 -25.333 -6 -47.666 -6 -66.999v-66c0 -78 3 -135 9 -171c9.33301 -56 27.333 -84 54 -84c27.333 0 55.666 29 84.999 87l37 82l56 122l27 81l35 113
c7.33301 26.667 17 46 29 58s28.333 18 49 18c3.33301 0 7.66602 -4 12.999 -12l5 -24c0 -26 -7 -75.667 -21 -149c-3.33301 -17.333 -6 -38 -8 -62s-3 -50 -3 -78c0 -34 0.666992 -61.167 2 -81.5s4.33301 -39.5 9 -57.5c10 -50.667 28.667 -76 56 -76
c18 0 35 10.333 51 31l63 123c28 56 49 103 63 141c7.33301 20 15 43.667 23 71s16 58 24 92c4 24.667 8.33301 40.667 13 48c9.33301 19.333 23.333 29 42 29c10 0 17 -4.16699 21 -12.5s6 -17.833 6 -28.5l-7 -87l-2 -78c0 -12.667 -0.833008 -33.667 -2.5 -63
s-2.5 -49.333 -2.5 -60l-4 -93v-33c0 -8 0.166992 -16.667 0.5 -26s1.66602 -19.333 3.99902 -30s9.16602 -16.667 20.499 -18c8 0 19 7 33 21l66 64l27 10l32 4c16 0 27 -7 33 -21s9 -33 9 -57l-1 -32l-1 -28c0 -17.333 -4 -41 -12 -71l-14 -55l-8 -39l-3 -25
c0 -9.33301 -3 -28 -9 -56c-15.333 -66.667 -28.666 -112 -39.999 -136c-14 -30.667 -29.333 -46 -46 -46c-8 0 -15.333 5.33301 -22 16c-5.33301 10.667 -8 22.334 -8 35.001c0 16 6.33301 33.667 19 53l31 46c4 8 7 22.667 9 44z" />
    <glyph glyph-name="Uacute" unicode="&#xda;" horiz-adv-x="633" 
d="M219 689c4.66699 0 9.83008 -2.16699 15.4971 -6.5s8.5 -9.16602 8.5 -14.499l-7 -53l-2 -77l2 -47l2 -66l30 5l25 2l33 -2l21 -1h34l41 -1c12.667 0 24 -1.33301 34 -4l30 -9c10.667 -3.33301 22 -9 34 -17c22.667 -12 42 -33 58 -63c16 -28 24 -60.333 24 -97
c0 -58 -19 -109 -57 -153c-23.333 -26 -60 -53.333 -110 -82c-44 -24 -75.667 -40 -95 -48c-20 -6.66699 -34.667 -10 -44 -10l-15 1l-17 1h-18l-19 -1c-16 0 -29.667 2 -41 6s-17 12.333 -17 25c0 5.33301 3 12 9 20c5.33301 5.33301 12.333 8.66602 21 9.99902l18 -5l18 2
l16 3c6.66699 0 14.334 -1.33301 23.001 -4l21 -4l19 3l31 13c76.667 38 131 76.667 163 116c28 34 42 69.667 42 107c0 50 -18.667 86.333 -56 109c-17.333 9.33301 -48.666 18.666 -93.999 27.999l-31 4l-50 4c-16 0 -28.167 -0.5 -36.5 -1.5
s-14.666 -1.83301 -18.999 -2.5s-12.166 -2.66699 -23.499 -6v-60v-29c0 -9.33301 0.666992 -20.666 2 -33.999c0 -12.667 0.666992 -21.667 2 -27l13 -61l9 -51l3 -33c0 -12.667 -1.16699 -22.334 -3.5 -29.001s-5.5 -12 -9.5 -16l-17 -6c-6 0 -11.667 1.33301 -17 4
c-4 3.33301 -7 10.333 -9 21v26l-3 5l-7 9c-2.66699 3.33301 -5.33398 8.33301 -8.00098 15l2 21l-3 21l-5 31l-2 35l1 75l1 76c-2 -2 -5.33301 -3 -10 -3l-12 1l-15 -7c-12 0 -20.833 0.833008 -26.5 2.5s-10.167 4.16699 -13.5 7.5c-2 3.33301 -3 7 -3 11
s1.16699 8.5 3.5 13.5s11.166 9.83301 26.499 14.5l25 5l23 3v44c-2 10.667 -3.33301 18.334 -4 23.001l-6 61c0 16 0.666992 26.333 2 31l7 27h-45h-16.5c-3.66699 0 -14.167 -1.33301 -31.5 -4l-110 -12h-22l-22 1h-10l-10 2l-9 -2l5 -11l4 -10l-3 -7
c-2 -2 -4.66699 -3 -8 -3c-13.333 0 -25.666 4 -36.999 12s-17 19 -17 33c0 17.333 9 30 27 38c9.33301 2.66699 20.5 5 33.5 7s26.5 3 40.5 3l33 -1l27 -1l41 1l43 1h15c6 0 14.333 0.666992 25 2l48 9c2 7.33301 6 14.333 12 21s12.667 10 20 10z" />
    <glyph glyph-name="Uacute" unicode="&#x42a;" horiz-adv-x="633" 
d="M219 689c4.66699 0 9.83008 -2.16699 15.4971 -6.5s8.5 -9.16602 8.5 -14.499l-7 -53l-2 -77l2 -47l2 -66l30 5l25 2l33 -2l21 -1h34l41 -1c12.667 0 24 -1.33301 34 -4l30 -9c10.667 -3.33301 22 -9 34 -17c22.667 -12 42 -33 58 -63c16 -28 24 -60.333 24 -97
c0 -58 -19 -109 -57 -153c-23.333 -26 -60 -53.333 -110 -82c-44 -24 -75.667 -40 -95 -48c-20 -6.66699 -34.667 -10 -44 -10l-15 1l-17 1h-18l-19 -1c-16 0 -29.667 2 -41 6s-17 12.333 -17 25c0 5.33301 3 12 9 20c5.33301 5.33301 12.333 8.66602 21 9.99902l18 -5l18 2
l16 3c6.66699 0 14.334 -1.33301 23.001 -4l21 -4l19 3l31 13c76.667 38 131 76.667 163 116c28 34 42 69.667 42 107c0 50 -18.667 86.333 -56 109c-17.333 9.33301 -48.666 18.666 -93.999 27.999l-31 4l-50 4c-16 0 -28.167 -0.5 -36.5 -1.5
s-14.666 -1.83301 -18.999 -2.5s-12.166 -2.66699 -23.499 -6v-60v-29c0 -9.33301 0.666992 -20.666 2 -33.999c0 -12.667 0.666992 -21.667 2 -27l13 -61l9 -51l3 -33c0 -12.667 -1.16699 -22.334 -3.5 -29.001s-5.5 -12 -9.5 -16l-17 -6c-6 0 -11.667 1.33301 -17 4
c-4 3.33301 -7 10.333 -9 21v26l-3 5l-7 9c-2.66699 3.33301 -5.33398 8.33301 -8.00098 15l2 21l-3 21l-5 31l-2 35l1 75l1 76c-2 -2 -5.33301 -3 -10 -3l-12 1l-15 -7c-12 0 -20.833 0.833008 -26.5 2.5s-10.167 4.16699 -13.5 7.5c-2 3.33301 -3 7 -3 11
s1.16699 8.5 3.5 13.5s11.166 9.83301 26.499 14.5l25 5l23 3v44c-2 10.667 -3.33301 18.334 -4 23.001l-6 61c0 16 0.666992 26.333 2 31l7 27h-45h-16.5c-3.66699 0 -14.167 -1.33301 -31.5 -4l-110 -12h-22l-22 1h-10l-10 2l-9 -2l5 -11l4 -10l-3 -7
c-2 -2 -4.66699 -3 -8 -3c-13.333 0 -25.666 4 -36.999 12s-17 19 -17 33c0 17.333 9 30 27 38c9.33301 2.66699 20.5 5 33.5 7s26.5 3 40.5 3l33 -1l27 -1l41 1l43 1h15c6 0 14.333 0.666992 25 2l48 9c2 7.33301 6 14.333 12 21s12.667 10 20 10z" />
    <glyph glyph-name="Ucircumflex" unicode="&#xdb;" horiz-adv-x="692" 
d="M139 682c4 0 8.5 -2.00391 13.5 -6.00391s8.16699 -8.66699 9.5 -14l-9 -46l-3 -72v-99l32 4l15 1l24 -1l25 -1h20l20 1c20.667 0 38.834 -2 54.501 -6s35 -13.833 58 -29.5s41 -35.167 54 -58.5s19.5 -50.333 19.5 -81c0 -34 -9 -68 -27 -102c-24 -44 -63 -81 -117 -111
l-38 -18l-27 -11c-23.333 -8 -47.666 -14 -72.999 -18l-31 -3c-20.667 0 -34.667 3.33301 -42 10c-7.33301 5.33301 -12 12.333 -14 21c0 6 3 12 9 18s13.333 10 22 12l9 -3l7 -2h29l30 5l25 4l23 9c48 20 85.667 43.667 113 71c34 34 51 73.333 51 118
c0 38 -17.333 69.333 -52 94s-78.667 37 -132 37c-22 0 -37.833 -0.666992 -47.5 -2s-22.834 -4.33301 -39.501 -9c-4 -30 -6 -54 -6 -72v-18c0 -5.33301 0.666992 -12 2 -20l9 -47c8 -34 12 -67 12 -99v-18l-5 -19c-0.666992 -5.33301 -3.66699 -9.66602 -9 -12.999l-18 -6
c-6 0 -11.167 1.33301 -15.5 4s-6.83301 9.33398 -7.5 20.001l1 24l-5 10l-8 9l-4 7l3 19l2 22c0 10 -0.666992 17 -2 21c-4 22 -6 43 -6 63l1 46l1 26v18c2 6.66699 3.33301 11.334 4 14.001l-18 1l-13 -7l-23 1c-6 1.33301 -10.333 4 -13 8l-4 12l3 13
c2 4.66699 10.333 9.33398 25 14.001c7.33301 2 14.5 3.66699 21.5 5s14.167 2 21.5 2v21l-1 13l-1 17v16v12l-2 14c0 63.333 5.33301 107 16 131c7.33301 16 16.666 24 27.999 24zM598 668.996c13.333 0 22.334 -5.66699 27.001 -17l4 -30v-15v-13l-1 -44v-26
c-2 -8 -3.33301 -13.667 -4 -17l-10 -103l-7 -126l-2 -125v-43c0 -14 2.66699 -24.667 8 -32l9 -12c0 -8.66699 -4.33301 -17.5 -13 -26.5s-19.334 -13.5 -32.001 -13.5c-11.333 0 -20.166 14.833 -26.499 44.5s-9.5 67.167 -9.5 112.5c0 61.333 2 110 6 146l6 48l8 55
l-1 63l4 23l5 21l-2 44l-2 36c0 18 2.66699 30.333 8 37s13.666 11 24.999 13z" />
    <glyph glyph-name="Ucircumflex" unicode="&#x42b;" horiz-adv-x="692" 
d="M139 682c4 0 8.5 -2.00391 13.5 -6.00391s8.16699 -8.66699 9.5 -14l-9 -46l-3 -72v-99l32 4l15 1l24 -1l25 -1h20l20 1c20.667 0 38.834 -2 54.501 -6s35 -13.833 58 -29.5s41 -35.167 54 -58.5s19.5 -50.333 19.5 -81c0 -34 -9 -68 -27 -102c-24 -44 -63 -81 -117 -111
l-38 -18l-27 -11c-23.333 -8 -47.666 -14 -72.999 -18l-31 -3c-20.667 0 -34.667 3.33301 -42 10c-7.33301 5.33301 -12 12.333 -14 21c0 6 3 12 9 18s13.333 10 22 12l9 -3l7 -2h29l30 5l25 4l23 9c48 20 85.667 43.667 113 71c34 34 51 73.333 51 118
c0 38 -17.333 69.333 -52 94s-78.667 37 -132 37c-22 0 -37.833 -0.666992 -47.5 -2s-22.834 -4.33301 -39.501 -9c-4 -30 -6 -54 -6 -72v-18c0 -5.33301 0.666992 -12 2 -20l9 -47c8 -34 12 -67 12 -99v-18l-5 -19c-0.666992 -5.33301 -3.66699 -9.66602 -9 -12.999l-18 -6
c-6 0 -11.167 1.33301 -15.5 4s-6.83301 9.33398 -7.5 20.001l1 24l-5 10l-8 9l-4 7l3 19l2 22c0 10 -0.666992 17 -2 21c-4 22 -6 43 -6 63l1 46l1 26v18c2 6.66699 3.33301 11.334 4 14.001l-18 1l-13 -7l-23 1c-6 1.33301 -10.333 4 -13 8l-4 12l3 13
c2 4.66699 10.333 9.33398 25 14.001c7.33301 2 14.5 3.66699 21.5 5s14.167 2 21.5 2v21l-1 13l-1 17v16v12l-2 14c0 63.333 5.33301 107 16 131c7.33301 16 16.666 24 27.999 24zM598 668.996c13.333 0 22.334 -5.66699 27.001 -17l4 -30v-15v-13l-1 -44v-26
c-2 -8 -3.33301 -13.667 -4 -17l-10 -103l-7 -126l-2 -125v-43c0 -14 2.66699 -24.667 8 -32l9 -12c0 -8.66699 -4.33301 -17.5 -13 -26.5s-19.334 -13.5 -32.001 -13.5c-11.333 0 -20.166 14.833 -26.499 44.5s-9.5 67.167 -9.5 112.5c0 61.333 2 110 6 146l6 48l8 55
l-1 63l4 23l5 21l-2 44l-2 36c0 18 2.66699 30.333 8 37s13.666 11 24.999 13z" />
    <glyph glyph-name="Udieresis" unicode="&#xdc;" horiz-adv-x="510" 
d="M132 682c5.33301 0 10.167 -1.83301 14.5 -5.5s7.5 -8.5 9.5 -14.5l-6 -47l-2 -71l3 -99l32 4l15 1l24 -1l25 -1l63 -1c16.667 0 29.334 -1.33301 38.001 -4c16.667 -2 35.334 -9.66699 56.001 -23c19.333 -10.667 37 -29.667 53 -57c5.33301 -10 10.333 -23 15 -39
s7 -32.667 7 -50c0 -54.667 -17.333 -100.667 -52 -138c-14 -14 -47 -39 -99 -75l-47 -29c-14.667 -6 -39.334 -12 -74.001 -18l-32 -3c-19.333 0 -33 3 -41 9s-13 13.333 -15 22c0 4 3 10.667 9 20c6 6 12.667 9.33301 20 10l9 -3l8 -2l23 1h15c8 2 14 3.33301 18 4
c24 4 40.667 8.33301 50 13c36 19.333 67.667 42 95 68c41.333 40 62 80.333 62 121c0 44.667 -16.667 76.667 -50 96c-14.667 9.33301 -42.334 18 -83.001 26l-36 5l-35 2l-34 -1l-14 -1l-23 -7v-12v-8c-1.33301 -3.33301 -2 -5.66602 -2 -6.99902v-26
c0 -28 6 -69.667 18 -125c6.66699 -35.333 10 -61.333 10 -78l-3 -32c-2 -8 -5 -14 -9 -18l-18 -6c-6.66699 0 -11.834 1.5 -15.501 4.5s-6.5 9.5 -8.5 19.5v24l-9 12l-8 14l2 19l-8 61l-4 57l1 34v33c2 11.333 3.33301 19.666 4 24.999l-18 1l-13 -7l-23 2
c-7.33301 2 -12.166 4.66699 -14.499 8s-3.5 7 -3.5 11s1.16699 8.33301 3.5 13s11.5 9.66699 27.5 15c15.333 4 28.333 6 39 6c0 8.66699 -0.166992 18.167 -0.5 28.5s-1.5 20.833 -3.5 31.5l-3 33c0 60 3 100.833 9 122.5s15.667 32.5 29 32.5z" />
    <glyph glyph-name="Udieresis" unicode="&#x42c;" horiz-adv-x="510" 
d="M132 682c5.33301 0 10.167 -1.83301 14.5 -5.5s7.5 -8.5 9.5 -14.5l-6 -47l-2 -71l3 -99l32 4l15 1l24 -1l25 -1l63 -1c16.667 0 29.334 -1.33301 38.001 -4c16.667 -2 35.334 -9.66699 56.001 -23c19.333 -10.667 37 -29.667 53 -57c5.33301 -10 10.333 -23 15 -39
s7 -32.667 7 -50c0 -54.667 -17.333 -100.667 -52 -138c-14 -14 -47 -39 -99 -75l-47 -29c-14.667 -6 -39.334 -12 -74.001 -18l-32 -3c-19.333 0 -33 3 -41 9s-13 13.333 -15 22c0 4 3 10.667 9 20c6 6 12.667 9.33301 20 10l9 -3l8 -2l23 1h15c8 2 14 3.33301 18 4
c24 4 40.667 8.33301 50 13c36 19.333 67.667 42 95 68c41.333 40 62 80.333 62 121c0 44.667 -16.667 76.667 -50 96c-14.667 9.33301 -42.334 18 -83.001 26l-36 5l-35 2l-34 -1l-14 -1l-23 -7v-12v-8c-1.33301 -3.33301 -2 -5.66602 -2 -6.99902v-26
c0 -28 6 -69.667 18 -125c6.66699 -35.333 10 -61.333 10 -78l-3 -32c-2 -8 -5 -14 -9 -18l-18 -6c-6.66699 0 -11.834 1.5 -15.501 4.5s-6.5 9.5 -8.5 19.5v24l-9 12l-8 14l2 19l-8 61l-4 57l1 34v33c2 11.333 3.33301 19.666 4 24.999l-18 1l-13 -7l-23 2
c-7.33301 2 -12.166 4.66699 -14.499 8s-3.5 7 -3.5 11s1.16699 8.33301 3.5 13s11.5 9.66699 27.5 15c15.333 4 28.333 6 39 6c0 8.66699 -0.166992 18.167 -0.5 28.5s-1.5 20.833 -3.5 31.5l-3 33c0 60 3 100.833 9 122.5s15.667 32.5 29 32.5z" />
    <glyph glyph-name="Yacute" unicode="&#xdd;" horiz-adv-x="623" 
d="M513 341l-45.999 3l-50 -3l-78 -9l-27 1l-27 -4l-44 -8c-13.333 -2 -33.666 -7 -60.999 -15l-20 -3c-9.33301 0 -17.333 2 -24 6s-10 9.66699 -10 17c0 11.333 8.16699 23.5 24.5 36.5s31.166 19.5 44.499 19.5l21 -2l21 -2l23 3l26 8l29 5l39 1h40l19 4l39 4l72 -1l2 20
v18c0 52 -15 94.667 -45 128c-38.667 40.667 -101.334 61 -188.001 61c-60 0 -108.667 -7.33301 -146 -22l-105 -48c-4 0 -7 2.66699 -9 8l-3 17c0 30.667 36.333 57.334 109 80.001c63.333 17.333 127.333 26 192 26c86 0 150.833 -24.833 194.5 -74.5
s65.5 -127.5 65.5 -233.5l-6 -34c-2 -16 -11 -48 -27 -96c-6 -22 -19 -48 -39 -78c-22 -34 -43 -57 -63 -69l-132 -76c-18 -8.66699 -32.333 -14 -43 -16l-17 2l-33 -3l-46 -8l-39 -3c-35.333 0 -59 3.16699 -71 9.5s-19 15.166 -21 26.499c0 11.333 3.66699 19.333 11 24
c10.667 4.66699 23 7 37 7c8 0 16 -1.33301 24 -4l19 -3l24 3l18 4l25 3l33 5c73.333 10 135.333 38.333 186 85c54.667 50.667 82 110.667 82 180z" />
    <glyph glyph-name="Yacute" unicode="&#x42d;" horiz-adv-x="623" 
d="M513 341l-45.999 3l-50 -3l-78 -9l-27 1l-27 -4l-44 -8c-13.333 -2 -33.666 -7 -60.999 -15l-20 -3c-9.33301 0 -17.333 2 -24 6s-10 9.66699 -10 17c0 11.333 8.16699 23.5 24.5 36.5s31.166 19.5 44.499 19.5l21 -2l21 -2l23 3l26 8l29 5l39 1h40l19 4l39 4l72 -1l2 20
v18c0 52 -15 94.667 -45 128c-38.667 40.667 -101.334 61 -188.001 61c-60 0 -108.667 -7.33301 -146 -22l-105 -48c-4 0 -7 2.66699 -9 8l-3 17c0 30.667 36.333 57.334 109 80.001c63.333 17.333 127.333 26 192 26c86 0 150.833 -24.833 194.5 -74.5
s65.5 -127.5 65.5 -233.5l-6 -34c-2 -16 -11 -48 -27 -96c-6 -22 -19 -48 -39 -78c-22 -34 -43 -57 -63 -69l-132 -76c-18 -8.66699 -32.333 -14 -43 -16l-17 2l-33 -3l-46 -8l-39 -3c-35.333 0 -59 3.16699 -71 9.5s-19 15.166 -21 26.499c0 11.333 3.66699 19.333 11 24
c10.667 4.66699 23 7 37 7c8 0 16 -1.33301 24 -4l19 -3l24 3l18 4l25 3l33 5c73.333 10 135.333 38.333 186 85c54.667 50.667 82 110.667 82 180z" />
    <glyph glyph-name="Thorn" unicode="&#xde;" horiz-adv-x="924" 
d="M620 643c12.667 0 21.6689 -0.666992 27.002 -2c7.33301 -0.666992 16.666 -3.66699 27.999 -9c28.667 -11.333 63.667 -32.666 105 -63.999c28 -22 53 -58.833 75 -110.5s33 -101.5 33 -149.5c0 -29.333 -3.66699 -52.333 -11 -69
c-29.333 -78.667 -67.833 -136.834 -115.5 -174.501s-104.834 -56.5 -171.501 -56.5c-71.333 0 -129.5 26 -174.5 78s-67.5 114 -67.5 186v23l2 14c-30 -10 -59 -17 -87 -21l-114 -4l-2 -32l-1 -32c0 -8 3 -17.667 9 -29l13 -19l5 -21l-1 -16
c0 -7.33301 1.5 -15.5 4.5 -24.5s9.5 -19.833 19.5 -32.5c5.33301 -6.66699 9 -15 11 -25c0 -8.66699 -5.16699 -19.167 -15.5 -31.5s-19.5 -19.5 -27.5 -21.5c-16 -0 -29 8.33301 -39 25c-14 24 -21 64 -21 120c0 60 -7 101.667 -21 125l-34 36l-7 21
c0 5.33301 7 9.66602 21 12.999c14.667 2 23.334 4 26.001 6s5.66699 9.33301 9 22l2 61v53l2 50l3 35l-4 22l-4 24c0 12 2.83301 22.167 8.5 30.5s13.5 13.5 23.5 15.5c12 0 21.667 -3.66699 29 -11c10 -12 15 -36.667 15 -74c0 -8 -1.66699 -16.333 -5 -25l-4 -21l2 -21
l2 -22v-17c-2 -9.33301 -3.33301 -16.666 -4 -21.999l-5 -33l-6 -69c56 0 97.333 2 124 6s50 10 70 18c25.333 88 55 152.667 89 194c45.333 54 106.666 81 183.999 81zM597.002 586c-22 0 -39.168 -2.99902 -51.501 -8.99902s-27.166 -17.333 -44.499 -34
c-42 -40 -67.333 -73.667 -76 -101l-5 -68l-3 -23l-8 -30l-5 -28c0 -16.667 1.66699 -30.334 5 -41.001l24 -58c26 -56 50.667 -92.667 74 -110c9.33301 -6 21.5 -10.833 36.5 -14.5s33.5 -5.5 55.5 -5.5c56 0 101 16 135 48c14 12 31.333 38.333 52 79l30 52
c12 25.333 18 51.333 18 78c0 18 -3 38 -9 60c-4 22 -13.333 45.667 -28 71c-18 33.333 -40.333 61.333 -67 84c-40.667 33.333 -85 50 -133 50z" />
    <glyph glyph-name="Thorn" unicode="&#x42e;" horiz-adv-x="924" 
d="M620 643c12.667 0 21.6689 -0.666992 27.002 -2c7.33301 -0.666992 16.666 -3.66699 27.999 -9c28.667 -11.333 63.667 -32.666 105 -63.999c28 -22 53 -58.833 75 -110.5s33 -101.5 33 -149.5c0 -29.333 -3.66699 -52.333 -11 -69
c-29.333 -78.667 -67.833 -136.834 -115.5 -174.501s-104.834 -56.5 -171.501 -56.5c-71.333 0 -129.5 26 -174.5 78s-67.5 114 -67.5 186v23l2 14c-30 -10 -59 -17 -87 -21l-114 -4l-2 -32l-1 -32c0 -8 3 -17.667 9 -29l13 -19l5 -21l-1 -16
c0 -7.33301 1.5 -15.5 4.5 -24.5s9.5 -19.833 19.5 -32.5c5.33301 -6.66699 9 -15 11 -25c0 -8.66699 -5.16699 -19.167 -15.5 -31.5s-19.5 -19.5 -27.5 -21.5c-16 -0 -29 8.33301 -39 25c-14 24 -21 64 -21 120c0 60 -7 101.667 -21 125l-34 36l-7 21
c0 5.33301 7 9.66602 21 12.999c14.667 2 23.334 4 26.001 6s5.66699 9.33301 9 22l2 61v53l2 50l3 35l-4 22l-4 24c0 12 2.83301 22.167 8.5 30.5s13.5 13.5 23.5 15.5c12 0 21.667 -3.66699 29 -11c10 -12 15 -36.667 15 -74c0 -8 -1.66699 -16.333 -5 -25l-4 -21l2 -21
l2 -22v-17c-2 -9.33301 -3.33301 -16.666 -4 -21.999l-5 -33l-6 -69c56 0 97.333 2 124 6s50 10 70 18c25.333 88 55 152.667 89 194c45.333 54 106.666 81 183.999 81zM597.002 586c-22 0 -39.168 -2.99902 -51.501 -8.99902s-27.166 -17.333 -44.499 -34
c-42 -40 -67.333 -73.667 -76 -101l-5 -68l-3 -23l-8 -30l-5 -28c0 -16.667 1.66699 -30.334 5 -41.001l24 -58c26 -56 50.667 -92.667 74 -110c9.33301 -6 21.5 -10.833 36.5 -14.5s33.5 -5.5 55.5 -5.5c56 0 101 16 135 48c14 12 31.333 38.333 52 79l30 52
c12 25.333 18 51.333 18 78c0 18 -3 38 -9 60c-4 22 -13.333 45.667 -28 71c-18 33.333 -40.333 61.333 -67 84c-40.667 33.333 -85 50 -133 50z" />
    <glyph glyph-name="germandbls" unicode="&#xdf;" horiz-adv-x="533" 
d="M445 546l20.002 -112.004c7.33301 -51.333 11 -85.666 11 -102.999c0 -9.33301 -1.66699 -18.666 -5 -27.999l-4 -25l2 -47l1 -25v-22v-16l-3 -43c0 -9.33301 3 -26.166 9 -50.499s9 -44.5 9 -60.5c0 -7.33301 -2.83301 -15.333 -8.5 -24s-12.5 -14 -20.5 -16
c-6 0 -12 2 -18 6s-11.333 10.333 -16 19l-3 13l2 17l2 22v16v182l-25 -23l-34 -34l-32 -37l-15 -10l-12 -7l-31 -15l-55 -39l-88 -53c-42.667 -23.333 -74.334 -35 -95.001 -35c-4 0 -10.667 3 -20 9c-6 6 -9.33301 12.667 -10 20c0 12 23.667 31.667 71 59l113 64l70 42
l40 26l47 37c-74.667 0 -141.334 12.667 -200.001 38c-70 30 -105 71.667 -105 125c0 60.667 16.667 105.667 50 135c42 38 117 57 225 57c68 0 117.667 -5 149 -15c18.667 -6 28 -14 28 -24c0 -3.33301 -6 -8.66602 -18 -15.999zM389.002 553.996l-137 3.00098
c-50 0 -89.667 -14.667 -119 -44c-22.667 -24.667 -34 -50.334 -34 -77.001c0 -34 25 -65 75 -93s102.667 -42 158 -42c20 0 36.5 1.16699 49.5 3.5s26.167 7.83301 39.5 16.5l-3 51l-10 65z" />
    <glyph glyph-name="germandbls" unicode="&#x42f;" horiz-adv-x="533" 
d="M445 546l20.002 -112.004c7.33301 -51.333 11 -85.666 11 -102.999c0 -9.33301 -1.66699 -18.666 -5 -27.999l-4 -25l2 -47l1 -25v-22v-16l-3 -43c0 -9.33301 3 -26.166 9 -50.499s9 -44.5 9 -60.5c0 -7.33301 -2.83301 -15.333 -8.5 -24s-12.5 -14 -20.5 -16
c-6 0 -12 2 -18 6s-11.333 10.333 -16 19l-3 13l2 17l2 22v16v182l-25 -23l-34 -34l-32 -37l-15 -10l-12 -7l-31 -15l-55 -39l-88 -53c-42.667 -23.333 -74.334 -35 -95.001 -35c-4 0 -10.667 3 -20 9c-6 6 -9.33301 12.667 -10 20c0 12 23.667 31.667 71 59l113 64l70 42
l40 26l47 37c-74.667 0 -141.334 12.667 -200.001 38c-70 30 -105 71.667 -105 125c0 60.667 16.667 105.667 50 135c42 38 117 57 225 57c68 0 117.667 -5 149 -15c18.667 -6 28 -14 28 -24c0 -3.33301 -6 -8.66602 -18 -15.999zM389.002 553.996l-137 3.00098
c-50 0 -89.667 -14.667 -119 -44c-22.667 -24.667 -34 -50.334 -34 -77.001c0 -34 25 -65 75 -93s102.667 -42 158 -42c20 0 36.5 1.16699 49.5 3.5s26.167 7.83301 39.5 16.5l-3 51l-10 65z" />
    <glyph glyph-name="agrave" unicode="&#xe0;" horiz-adv-x="440" 
d="M186 390c16.667 0 29.6689 -3.66797 39.002 -11.001l25 -23l13 -9c4 -2 6 -6.66699 6 -14l3 -21c0 -5.33301 2.66699 -9 8 -11c10 0 19 2.66699 27 8l20 8c8 0 15.333 -11.333 22 -34c2.66699 -10 5 -21 7 -33s3 -23.667 3 -35l-1 -15
c0 -7.33301 -0.666992 -12.333 -2 -15l2 -13l6 -12l5 -9v-19l-1 -13v-7l2 -17c1.33301 -9.33301 4 -17.333 8 -24l10 -19l11 -13l10 -19l4 -20l-3 -8l-9 -7l-10 -4h-19l-22 18l-16 20v23l-8 17l-7 17l-7 26l-1 12l1 14c0 6.66699 -1.16699 13.834 -3.5 21.501
s-5.83301 12.5 -10.5 14.5l-5 -2l-6 -4l-11 -11l-15 -4l-18 2c-4 0 -8.16699 -1.83301 -12.5 -5.5s-10.5 -13.5 -18.5 -29.5c-4 -12 -10 -21 -18 -27c-12.667 -9.33301 -30 -24.333 -52 -45l-21 -18l-17 -4l-16 1h-23c-8 2 -17.5 10.5 -28.5 25.5s-16.5 28.5 -16.5 40.5
c0 6 2 16.667 6 32l11 39c11.333 56.667 23.666 101 36.999 133c29.333 68.667 66.666 103 111.999 103zM173.002 329.999c-17.333 0 -32.999 -13.334 -46.999 -40.001l-19 -56c-2 -6.66699 -4.66699 -11.667 -8 -15s-6.33301 -18.666 -9 -45.999l-9 -58l-2 -16l3 -13
c2 -6 6 -9 12 -9c15.333 0 42.666 22.167 81.999 66.5s59 78.833 59 103.5c0 16.667 -4.66699 33 -14 49c-12.667 22.667 -28.667 34 -48 34z" />
    <glyph glyph-name="agrave" unicode="&#x430;" horiz-adv-x="440" 
d="M186 390c16.667 0 29.6689 -3.66797 39.002 -11.001l25 -23l13 -9c4 -2 6 -6.66699 6 -14l3 -21c0 -5.33301 2.66699 -9 8 -11c10 0 19 2.66699 27 8l20 8c8 0 15.333 -11.333 22 -34c2.66699 -10 5 -21 7 -33s3 -23.667 3 -35l-1 -15
c0 -7.33301 -0.666992 -12.333 -2 -15l2 -13l6 -12l5 -9v-19l-1 -13v-7l2 -17c1.33301 -9.33301 4 -17.333 8 -24l10 -19l11 -13l10 -19l4 -20l-3 -8l-9 -7l-10 -4h-19l-22 18l-16 20v23l-8 17l-7 17l-7 26l-1 12l1 14c0 6.66699 -1.16699 13.834 -3.5 21.501
s-5.83301 12.5 -10.5 14.5l-5 -2l-6 -4l-11 -11l-15 -4l-18 2c-4 0 -8.16699 -1.83301 -12.5 -5.5s-10.5 -13.5 -18.5 -29.5c-4 -12 -10 -21 -18 -27c-12.667 -9.33301 -30 -24.333 -52 -45l-21 -18l-17 -4l-16 1h-23c-8 2 -17.5 10.5 -28.5 25.5s-16.5 28.5 -16.5 40.5
c0 6 2 16.667 6 32l11 39c11.333 56.667 23.666 101 36.999 133c29.333 68.667 66.666 103 111.999 103zM173.002 329.999c-17.333 0 -32.999 -13.334 -46.999 -40.001l-19 -56c-2 -6.66699 -4.66699 -11.667 -8 -15s-6.33301 -18.666 -9 -45.999l-9 -58l-2 -16l3 -13
c2 -6 6 -9 12 -9c15.333 0 42.666 22.167 81.999 66.5s59 78.833 59 103.5c0 16.667 -4.66699 33 -14 49c-12.667 22.667 -28.667 34 -48 34z" />
    <glyph glyph-name="aacute" unicode="&#xe1;" horiz-adv-x="455" 
d="M452 783c0 -16.667 -25.6689 -35.333 -77.002 -56l-120 -38l-108 -27c-53.333 -15.333 -80 -31.333 -80 -48c0 -14.667 11.333 -29.334 34 -44.001l74 -32c72.667 -28 128 -64.667 166 -110c42.667 -50.667 64 -107 64 -169v-64c0 -49.333 -17 -95.666 -51 -138.999
c-31.333 -38.667 -63.333 -58 -96 -58c-74 0 -130.667 17.333 -170 52c-30.667 27.333 -46 59.666 -46 96.999c0 44.667 7.66699 82 23 112c25.333 49.333 69 74 131 74l33 -3c3.33301 -0.666992 8.5 -2 15.5 -4s13.167 -4.33301 18.5 -7c22.667 -8 34 -20.667 34 -38
c0 -7.33301 -1.5 -14 -4.5 -20s-7.16699 -10 -12.5 -12l-7 2l-11 8c-9.33301 7.33301 -19.666 12.333 -30.999 15l-35 4c-30 0 -54 -14 -72 -42c-5.33301 -9.33301 -10.333 -21.333 -15 -36s-7 -29.334 -7 -44.001c0 -30 13.333 -54.333 40 -73
c26.667 -17.333 60.667 -26 102 -26c44 0 74.667 29 92 87c2.66699 12.667 5 28.834 7 48.501s3 40.5 3 62.5c0 46.667 -19.333 89.667 -58 129c-16 16.667 -45.667 39.334 -89 68.001l-128 64c-53.333 28 -80 55.667 -80 83c0 28 16.667 52.667 50 74
c16.667 10 50.334 23.667 101.001 41l181 60c62 22 98.667 33 110 33c12.667 0 19 -8 19 -24z" />
    <glyph glyph-name="aacute" unicode="&#x431;" horiz-adv-x="455" 
d="M452 783c0 -16.667 -25.6689 -35.333 -77.002 -56l-120 -38l-108 -27c-53.333 -15.333 -80 -31.333 -80 -48c0 -14.667 11.333 -29.334 34 -44.001l74 -32c72.667 -28 128 -64.667 166 -110c42.667 -50.667 64 -107 64 -169v-64c0 -49.333 -17 -95.666 -51 -138.999
c-31.333 -38.667 -63.333 -58 -96 -58c-74 0 -130.667 17.333 -170 52c-30.667 27.333 -46 59.666 -46 96.999c0 44.667 7.66699 82 23 112c25.333 49.333 69 74 131 74l33 -3c3.33301 -0.666992 8.5 -2 15.5 -4s13.167 -4.33301 18.5 -7c22.667 -8 34 -20.667 34 -38
c0 -7.33301 -1.5 -14 -4.5 -20s-7.16699 -10 -12.5 -12l-7 2l-11 8c-9.33301 7.33301 -19.666 12.333 -30.999 15l-35 4c-30 0 -54 -14 -72 -42c-5.33301 -9.33301 -10.333 -21.333 -15 -36s-7 -29.334 -7 -44.001c0 -30 13.333 -54.333 40 -73
c26.667 -17.333 60.667 -26 102 -26c44 0 74.667 29 92 87c2.66699 12.667 5 28.834 7 48.501s3 40.5 3 62.5c0 46.667 -19.333 89.667 -58 129c-16 16.667 -45.667 39.334 -89 68.001l-128 64c-53.333 28 -80 55.667 -80 83c0 28 16.667 52.667 50 74
c16.667 10 50.334 23.667 101.001 41l181 60c62 22 98.667 33 110 33c12.667 0 19 -8 19 -24z" />
    <glyph glyph-name="acircumflex" unicode="&#xe2;" horiz-adv-x="463" 
d="M290 772c33.333 0 59.334 -14.332 78.001 -42.999c16 -24 24 -53 24 -87c0 -26.667 -5.33301 -54 -16 -82c-16 -40 -40.667 -76.667 -74 -110c-41.333 -39.333 -97.666 -71.666 -168.999 -96.999l-5 -47l-2 -44c0 -8.66699 1.66699 -18.334 5 -29.001l11 -39
c12 -50.667 26.667 -85 44 -103c20 -21.333 45.667 -32 77 -32s57.5 10.167 78.5 30.5s31.5 48.5 31.5 84.5s-11.667 64.333 -35 85c-20.667 16.667 -42.334 25 -65.001 25c-10 0 -21.167 -3.16699 -33.5 -9.5s-22.5 -13.5 -30.5 -21.5l-16 -23c-6 -10 -11.333 -15 -16 -15
c-6.66699 0 -12.334 2.33301 -17.001 7c-3.33301 5.33301 -5 13.666 -5 24.999c0 28 13.667 50.333 41 67s56.333 25 87 25c48 0 84.333 -14.333 109 -43s37 -71.667 37 -129c0 -42 -10.333 -77.667 -31 -107c-29.333 -39.333 -77 -59 -143 -59c-46.667 0 -88 21 -124 63
c-26 31.333 -42.333 67 -49 107l-10 63l-5 50l1 28l7 30l-46 -4c-32.667 0 -63.5 5 -92.5 15s-43.5 22.667 -43.5 38c0 8.66699 3 21 9 37s13 24 21 24c3.33301 0 9 -4.33301 17 -13c7.33301 -12 21.333 -22.667 42 -32c22 -6.66699 41 -10 57 -10
c18.667 0 33.667 2.33301 45 7c6 66 14 119 24 159c14 62 34.333 110.333 61 145c32.667 42.667 73 64 121 64zM140.001 414.001c46 12 88.333 38.332 127 78.999c41.333 42.667 62 85.667 62 129c0 28.667 -4.83301 51.5 -14.5 68.5s-21.5 25.5 -35.5 25.5
c-22 0 -45.5 -19.167 -70.5 -57.5s-42.5 -86.166 -52.5 -143.499l-3 -34c0 -18.667 -4.33301 -41 -13 -67z" />
    <glyph glyph-name="acircumflex" unicode="&#x432;" horiz-adv-x="463" 
d="M290 772c33.333 0 59.334 -14.332 78.001 -42.999c16 -24 24 -53 24 -87c0 -26.667 -5.33301 -54 -16 -82c-16 -40 -40.667 -76.667 -74 -110c-41.333 -39.333 -97.666 -71.666 -168.999 -96.999l-5 -47l-2 -44c0 -8.66699 1.66699 -18.334 5 -29.001l11 -39
c12 -50.667 26.667 -85 44 -103c20 -21.333 45.667 -32 77 -32s57.5 10.167 78.5 30.5s31.5 48.5 31.5 84.5s-11.667 64.333 -35 85c-20.667 16.667 -42.334 25 -65.001 25c-10 0 -21.167 -3.16699 -33.5 -9.5s-22.5 -13.5 -30.5 -21.5l-16 -23c-6 -10 -11.333 -15 -16 -15
c-6.66699 0 -12.334 2.33301 -17.001 7c-3.33301 5.33301 -5 13.666 -5 24.999c0 28 13.667 50.333 41 67s56.333 25 87 25c48 0 84.333 -14.333 109 -43s37 -71.667 37 -129c0 -42 -10.333 -77.667 -31 -107c-29.333 -39.333 -77 -59 -143 -59c-46.667 0 -88 21 -124 63
c-26 31.333 -42.333 67 -49 107l-10 63l-5 50l1 28l7 30l-46 -4c-32.667 0 -63.5 5 -92.5 15s-43.5 22.667 -43.5 38c0 8.66699 3 21 9 37s13 24 21 24c3.33301 0 9 -4.33301 17 -13c7.33301 -12 21.333 -22.667 42 -32c22 -6.66699 41 -10 57 -10
c18.667 0 33.667 2.33301 45 7c6 66 14 119 24 159c14 62 34.333 110.333 61 145c32.667 42.667 73 64 121 64zM140.001 414.001c46 12 88.333 38.332 127 78.999c41.333 42.667 62 85.667 62 129c0 28.667 -4.83301 51.5 -14.5 68.5s-21.5 25.5 -35.5 25.5
c-22 0 -45.5 -19.167 -70.5 -57.5s-42.5 -86.166 -52.5 -143.499l-3 -34c0 -18.667 -4.33301 -41 -13 -67z" />
    <glyph glyph-name="atilde" unicode="&#xe3;" horiz-adv-x="341" 
d="M171 399c17.333 0 31.667 -6.66699 43 -20c6.66699 -8.66699 11 -19 13 -31l-1 -21l-7 -26c-8 -26 -23.333 -64.667 -46 -116l-18 -46l-5 -27c0 -12 4.33301 -21.833 13 -29.5s23.334 -11.5 44.001 -11.5c22.667 0 43.667 4.33301 63 13l60 27c22.667 8 43 14 61 18
s31.667 6 41 6c3.33301 0 6.66602 -2 9.99902 -6l6 -17c0 -16.667 -20 -32 -60 -46l-106 -29l-30 -14c-22.667 -10.667 -48.667 -16 -78 -16c-20.667 0 -38 3.66699 -52 11c-22.667 11.333 -34 30.333 -34 57l3 21l5 17c5.33301 18.667 13.666 42.334 24.999 71.001l29 67
c6 16 9 31 9 45c0 10.667 -2.16699 18 -6.5 22s-14.5 6 -30.5 6c-6 0 -16 -3 -30 -9c-9.33301 -3.33301 -16.666 -7 -21.999 -11l-29 -18c-8 -5.33301 -20.333 -17.333 -37 -36c-11.333 -14 -20 -21 -26 -21c-8.66699 0 -16.667 2.16699 -24 6.5s-12 10.166 -14 17.499
c0 5.33301 4.33301 10.333 13 15s16.667 13 24 25c4 10 16.333 21 37 33l37 19l65 33l27 14z" />
    </font>
</defs>
</svg>
